<svg xmlns="http://www.w3.org/2000/svg" width="20" height="20" viewBox="0 0 20 20">
    <g fill="none" fill-rule="evenodd">
        <g fill="#01989F">
            <g>
                <g>
                    <g>
                        <path d="M10 1.429c4.734 0 8.571 3.837 8.571 8.571S14.734 18.571 10 18.571 1.429 14.734 1.429 10 5.266 1.429 10 1.429zm0 1.428c-3.945 0-7.143 3.198-7.143 7.143S6.055 17.143 10 17.143s7.143-3.198 7.143-7.143S13.945 2.857 10 2.857zm0 2.857c2.367 0 4.286 1.92 4.286 4.286 0 2.367-1.92 4.286-4.286 4.286-2.367 0-4.286-1.92-4.286-4.286 0-2.367 1.92-4.286 4.286-4.286z" transform="translate(-320 -289) translate(0 209) translate(0 80) translate(320)"/>
                    </g>
                </g>
            </g>
        </g>
    </g>
</svg>
