<svg xmlns="http://www.w3.org/2000/svg" width="20" height="20" viewBox="0 0 20 20">
    <g fill="none" fill-rule="evenodd">
        <g fill="#191919">
            <g>
                <g>
                    <g>
                        <path d="M16.965 1.429c.888 0 1.607.72 1.607 1.607v13.928c0 .888-.72 1.607-1.607 1.607H3.036c-.887 0-1.607-.72-1.607-1.607V3.036c0-.888.72-1.607 1.607-1.607zm0 1.071H3.036c-.295 0-.535.24-.535.536v13.928c0 .296.24.536.535.536h13.929c.296 0 .536-.24.536-.536V3.036c0-.296-.24-.536-.536-.536zm-8.037 8.036l.142.004c.517.034 1.006.255 1.374.623.273.273.465.612.56.98h3.818c.296 0 .536.24.536.536 0 .27-.202.495-.463.53l-.073.005h-3.817c-.238.925-1.077 1.607-2.075 1.607-.999 0-1.838-.682-2.076-1.606H5.18c-.296 0-.535-.24-.535-.536 0-.272.201-.496.463-.531l.072-.005h1.675c.238-.924 1.076-1.607 2.074-1.607zm0 1.071l-.102.005c-.544.052-.968.51-.968 1.067 0 .592.48 1.071 1.071 1.071.592 0 1.072-.48 1.072-1.071 0-.285-.113-.557-.314-.758-.201-.201-.474-.314-.758-.314zm4.287-6.428c1.184 0 2.143.96 2.143 2.143 0 1.183-.96 2.142-2.144 2.142-.998 0-1.836-.683-2.074-1.607H5.18c-.297 0-.536-.24-.536-.536 0-.27.201-.495.463-.53l.072-.005h5.96c.239-.925 1.078-1.608 2.076-1.607zm0 1.071c-.592 0-1.071.48-1.071 1.071 0 .592.479 1.072 1.07 1.072.592 0 1.072-.48 1.072-1.072 0-.591-.48-1.07-1.07-1.071z" transform="translate(-40 -249) translate(0 209) translate(0 40) translate(40)"/>
                    </g>
                </g>
            </g>
        </g>
    </g>
</svg>
