<svg xmlns="http://www.w3.org/2000/svg" width="20" height="20" viewBox="0 0 20 20">
    <g fill="none" fill-rule="evenodd">
        <g fill="#191919">
            <g>
                <g>
                    <g>
                        <path d="M16.964 1.429H3.036c-.888 0-1.607.72-1.607 1.607v13.928c0 .888.72 1.607 1.607 1.607h13.928c.888 0 1.607-.72 1.607-1.607V3.036c0-.888-.72-1.607-1.607-1.607zM3.036 2.5h13.928c.296 0 .536.24.536.536v13.928c0 .296-.24.536-.536.536H3.036c-.296 0-.536-.24-.536-.536V3.036c0-.296.24-.536.536-.536z" transform="translate(-200 -289) translate(0 209) translate(0 80) translate(200)"/>
                    </g>
                </g>
            </g>
        </g>
    </g>
</svg>
