<svg xmlns="http://www.w3.org/2000/svg" width="20" height="20" viewBox="0 0 20 20">
    <g fill="none" fill-rule="evenodd">
        <g fill="#191919">
            <g>
                <g>
                    <g>
                        <path d="M10 1.429c.271 0 .495.201.53.463l.006.072v2.167c2.827.255 5.078 2.506 5.333 5.333h2.167c.296 0 .535.24.535.536 0 .271-.201.495-.463.53l-.072.006h-2.167c-.255 2.827-2.506 5.078-5.333 5.333v2.167c0 .296-.24.535-.536.535-.271 0-.495-.201-.53-.463l-.006-.072v-2.167c-2.827-.255-5.078-2.506-5.333-5.333H1.964c-.296 0-.535-.24-.535-.536 0-.271.201-.495.463-.53l.072-.006h2.167c.255-2.827 2.506-5.078 5.333-5.333V1.964c0-.296.24-.535.536-.535zm0 3.75C7.332 5.183 5.179 7.34 5.179 10c0-.006 0-.003 0 0 .004 2.668 2.161 4.821 4.821 4.821 2.663 0 4.821-2.158 4.821-4.821S12.663 5.179 10 5.179c.006 0 .003 0 0 0zm0 2.142c1.48 0 2.679 1.2 2.679 2.679 0 1.48-1.2 2.679-2.679 2.679-1.48 0-2.679-1.2-2.679-2.679 0-1.48 1.2-2.679 2.679-2.679zm0 1.072c-.888 0-1.607.72-1.607 1.607 0 .888.72 1.607 1.607 1.607.888 0 1.607-.72 1.607-1.607 0-.888-.72-1.607-1.607-1.607z" transform="translate(-200 -249) translate(0 209) translate(0 40) translate(200)"/>
                    </g>
                </g>
            </g>
        </g>
    </g>
</svg>
