<svg xmlns="http://www.w3.org/2000/svg" width="20" height="20" viewBox="0 0 20 20">
    <g fill="none" fill-rule="evenodd">
        <g fill="#191919">
            <g>
                <g>
                    <path d="M16.786 1.429c.887 0 1.607.72 1.607 1.607v1.607c0 .592-.48 1.071-1.072 1.071v11.25c0 .85-.66 1.547-1.497 1.604l-.11.003H9.286c-.888 0-1.607-.72-1.607-1.607 0-.296.24-.535.535-.535.271 0 .496.201.531.463l.005.072c0 .271.202.496.463.531l.073.005h6.428c.271 0 .496-.202.531-.463l.005-.073v-1.607h-4.821c-.267 0-.488-.194-.53-.449l-.006-.087V9.464c0-.296.24-.535.536-.535h4.82l.001-3.215h-7.5v3.75c0 .271-.202.496-.463.531L8.214 10c-.27 0-.495-.202-.53-.463l-.005-.073v-3.75c-.592 0-1.072-.48-1.072-1.071V3.036c0-.888.72-1.607 1.607-1.607zM6.12 11.17c.548-.548 1.347-.762 2.096-.561.749.2 1.333.785 1.534 1.534.2.749-.013 1.547-.562 2.096l-3.7 3.696c-.847.847-2.22.847-3.068 0-.847-.847-.847-2.221 0-3.069zM4.65 14.156l-1.47 1.47c-.43.428-.43 1.123 0 1.552.429.43 1.124.43 1.553 0l1.47-1.47-1.553-1.552zm3.29-2.511c-.378-.102-.783.006-1.06.284l-1.473 1.47 1.554 1.554 1.472-1.471c.247-.247.36-.594.31-.934l-.026-.127c-.101-.379-.397-.675-.776-.776zM16.25 10h-4.286v4.286h4.286V10zm.536-7.5H8.214c-.296 0-.535.24-.535.536v1.607h9.642V3.036c0-.296-.24-.536-.535-.536z" transform="translate(-40 -209) translate(0 209) translate(40)"/>
                </g>
            </g>
        </g>
    </g>
</svg>
