<svg xmlns="http://www.w3.org/2000/svg" width="20" height="20" viewBox="0 0 20 20">
    <g fill="none" fill-rule="evenodd">
        <g fill="#191919">
            <g>
                <path d="M14.104 2.466c3.143 1.715 4.89 5.203 4.381 8.747-.042.293-.313.496-.606.454-.293-.042-.496-.313-.454-.606.05-.355.076-.71.076-1.061h-4.287c-.296 0-.536-.24-.536-.536 0-.27.201-.495.463-.53l.046-.004v-.019c-.058-1.143-.206-2.226-.427-3.198H7.239c-.223.978-.37 2.067-.427 3.215h2.652c.295 0 .535.24.535.536 0 .271-.201.496-.463.531L9.464 10H6.785c0 1.125.087 2.213.247 3.215h1.896c.296 0 .536.24.536.535 0 .271-.202.495-.463.53l-.073.006h-1.69c.28 1.225.675 2.273 1.156 3.042.521.113 1.059.172 1.606.172.356 0 .71-.024 1.06-.073.294-.04.564.164.605.457.04.294-.164.564-.457.605-.4.055-.803.082-1.208.082-.705 0-1.396-.085-2.06-.25-.01-.001-.02-.004-.03-.007-2.695-.675-4.946-2.635-5.948-5.318-1.253-3.355-.29-7.134 2.415-9.48S10.96.75 14.104 2.466zm-3.64 7.998c.264-.265.652-.362 1.009-.254l5.137 1.541c.341.103.603.377.69.723.088.345-.013.711-.265.963l-.407.407 1.646 1.647c.167.166.27.384.292.616l.005.1c0 .27-.107.527-.296.717l-1.352 1.352c-.396.393-1.035.393-1.432-.002l-1.647-1.646-.405.406c-.227.228-.547.332-.86.287l-.105-.02c-.346-.088-.621-.351-.722-.692l-1.54-5.134c-.11-.358-.013-.747.251-1.011zm.803.802l1.483 4.94.716-.715c.19-.19.488-.207.698-.052l.06.052 1.983 1.984 1.268-1.268-1.984-1.984c-.19-.19-.207-.488-.052-.697l.052-.06.716-.717-4.94-1.483zm-5.125 3.02H3.838c.785 1.126 1.861 2.01 3.102 2.564-.327-.746-.596-1.613-.798-2.563zM5.714 10H2.49c0 .878.156 1.766.475 2.621.076.203.16.4.251.593h2.732c-.153-1.013-.234-2.097-.234-3.214zM16.16 5.713h-2.303c.207.973.344 2.034.4 3.144l.002.071 3.166.001c-.166-1.16-.603-2.261-1.265-3.216zm-10.018 0h-2.31c-.67.965-1.1 2.068-1.265 3.216h3.172c.053-1.135.191-2.221.403-3.216zm.804-2.577l-.238.112c-.579.282-1.127.642-1.63 1.077-.117.103-.232.208-.342.317h1.672c.156-.542.336-1.047.538-1.506zm1.455-.475l.105-.16c-.38.559-.712 1.288-.98 2.14h4.946c-.243-.773-.538-1.445-.873-1.978-1.058-.232-2.15-.23-3.198-.002zm4.654.48l.094.223c.163.396.31.824.441 1.278h1.667c-.487-.479-1.046-.897-1.667-1.235-.176-.096-.354-.185-.535-.265z" transform="translate(0 -209) translate(0 209)"/>
            </g>
        </g>
    </g>
</svg>
