<svg xmlns="http://www.w3.org/2000/svg" width="20" height="20" viewBox="0 0 20 20">
    <g fill="none" fill-rule="evenodd">
        <g fill="#191919">
            <g>
                <g>
                    <g>
                        <path d="M5.705 1.99c3.569-1.517 7.69.146 9.207 3.715 1.07 2.517.557 5.31-1.09 7.27l4.574 4.576c.234.233.234.612 0 .845-.212.213-.544.232-.778.058l-.067-.058-4.575-4.575c-.522.44-1.118.81-1.779 1.09-3.569 1.517-7.69-.146-9.207-3.714-1.517-3.569.147-7.69 3.715-9.207zm8.107 4.183c-1.258-2.961-4.678-4.341-7.64-3.083-2.96 1.258-4.34 4.678-3.082 7.639 1.259 2.96 4.679 4.34 7.64 3.082.701-.298 1.315-.718 1.825-1.225l.014-.017.016-.012c1.618-1.63 2.18-4.14 1.227-6.384z" transform="translate(-120 -249) translate(0 209) translate(0 40) translate(120)"/>
                    </g>
                </g>
            </g>
        </g>
    </g>
</svg>
