<svg xmlns="http://www.w3.org/2000/svg" width="20" height="20" viewBox="0 0 20 20">
    <g fill-rule="evenodd">
        <g>
            <g>
                <g>
                    <path d="M18.036 9.464c.296 0 .535.24.535.536 0 3.69-2.361 6.964-5.86 8.13-3.036 1.013-6.337.242-8.604-1.905V17.5c0 .271-.201.495-.463.53l-.073.006c-.27 0-.495-.202-.53-.463l-.005-.073v-2.679c0-.027.001-.046.004-.065l-.004.065c0-.034.003-.068.01-.101l.01-.047.014-.04c.005-.014.012-.03.02-.044.004-.011.01-.022.016-.032.008-.015.017-.03.027-.043l.029-.038.023-.025c.082-.086.191-.144.314-.16l.072-.005H6.25c.296 0 .536.24.536.535 0 .272-.202.496-.463.531l-.073.005-1.499.001c1.986 1.946 4.923 2.655 7.62 1.756C15.435 16.094 17.5 13.228 17.5 10c0-.296.24-.536.536-.536zm-6.429-3.75c.203 0 .389.115.48.296l.387.776h.74c.85 0 1.547.66 1.604 1.497l.003.11v3.214c0 .888-.72 1.607-1.607 1.607H6.786c-.888 0-1.607-.72-1.607-1.607V8.393c0-.888.72-1.607 1.607-1.607h.74l.388-.776c.08-.158.231-.266.404-.29l.075-.006zm-.331 1.072H8.724l-.388.775c-.08.159-.231.266-.404.29l-.075.006H6.786c-.296 0-.536.24-.536.536v3.214c0 .296.24.536.536.536h6.428c.296 0 .536-.24.536-.536V8.393c0-.296-.24-.536-.536-.536h-1.071c-.203 0-.389-.115-.48-.296l-.387-.775zM10 7.857c1.036 0 1.875.84 1.875 1.875 0 1.036-.84 1.875-1.875 1.875-1.036 0-1.875-.84-1.875-1.875 0-1.035.84-1.875 1.875-1.875zm0 1.072c-.444 0-.804.36-.804.803 0 .444.36.804.804.804.444 0 .804-.36.804-.804 0-.444-.36-.803-.804-.803zm6.484-3.218l-.055.003H13.75c-.296 0-.536-.24-.536-.535 0-.272.202-.496.463-.531l.073-.005h1.5c-1.985-1.947-4.924-2.657-7.622-1.757C4.566 3.906 2.501 6.772 2.5 10c0 .296-.24.536-.536.536-.296 0-.535-.24-.535-.536 0-3.69 2.361-6.964 5.86-8.13 3.036-1.013 6.337-.242 8.605 1.905L15.893 2.5c0-.271.201-.495.463-.53l.073-.006c.27 0 .495.202.53.463l.005.073v2.694l-.002.035.002-.05c0 .038-.004.076-.012.113l-.004.017c-.006.024-.013.047-.022.07l-.008.016c-.009.021-.02.043-.032.063l-.012.018c-.012.019-.026.037-.041.054l-.017.018c-.017.018-.035.034-.054.05l-.012.008c-.074.056-.158.091-.249.103l-.017.002z" transform="translate(-80 -209) translate(0 209) translate(80)"/>
                </g>
            </g>
        </g>
    </g>
</svg>
