<svg xmlns="http://www.w3.org/2000/svg" width="20" height="20" viewBox="0 0 20 20">
    <g fill="none" fill-rule="evenodd">
        <g fill="#99E67B">
            <g>
                <g>
                    <g>
                        <path d="M13.865 5.974c.184-.232.52-.271.753-.088.21.167.263.46.133.687l-.045.066-5.596 7.08c-.251.33-.646.519-1.061.506-.378-.01-.729-.187-.958-.47l-.065-.089-1.75-2.483c-.17-.242-.112-.576.13-.747.22-.155.516-.12.696.068l.05.062L7.91 13.06c.039.057.103.092.172.095.051.001.101-.016.143-.052l.04-.04 5.601-7.089z" transform="translate(-400 -289) translate(0 209) translate(0 80) translate(400)"/>
                    </g>
                </g>
            </g>
        </g>
    </g>
</svg>
