<svg xmlns="http://www.w3.org/2000/svg" width="20" height="20" viewBox="0 0 20 20">
    <g fill="none" fill-rule="evenodd">
        <g fill="#191919">
            <g>
                <g>
                    <g>
                        <path d="M18.036 12.143c.272 0 .496.201.531.463l.005.073v1.071c0 1.432-1.123 2.6-2.536 2.675l-.142.004H4.108c-1.432 0-2.601-1.124-2.675-2.537l-.004-.142v-1.071c0-.296.24-.536.536-.536.271 0 .495.201.53.463l.006.073v1.071c0 .85.66 1.547 1.497 1.603l.11.004h11.786c.85 0 1.546-.66 1.603-1.497l.004-.11v-1.071c0-.296.24-.536.535-.536zM10.001 3.57c.27 0 .495.202.53.463l.005.073v7.277l2.3-2.299c.19-.19.488-.207.698-.051l.06.051c.19.19.207.488.052.698l-.052.06-3.214 3.214c-.021.02-.043.04-.067.057l.067-.057c-.032.032-.066.058-.102.08-.014.009-.03.017-.046.025l-.035.015c-.016.006-.032.012-.05.017l-.034.008-.05.009-.044.003H9.97l-.038-.004.069.004c-.042 0-.082-.004-.12-.013-.015-.004-.029-.007-.043-.012l-.036-.013c-.017-.006-.033-.014-.049-.022-.018-.01-.035-.02-.052-.032l-.019-.013-.06-.052-3.214-3.214c-.21-.21-.21-.548 0-.758.19-.19.487-.207.697-.051l.06.051 2.3 2.3V4.106c0-.296.24-.536.536-.536z" transform="translate(-280 -249) translate(0 209) translate(0 40) translate(280)"/>
                    </g>
                </g>
            </g>
        </g>
    </g>
</svg>
