<svg xmlns="http://www.w3.org/2000/svg" width="24" height="24" viewBox="0 0 20 20" fill="currentColor" fill-rule="evenodd">>
    <path d="M10 1.429c4.734 0 8.571 3.837 8.571 8.571S14.734 18.571 10 18.571 1.429 14.734 1.429 10 5.266 1.429 10 1.429zm0 13.392c-1.498 0-2.941.523-4.087 1.468C7.089 17.055 8.493 17.5 10 17.5c1.508 0 2.912-.445 4.088-1.21-1.147-.946-2.59-1.469-4.088-1.469zM10 2.5c-4.142 0-7.5 3.358-7.5 7.5 0 2.241.983 4.252 2.541 5.627C6.406 14.42 8.168 13.75 10 13.75c1.831 0 3.594.67 4.959 1.874C16.517 14.252 17.5 12.241 17.5 10c0-4.142-3.358-7.5-7.5-7.5zm0 1.607c2.367 0 4.286 1.919 4.286 4.286 0 2.367-1.92 4.286-4.286 4.286-2.367 0-4.286-1.92-4.286-4.286 0-2.367 1.92-4.286 4.286-4.286zm0 1.072c-1.775 0-3.214 1.439-3.214 3.214S8.225 11.607 10 11.607s3.214-1.439 3.214-3.214S11.775 5.179 10 5.179z" transform="translate(0 -249) translate(0 209) translate(0 40)"/>
</svg>
