<svg xmlns="http://www.w3.org/2000/svg" width="20" height="20" viewBox="0 0 20 20">
    <g fill="none" fill-rule="evenodd">
        <g fill="#191919">
            <g>
                <g>
                    <g>
                        <path d="M10.002 10.965L6.423 7.387l-.06-.055c-.363-.27-.826-.238-1.119.055-.325.326-.325.854 0 1.18l3.972 3.97.06.056c.22.181.469.27.726.27.295 0 .578-.117.786-.326l3.972-3.97.055-.062c.27-.362.238-.825-.055-1.118l-.061-.055-.032-.025c-.33-.245-.793-.213-1.086.08l-3.58 3.578z" transform="translate(-160 -289) translate(0 209) translate(0 80) translate(160)"/>
                    </g>
                </g>
            </g>
        </g>
    </g>
</svg>
