<svg xmlns="http://www.w3.org/2000/svg" width="20" height="20" viewBox="0 0 20 20">
    <g fill="none" fill-rule="evenodd">
        <g fill="#333">
            <g>
                <g>
                    <g>
                        <path d="M6.964 0c3.847 0 6.965 3.118 6.965 6.964 0 1.365-.393 2.638-1.071 3.713v3.787c0 .888.719 1.607 1.606 1.607.85 0 1.547-.66 1.604-1.497l.003-.11v-1.071c0-.296.24-.536.536-.536.271 0 .495.202.531.463l.005.073v1.071c0 1.48-1.2 2.679-2.679 2.679-1.431 0-2.6-1.123-2.675-2.536l-.003-.143V11.99c-1.251 1.201-2.95 1.94-4.822 1.94C3.118 13.929 0 10.81 0 6.964 0 3.118 3.118 0 6.964 0zm0 1.071c-3.254 0-5.893 2.639-5.893 5.893 0 3.255 2.639 5.893 5.893 5.893 3.255 0 5.893-2.638 5.893-5.893 0-3.254-2.638-5.893-5.893-5.893zm0 9.108c.271 0 .496.201.531.463l.005.072v.536c0 .296-.24.536-.536.536-.27 0-.495-.202-.53-.463l-.005-.073v-.536c0-.296.24-.535.535-.535zm-2.706-1.48c.145.226.099.52-.098.692l-.063.048-.451.289c-.25.16-.58.088-.74-.161-.146-.227-.1-.521.098-.693l.063-.048.45-.289c.25-.16.581-.088.741.161zm6.083-.2l.07.038.45.29c.25.16.322.49.162.74-.145.226-.432.306-.67.199l-.07-.038-.45-.29c-.25-.16-.322-.49-.162-.74.145-.226.432-.306.67-.199zM6.964 4.821c1.184 0 2.143.96 2.143 2.143 0 1.184-.96 2.143-2.143 2.143-1.183 0-2.143-.96-2.143-2.143 0-1.183.96-2.143 2.143-2.143zm0 1.072c-.591 0-1.071.48-1.071 1.071 0 .592.48 1.072 1.071 1.072.592 0 1.072-.48 1.072-1.072 0-.591-.48-1.071-1.072-1.071zm4.059-1.53c.145.225.099.52-.098.692l-.063.047-.451.29c-.25.16-.58.087-.74-.162-.146-.226-.1-.52.098-.692l.063-.048.45-.29c.25-.16.581-.087.741.162zm-7.447-.2l.07.038.45.289c.25.16.322.491.162.74-.145.226-.432.307-.67.2l-.07-.038-.45-.29c-.25-.16-.322-.49-.162-.74.145-.226.432-.307.67-.2zm3.388-2.02c.271 0 .496.201.531.463l.005.073v.535c0 .296-.24.536-.536.536-.27 0-.495-.202-.53-.463l-.005-.073V2.68c0-.296.24-.536.535-.536z" transform="translate(-120 -209) translate(0 209) translate(120) translate(1.429 1.429)"/>
                    </g>
                </g>
            </g>
        </g>
    </g>
</svg>
