<svg xmlns="http://www.w3.org/2000/svg" width="20" height="20" viewBox="0 0 20 20">
    <g fill="none" fill-rule="evenodd">
        <g fill="#191919">
            <g>
                <g>
                    <g>
                        <path d="M10.009 4.644h.243c2.7.06 5.674 1.778 7.877 4.201.591.656.591 1.651-.001 2.309-2.274 2.503-5.345 4.249-8.119 4.202h-.24c-2.727-.054-5.687-1.771-7.896-4.204-.59-.656-.59-1.651.001-2.309 2.277-2.505 5.364-4.246 8.135-4.2zm.23 1.072H9.77C7.407 5.77 4.692 7.335 2.67 9.562c-.224.248-.224.625-.002.871 2.085 2.296 4.89 3.892 7.342 3.851h.222c2.38-.056 5.08-1.624 7.102-3.849.224-.248.224-.625.002-.871-2.022-2.224-4.745-3.796-7.096-3.848zM10 6.785l.17.004c.79.042 1.54.375 2.103.938.603.603.942 1.42.941 2.273 0 1.775-1.44 3.214-3.215 3.214s-3.213-1.44-3.213-3.215S8.225 6.785 10 6.785zm0 1.071c-1.183 0-2.143.96-2.143 2.143 0 1.183.96 2.143 2.143 2.143 1.183 0 2.143-.959 2.143-2.142 0-.569-.225-1.114-.627-1.516-.402-.402-.947-.628-1.516-.628z" transform="translate(-320 -249) translate(0 209) translate(0 40) translate(320)"/>
                    </g>
                </g>
            </g>
        </g>
    </g>
</svg>
