<svg xmlns="http://www.w3.org/2000/svg" width="20" height="20" viewBox="0 0 20 20" fill="none" fill-rule="evenodd">

    <path d="M5.39 2.203C3.934 2.439 2.68 3.36 2.02 4.68l-.076.165C.512 8.177 4.337 13.38 9.758 18.083c.2.174.498.175.7.002l.462-.4c5.191-4.562 8.876-9.804 7.273-13.005l-.088-.167c-.687-1.236-1.893-2.084-3.28-2.309l-.189-.027c-1.393-.166-2.79.314-3.788 1.31l-.74.74-.74-.74C8.327 2.446 6.847 1.968 5.39 2.204zM8.61 4.245L9.73 5.363c.21.21.548.21.757 0l1.119-1.118c.799-.798 1.933-1.164 3.048-.983 1.063.172 1.987.822 2.51 1.761l.077.146.055.12c1.097 2.559-2.379 7.447-7.083 11.59l-.102.088-.11-.096c-4.775-4.252-8.185-9.015-7.08-11.589l.065-.137c.499-.997 1.46-1.704 2.575-1.885 1.116-.18 2.25.186 3.05.985z" transform="translate(-160 -109) translate(0 109) translate(160)"/>

</svg>
