<svg xmlns="http://www.w3.org/2000/svg" width="20" height="20" viewBox="0 0 20 20" fill="none" fill-rule="evenodd">

    <path d="M10.295 1.518l.064.05 8.036 7.337c.218.2.234.538.034.757-.181.199-.478.23-.694.083l-.063-.049-.922-.841-2.187 8.608c-.13.593-.623 1.032-1.233 1.1l-.116.008H6.77c-.608-.018-1.131-.424-1.303-.984L3.243 8.855l-.92.841c-.198.182-.496.185-.699.02l-.057-.054c-.182-.199-.186-.497-.02-.7l.054-.057L9.637 1.57c.184-.168.456-.185.658-.05zM9.998 2.69L4.14 8.036l2.34 9.197c.03.134.135.234.254.26l.052.007h6.41c.136-.004.254-.089.307-.223l.018-.06 2.332-9.181-5.855-5.347zm0 6.24c1.48 0 2.678 1.199 2.678 2.678 0 1.48-1.199 2.679-2.678 2.679-1.48 0-2.679-1.2-2.679-2.679 0-1.48 1.2-2.678 2.679-2.678zm0 1.071c-.888 0-1.607.72-1.607 1.607 0 .888.72 1.607 1.607 1.607s1.607-.72 1.607-1.607S10.885 10 9.998 10z" transform="translate(-40 -109) translate(0 109) translate(40)"/>

</svg>
