<?xml version="1.0" encoding="utf-8"?>
<!-- Generator: Adobe Illustrator 24.0.1, SVG Export Plug-In . SVG Version: 6.00 Build 0)  -->
<svg version="1.1" id="Layer_1" xmlns="http://www.w3.org/2000/svg" xmlns:xlink="http://www.w3.org/1999/xlink" x="0px" y="0px"
	 viewBox="0 0 40 40" style="enable-background:new 0 0 40 40;" xml:space="preserve">
<title>child-difficulty-40x40-black</title>
<g id="Icons_40x40_Black">
	<g id="child-difficulty-40x40-black">
		<path d="M40,12.1C40,5.4,34.6,0,27.9,0c-4,0-7.8,2-10,5.4h-7c-0.3,0-0.5,0.2-0.5,0.5v0v9.9H0.5C0.2,15.8,0,16,0,16.3c0,0,0,0,0,0
			v12.8c0,0.3,0.2,0.5,0.5,0.5c0,0,0,0,0,0h5.6c-0.1,0.1-0.3,0.2-0.5,0.2c-1.7,0.6-3.1,1.8-3.8,3.5c-0.1,0.3,0,0.6,0.3,0.7
			c0,0,0,0,0,0c0.1,0,0.1,0,0.2,0c0.2,0,0.4-0.1,0.5-0.3c0.6-1.3,1.8-2.4,3.2-2.8c0.7-0.2,1.2-0.7,1.6-1.2h2.8v9.9
			c0,0.3,0.2,0.5,0.5,0.5h0h12.8c0.3,0,0.5-0.2,0.5-0.5c0,0,0,0,0,0v-9.9h9.9c0.3,0,0.5-0.2,0.5-0.5l0,0v-7C38,19.9,40,16.1,40,12.1
			z M1,16.8h9.9c0.3,0,0.5-0.2,0.5-0.5V6.4h5.8c-1.6,2.9-1.8,6.4-0.8,9.5c-0.8,0.8-1.3,1.7-1.6,2.8c-0.2,0.9-0.1,1.9,0.4,2.8
			c-1.1,2.5-4.1,2.2-4.3,2.1c-1.8,0.1-3.3,1.4-3.7,3.1l-0.3,1.4c0,0.1-0.1,0.3-0.1,0.4H1V16.8z M21.6,20.9c-0.8,0.7-1.9,1.1-2.9,1.2
			c-0.8,0.1-1.7-0.2-2.2-0.8c-0.5-0.7-0.6-1.5-0.4-2.3c0.3-1,0.8-2,1.7-2.7c0.8-0.8,1.9-1.2,3.1-1.3c0.8,0,1.5,0.3,2,0.8
			C23.9,17.1,23.3,19.4,21.6,20.9L21.6,20.9z M33.5,28.5h-9.8c-0.3,0-0.5,0.2-0.5,0.5l0,0v10H11.4v-9.9c0-0.3-0.2-0.5-0.5-0.5H8.1
			c0-0.1,0-0.1,0-0.2L8.4,27c0.3-1.2,1.3-2.2,2.6-2.3c2,0.2,3.9-0.7,5-2.4c0.7,0.5,1.5,0.8,2.4,0.8h0.3c1-0.1,1.9-0.4,2.7-0.9
			c3.7,2.3,8.3,2.5,12.1,0.5L33.5,28.5z M27.9,23.1c-2,0-3.9-0.5-5.6-1.5c2.1-1.9,2.7-4.7,1.2-6.4s-4.1-1.6-6.2,0
			c-0.3-1-0.5-2.1-0.5-3.1c0-6.1,4.9-11,11-11s11,4.9,11,11S34,23.1,27.9,23.1L27.9,23.1z"/>
	</g>
</g>
</svg>
