<svg id="Icons_40x40" data-name="Icons 40x40" xmlns="http://www.w3.org/2000/svg" viewBox="0 0 40 40"><defs><style>.cls-1{fill:#00565b;}</style></defs><title>couple-40x40</title><g id="couple-40x40"><path class="cls-1" d="M18.73,21l-.6.56a.52.52,0,0,0,0,.74.52.52,0,0,0,.38.17.51.51,0,0,0,.35-.13l.63-.59a.52.52,0,0,0-.73-.75Z"/><path class="cls-1" d="M21.11,18.42l-.52.63a.52.52,0,0,0,.06.73.5.5,0,0,0,.34.13.53.53,0,0,0,.4-.19q.27-.31.54-.66a.52.52,0,1,0-.82-.64Z"/><path class="cls-1" d="M23.78,15.28a.52.52,0,0,0-.71.21c-.13.23-.26.47-.4.7a.53.53,0,0,0,.17.72.54.54,0,0,0,.27.07.53.53,0,0,0,.45-.25c.15-.24.29-.49.43-.75A.52.52,0,0,0,23.78,15.28Z"/><path class="cls-1" d="M35.75,14.52l-.31-.16c-2.54-1.19-5.59-.62-8.23,1.51a10.41,10.41,0,0,0-1.83-1.19c-.14-.07-.38-.17-.66-.28a11.12,11.12,0,0,0,.85-3.7,7.94,7.94,0,0,0-4.25-7.1L21,3.45C18.48,2.26,15.43,2.83,12.79,5,10.14,2.83,7.1,2.26,4.56,3.45l-.31.16A7.9,7.9,0,0,0,0,10.7c.12,3,1.65,6.14,4.54,9.45a26.7,26.7,0,0,0,4,3.74,26.7,26.7,0,0,0,4,2.31.59.59,0,0,0,.23.05A.59.59,0,0,0,13,26.2c.58-.28,1.11-.56,1.59-.82.21-.11.39-.22.57-.33a20.16,20.16,0,0,0,3.8,6,26.8,26.8,0,0,0,4,3.75,27.63,27.63,0,0,0,4,2.31.59.59,0,0,0,.22,0,.59.59,0,0,0,.23,0,26.81,26.81,0,0,0,4-2.31,25.88,25.88,0,0,0,4-3.75c2.89-3.3,4.42-6.48,4.54-9.44A7.9,7.9,0,0,0,35.75,14.52ZM34.67,30.37A26.19,26.19,0,0,1,30.8,34a26.31,26.31,0,0,1-3.59,2.09A26,26,0,0,1,23.63,34a25.71,25.71,0,0,1-3.87-3.6,19.21,19.21,0,0,1-3.68-5.86l.53-.34A.53.53,0,0,0,16,23.3l-.26.17c0-.19-.09-.39-.13-.59a.52.52,0,0,0-.61-.41.53.53,0,0,0-.42.61c.06.29.12.57.2.85a.54.54,0,0,0,0,.11l-.75.43c-.4.22-.84.45-1.31.68A25.67,25.67,0,0,1,9.2,23.06a25.71,25.71,0,0,1-3.87-3.6c-2.73-3.12-4.17-6.08-4.28-8.8A6.85,6.85,0,0,1,4.74,4.53L5,4.4C7.26,3.33,10.05,4,12.44,6a.53.53,0,0,0,.69,0c2.4-2.08,5.18-2.7,7.44-1.63a2.1,2.1,0,0,1,.26.13,6.85,6.85,0,0,1,3.69,6.13A10.23,10.23,0,0,1,23.75,14L23,13.86a.52.52,0,0,0-.18,1,5.78,5.78,0,0,1,.69.17l.07,0c.37.14,1.08.4,1.32.53a9.61,9.61,0,0,1,2,1.33.53.53,0,0,0,.69,0c2.39-2.09,5.18-2.7,7.44-1.63l.26.13A6.84,6.84,0,0,1,39,21.56C38.84,24.29,37.4,27.25,34.67,30.37Z"/><path class="cls-1" d="M15.39,18.9a.53.53,0,0,0-.65.35,6.63,6.63,0,0,0-.21.88.52.52,0,0,0,.43.6h.09a.52.52,0,0,0,.51-.44,4.7,4.7,0,0,1,.18-.74A.53.53,0,0,0,15.39,18.9Z"/><path class="cls-1" d="M20.66,14.35A.53.53,0,0,0,20,14a7.19,7.19,0,0,0-.85.3.52.52,0,0,0-.27.69.51.51,0,0,0,.48.31.45.45,0,0,0,.2,0,5.13,5.13,0,0,1,.72-.25A.53.53,0,0,0,20.66,14.35Z"/><path class="cls-1" d="M16.72,16a7.63,7.63,0,0,0-.59.67.52.52,0,0,0,.08.73.51.51,0,0,0,.33.11.53.53,0,0,0,.41-.19,7,7,0,0,1,.51-.58.51.51,0,0,0,0-.74A.53.53,0,0,0,16.72,16Z"/></g></svg>