<svg id="Icons_40x40" data-name="Icons 40x40" xmlns="http://www.w3.org/2000/svg" viewBox="0 0 40 40"><defs><style>.cls-1{fill:#00565b;}</style></defs><title>find-your-way-40x40</title><g id="find-your-way-40x40"><path class="cls-1" d="M39.43,13.55a1.62,1.62,0,0,0,.49-1.73,1.6,1.6,0,0,0-1.43-1.1l-7.61-.5a.58.58,0,0,1-.49-.35L27.51,2.81h0A1.61,1.61,0,0,0,26,1.8h0a1.63,1.63,0,0,0-1.49,1L21.7,9.9a.56.56,0,0,1-.48.36l-7.61.56a1.61,1.61,0,0,0-1.42,1.12,1.59,1.59,0,0,0,.51,1.72l5.86,4.88a.56.56,0,0,1,.19.57l-.25,1a32.28,32.28,0,0,0-4.81,2A33.36,33.36,0,0,0,.94,34.1a.52.52,0,0,0,.17.72.53.53,0,0,0,.27.08.51.51,0,0,0,.44-.25A32.44,32.44,0,0,1,14.18,23.1a30.43,30.43,0,0,1,4-1.73l-1.27,5.15a1.61,1.61,0,0,0,2.43,1.74l6.45-4.07a.56.56,0,0,1,.6,0l6.48,4a1.61,1.61,0,0,0,2.41-1.77l-1.88-7.39a.58.58,0,0,1,.18-.57Zm-7,5.76,1.88,7.39a.56.56,0,0,1-.85.62L27,23.3a1.62,1.62,0,0,0-1.71,0L18.8,27.38a.55.55,0,0,1-.63,0,.53.53,0,0,1-.22-.59L19.37,21A32.21,32.21,0,0,1,24,19.88a.52.52,0,0,0,.43-.6.51.51,0,0,0-.6-.43,34.19,34.19,0,0,0-4.15.95l.1-.44a1.61,1.61,0,0,0-.53-1.62l-5.87-4.88a.57.57,0,0,1,.32-1l7.61-.56a1.62,1.62,0,0,0,1.38-1L25.49,3.2A.51.51,0,0,1,26,2.85a.54.54,0,0,1,.52.35l2.89,7.06a1.61,1.61,0,0,0,1.38,1l7.62.5a.56.56,0,0,1,.5.38.57.57,0,0,1-.17.61l-5.83,4.93A1.61,1.61,0,0,0,32.41,19.31Z"/><path class="cls-1" d="M11.73,5.88l-.56,2.25a.87.87,0,0,0,1.31.94l2-1.23,2,1.22a.87.87,0,0,0,1.3-1l-.57-2.25,1.77-1.5a.86.86,0,0,0,.26-.93.85.85,0,0,0-.77-.59l-2.31-.16L15.21.54a.86.86,0,0,0-.8-.54h0a.86.86,0,0,0-.8.55L12.75,2.7l-2.31.17a.87.87,0,0,0-.5,1.53Zm1.2-2.15a.86.86,0,0,0,.74-.54l.74-1.85.76,1.84a.86.86,0,0,0,.74.54l2,.13L16.38,5.13A.89.89,0,0,0,16.1,6l.49,1.93L14.9,6.89a.85.85,0,0,0-.92,0L12.29,8,12.77,6a.85.85,0,0,0-.29-.87L11,3.88Z"/><path class="cls-1" d="M13.13,25.46A33.32,33.32,0,0,0,2.46,39.28a.51.51,0,0,0,.27.68.52.52,0,0,0,.21,0,.53.53,0,0,0,.48-.32A32.37,32.37,0,0,1,13.76,26.3a.53.53,0,0,0-.63-.84Z"/><path class="cls-1" d="M11.57,21.06a.52.52,0,1,0-.42-.95,33.81,33.81,0,0,0-11,8,.51.51,0,0,0,0,.73.49.49,0,0,0,.35.14.56.56,0,0,0,.39-.17A32.89,32.89,0,0,1,11.57,21.06Z"/></g></svg>