<svg id="Icons_40x40" data-name="Icons 40x40" xmlns="http://www.w3.org/2000/svg" viewBox="0 0 40 40"><defs><style>.cls-1{fill:#00565b;}</style></defs><title>justice-40x40</title><g id="justice-40x40"><path class="cls-1" d="M39.48,19.8h-.9l-3.41-10s0,0,0-.07a.52.52,0,0,0-.53-.52H23a3.06,3.06,0,0,0-.62-1.37V3.49a2.22,2.22,0,0,0-2.39-2,2.22,2.22,0,0,0-2.39,2V7.85A3,3,0,0,0,17,9.21H5.55a.43.43,0,0,0-.22.06.47.47,0,0,0-.42.29L1.42,19.8H.52a.52.52,0,0,0-.52.52,5.41,5.41,0,1,0,10.81,0,.52.52,0,0,0-.52-.52h-.9L6.14,10.25H17a3,3,0,0,0,.64,1.39.5.5,0,0,0,0,.13v22H10.85a2.38,2.38,0,0,0,0,4.76h18.3a2.38,2.38,0,1,0,0-4.76H22.39v-22a.5.5,0,0,0,0-.13A3,3,0,0,0,23,10.25H33.86L30.61,19.8h-.9a.52.52,0,0,0-.52.52,5.41,5.41,0,1,0,10.81,0A.52.52,0,0,0,39.48,19.8ZM18,9.73a2,2,0,0,1,2-2,2.1,2.1,0,0,1,.61.09A2,2,0,1,1,18,9.73Zm2-7.18c.73,0,1.35.43,1.35.94V7l-.43-.17A3.21,3.21,0,0,0,20,6.68,3,3,0,0,0,18.66,7V3.49C18.66,3,19.27,2.55,20,2.55ZM5.41,24.69a4.38,4.38,0,0,1-4.34-3.85H9.74A4.37,4.37,0,0,1,5.41,24.69ZM2.52,19.8l2.89-8.45L8.29,19.8Zm28,16.31a1.34,1.34,0,0,1-1.33,1.34H10.85a1.34,1.34,0,0,1,0-2.67h18.3A1.34,1.34,0,0,1,30.48,36.11ZM18.66,33.73V12.46a3,3,0,0,0,1.34.32,3.08,3.08,0,0,0,1.35-.32V33.73ZM34.59,11.35l2.89,8.45H31.71Zm0,13.34a4.38,4.38,0,0,1-4.33-3.85h8.67A4.38,4.38,0,0,1,34.59,24.69Z"/></g></svg>