<svg id="Icons_40x40" data-name="Icons 40x40" xmlns="http://www.w3.org/2000/svg" viewBox="0 0 40 40"><defs><style>.cls-1{fill:#00565b;}</style></defs><title>loss-of-a-loved-one-40x40</title><g id="loss-of-a-loved-one-40x40"><path class="cls-1" d="M13.16,11.05,13.09,11a1.53,1.53,0,0,0-2,.49.34.34,0,0,0-.09.14l-.32.77a.52.52,0,0,0,0,.47l.62,1L11,15.26a.59.59,0,0,0,0,.13v1a.52.52,0,0,0,.26.45.44.44,0,0,0,.25.08c.2,0,.5-.13,1-.67a6.06,6.06,0,0,0,.73-.91A4.6,4.6,0,0,0,14,13,2.3,2.3,0,0,0,13.16,11.05Zm-.82,3.69c-.08.13-.17.25-.26.37l.31-1.19a.49.49,0,0,0-.06-.41l-.6-1,.18-.44c.13-.14.4-.37.63-.23h0A1.29,1.29,0,0,1,13,13,3.63,3.63,0,0,1,12.34,14.74Z"/><path class="cls-1" d="M9.83,12.55,10,12a.51.51,0,0,0-.08-.53,1.55,1.55,0,0,0-2.1-.44A2.33,2.33,0,0,0,7,13a4.53,4.53,0,0,0,.83,2.33,6,6,0,0,0,.72.91,3.76,3.76,0,0,0,.42.36,1,1,0,0,0,.6.31.56.56,0,0,0,.27-.08.52.52,0,0,0,.26-.45v-.9l.41-1.54a.53.53,0,0,0-.06-.41Zm-.77,2.7c-.13-.16-.26-.33-.38-.51A3.63,3.63,0,0,1,8,13a1.31,1.31,0,0,1,.47-1.07.28.28,0,0,1,.15,0,.49.49,0,0,1,.3.12l-.18.44a.52.52,0,0,0,0,.47l.62,1Z"/><path class="cls-1" d="M20.74,19.92l-4.2-9.77A2.36,2.36,0,0,0,14.75,9H6.28a2.39,2.39,0,0,0-1.82,1.22L.32,19.87a2.36,2.36,0,0,0,.86,3.22,2.38,2.38,0,0,0,3.26-.95l1.43-3.95V37.32A2.69,2.69,0,0,0,8.56,40a2.43,2.43,0,0,0,1.95-1.06,2.43,2.43,0,0,0,2,1.06,2.68,2.68,0,0,0,2.68-2.68V18.18l1.48,4a2.36,2.36,0,0,0,4.11-2.3Zm-.81,1.47a1.25,1.25,0,0,1-.61.79,1.27,1.27,0,0,1-1,.13,1.33,1.33,0,0,1-.76-.53l-2.45-6.73a.53.53,0,0,0-.58-.34.52.52,0,0,0-.43.52V37.32A1.65,1.65,0,0,1,12.47,39,1.57,1.57,0,0,1,11,37.48a.77.77,0,0,0,0-.15l0-8.15V26.85a.53.53,0,0,0-.52-.53h0a.52.52,0,0,0-.52.53V37.33c0,.05,0,.1,0,.14A1.57,1.57,0,0,1,8.56,39a1.64,1.64,0,0,1-1.64-1.64V15.23a.52.52,0,0,0-1-.18L3.49,21.7a1.27,1.27,0,0,1-.8.61,1.27,1.27,0,0,1-1-.13,1.33,1.33,0,0,1-.45-1.85l4.14-9.65a1.29,1.29,0,0,1,1-.65h8.16a1.3,1.3,0,0,1,1,.59l4.19,9.77A1.29,1.29,0,0,1,19.93,21.39Z"/><path class="cls-1" d="M10.51,8a4,4,0,1,0-4-4A4,4,0,0,0,10.51,8Zm0-7a3,3,0,1,1-3,3A3,3,0,0,1,10.51,1Z"/><path class="cls-1" d="M37.93,36.5l1.48-25A4.08,4.08,0,0,0,38.1,8.19,5.26,5.26,0,0,0,34.17,7,5.36,5.36,0,0,0,30.4,9.32a9,9,0,0,1-8,3.71A1.39,1.39,0,0,0,21,14.52l1.3,22a3,3,0,0,0-2.07,2.89.52.52,0,0,0,.52.52H39.48A.6.6,0,0,0,40,39.3,2.94,2.94,0,0,0,37.93,36.5ZM22,14.46a.39.39,0,0,1,.1-.29.42.42,0,0,1,.24-.09,10.21,10.21,0,0,0,8.87-4.14,4.35,4.35,0,0,1,3-1.9A4.19,4.19,0,0,1,37.42,9a3.09,3.09,0,0,1,.95,2.49L36.89,36.34H23.34Zm-.72,24.4a1.92,1.92,0,0,1,1.87-1.47H37a1.89,1.89,0,0,1,1.85,1.47Z"/><path class="cls-1" d="M24.78,23.4A2.18,2.18,0,0,0,25,24.56a2.52,2.52,0,0,0,1.29,1.3,2.2,2.2,0,0,0,.84.16,2.51,2.51,0,0,0,1.81-.77,2.17,2.17,0,0,0,.67-1.89c-.16-1-1-1.87-2.69-2.74A10.1,10.1,0,0,1,25.85,20a1.5,1.5,0,0,0-1.48-.34,1,1,0,0,0-.66.74,2.83,2.83,0,0,0,1,2.58C24.79,23.08,24.79,23.14,24.78,23.4Zm.06-2.8c.09,0,.17.06.41.22a10.12,10.12,0,0,0,1.17.72c1.65.87,2.08,1.57,2.15,2a1.15,1.15,0,0,1-.4,1,1.44,1.44,0,0,1-1.5.37,1.61,1.61,0,0,1-.75-.81,1.14,1.14,0,0,1-.1-.64,1.45,1.45,0,0,0-.4-1.23,2.27,2.27,0,0,1-.77-1.58A.54.54,0,0,1,24.84,20.6Z"/><path class="cls-1" d="M30.81,23.36a2.18,2.18,0,0,0,.68,1.89,2.49,2.49,0,0,0,1.8.77,2.25,2.25,0,0,0,.85-.16,2.53,2.53,0,0,0,1.28-1.3,2.08,2.08,0,0,0,.21-1.16c0-.26,0-.32.12-.45a2.84,2.84,0,0,0,1-2.58,1,1,0,0,0-.66-.74,1.48,1.48,0,0,0-1.48.34,8.32,8.32,0,0,1-1.05.65C31.86,21.49,31,22.39,30.81,23.36Zm4.35-2.54c.36-.25.36-.25.51-.24s.14.81-.67,1.64a1.49,1.49,0,0,0-.41,1.23,1.14,1.14,0,0,1-.1.64,1.61,1.61,0,0,1-.75.81,1.45,1.45,0,0,1-1.5-.37,1.18,1.18,0,0,1-.4-1c.07-.43.5-1.13,2.15-2A9.29,9.29,0,0,0,35.16,20.82Z"/><path class="cls-1" d="M30.21,20.09c1.72,0,3.45-.46,3.45-1.51,0-2.08-6.91-2.08-6.91,0C26.75,19.63,28.49,20.09,30.21,20.09Zm0-2a4.66,4.66,0,0,1,2.34.46,4.62,4.62,0,0,1-2.34.47,4.67,4.67,0,0,1-2.35-.47A4.71,4.71,0,0,1,30.21,18.12Z"/><path class="cls-1" d="M32.52,31H27.9a.52.52,0,0,0,0,1h4.62a.52.52,0,0,0,0-1Z"/><path class="cls-1" d="M34.82,28.88H25.59a.53.53,0,0,0,0,1.05h9.23a.53.53,0,0,0,0-1.05Z"/></g></svg>