<svg xmlns="http://www.w3.org/2000/svg" viewBox="0 0 22 27"><defs><style>.cls-1{fill:none;stroke:#01989f;stroke-linecap:round;stroke-linejoin:round;stroke-width:0.6px;}</style></defs><title>film-22x27</title><g id="film-22x27"><path class="cls-1" d="M7.363,9.42119a.79.79,0,0,0,.60988-.76263.79562.79562,0,0,0-1.50994-.35608.74721.74721,0,0,0-.09274-.01874.80129.80129,0,0,0-.80129.80129.78846.78846,0,0,0,.38139.66555.9514.9514,0,0,0-.1229.44837.9758.9758,0,1,0,1.95159,0A.958.958,0,0,0,7.363,9.42119Z"/><path class="cls-1" d="M18.32375,8.98356c0,1.537-3.27895,2.783-7.32375,2.783s-7.32375-1.246-7.32375-2.783a1.22249,1.22249,0,0,1,.21742-.67579"/><path class="cls-1" d="M18.32375,8.98356s-2.02928,9.50878-2.50055,11.71822a.77.77,0,0,1-.54561.58794A16.5198,16.5198,0,0,1,11,21.8135a16.5198,16.5198,0,0,1-4.27759-.52378.77.77,0,0,1-.54561-.58794C5.70553,18.49234,3.67625,8.98356,3.67625,8.98356"/><line class="cls-1" x1="5.7834" y1="11.07502" x2="7.52646" y2="21.41931"/><line class="cls-1" x1="7.99855" y1="11.56799" x2="8.97601" y2="21.61011"/><line class="cls-1" x1="9.97989" y1="11.77055" x2="10.18268" y2="21.68504"/><line class="cls-1" x1="15.98015" y1="11.07502" x2="14.23708" y2="21.41931"/><line class="cls-1" x1="13.765" y1="11.56799" x2="12.78754" y2="21.61011"/><line class="cls-1" x1="11.78365" y1="11.77055" x2="11.58087" y2="21.68504"/><path class="cls-1" d="M9.23013,6.99186a.80819.80819,0,0,0-.88268-.72613.78645.78645,0,0,0-.42609.19207A.80191.80191,0,0,0,6.336,6.69116"/><path class="cls-1" d="M16.18371,7.12775a.97707.97707,0,0,0-1.12586-.80115.93753.93753,0,0,0-.213.08167A.96338.96338,0,0,0,13.787,5.78455a.97338.97338,0,0,0-.39385.1599"/><path class="cls-1" d="M11.21916,5.96787a.78134.78134,0,0,0-.78136-.78137.77052.77052,0,0,0-.74255.58914c-.01359-.00071-.02505-.00784-.03882-.00784a.78166.78166,0,0,0-.736.51857"/><path class="cls-1" d="M12.06627,11.71038a1.132,1.132,0,0,0,.392-.33928,1.096,1.096,0,0,0,.55185.16482,1.12729,1.12729,0,1,0,0-2.25458,1.10462,1.10462,0,0,0-.68849.257l.00144-.007A1.074,1.074,0,0,0,11.49143,8.485"/><path class="cls-1" d="M13.28516,7.47655a.98.98,0,0,0-.24937-.6516.776.776,0,1,0-1.30647-.5646.73143.73143,0,0,0,.02192.10858.75665.75665,0,0,0-.37317-.10858.778.778,0,0,0-.77795.77794"/><path class="cls-1" d="M10.53334,11.76122a.96.96,0,0,0-.2323-1.666.81861.81861,0,0,0,.05631-.27889.832.832,0,0,0-.83279-.83279.82122.82122,0,0,0-.80219.68146A.84132.84132,0,0,0,8.587,9.63769a.89191.89191,0,0,0-.81475.52883"/><path class="cls-1" d="M7.6585,10.95541a.99329.99329,0,0,0,.94584.47372.9651.9651,0,0,0,.49426-.21176A1.106,1.106,0,0,0,9.429,11.652"/><path class="cls-1" d="M14.288,11.471a1.1019,1.1019,0,0,0,1.0155-.834.96172.96172,0,1,0-.361-1.88217.9546.9546,0,0,0,.14056-.494.9609.9609,0,0,0-1.70051-.61735c-.00822-.00021-.0159-.00244-.0242-.00244a.93668.93668,0,0,0-.93668.93669.80908.80908,0,0,0,.353.73222"/><path class="cls-1" d="M15.95785,11.04c.61507-.2444,1.19789-.654,1.309-1.156a.86392.86392,0,0,0,.13831.02793.913.913,0,0,0,.30451-1.77561.89273.89273,0,0,0,.15283-.4772.91859.91859,0,1,0-1.223.857c-.01732.02762-.72219-.16622-1.1467.23458"/><path class="cls-1" d="M6.87175,7.78882a.95952.95952,0,0,0-1.57742-.7391A.962.962,0,0,0,4.246,8.61011a.96363.96363,0,1,0,1.45424,1.2614"/><path class="cls-1" d="M10.16658,9.18526a.75179.75179,0,0,0,.183-.25779.7404.7404,0,0,0,.35127.09126.74909.74909,0,1,0-.29621-1.4368A.74647.74647,0,0,0,8.934,7.73918a.53507.53507,0,0,0-.33255-.12382.54619.54619,0,1,0,0,1.09237.53268.53268,0,0,0,.31409-.11135c-.00062.01234-.00368.024-.00368.03644a.746.746,0,0,0,.07786.33292"/></g></svg>