<svg xmlns="http://www.w3.org/2000/svg" viewBox="0 0 22 27"><defs><style>.cls-1,.cls-2{fill:none;stroke:#01989f;stroke-linecap:round;stroke-linejoin:round;}.cls-1{stroke-width:0.6px;}.cls-2{stroke-width:0.3px;stroke-dasharray:0.4 0.4 0.4 0.4;}</style></defs><title>influencer-22x27</title><g id="influencer-22x27"><path class="cls-1" d="M15.227,21.8135H6.848V20.12676a2.685,2.685,0,0,1,2.49348-2.72491c.08355-.00432,3.30784-.0043,3.39048-.00009a2.68488,2.68488,0,0,1,2.49509,2.725Z"/><circle class="cls-1" cx="11.03751" cy="14.611" r="2.12926"/><path class="cls-1" d="M6.531,14.21366h-4.359v-.87749a1.39678,1.39678,0,0,1,1.29718-1.41756c.04346-.00225,1.72082-.00224,1.76381,0a1.39675,1.39675,0,0,1,1.298,1.41761Z"/><circle class="cls-1" cx="4.35155" cy="10.46673" r="1.1077"/><path class="cls-1" d="M19.828,14.21366H15.469v-.87749a1.39677,1.39677,0,0,1,1.29717-1.41756c.04347-.00225,1.72083-.00224,1.76382,0a1.39675,1.39675,0,0,1,1.298,1.41761Z"/><circle class="cls-1" cx="17.64845" cy="10.46673" r="1.1077"/><path class="cls-1" d="M13.23313,10.04156h-4.359V9.16407a1.39677,1.39677,0,0,1,1.29717-1.41756c.04347-.00225,1.72083-.00224,1.76382,0a1.39674,1.39674,0,0,1,1.298,1.41761Z"/><circle class="cls-1" cx="11.05364" cy="6.29463" r="1.1077"/><line class="cls-2" x1="11.05364" y1="10.04156" x2="11.05364" y2="12.11495"/><line class="cls-2" x1="8.28588" y1="14.0439" x2="6.33768" y2="13.27712"/><line class="cls-2" x1="13.69575" y1="14.0439" x2="15.64394" y2="13.27712"/></g></svg>