<svg xmlns="http://www.w3.org/2000/svg" viewBox="0 0 22 27"><defs><style>.cls-1{fill:none;stroke:#01989f;stroke-linecap:round;stroke-linejoin:round;stroke-width:0.6px;}</style></defs><title>book-22x27</title><g id="book-22x27"><path class="cls-1" d="M1.86444,8.27339h-.3849A1.12955,1.12955,0,0,0,.35,9.40294V20.10671a1.12954,1.12954,0,0,0,1.12954,1.12954H9.10922v.18393c0,.47022.38128.38781.8515.38781h2.07856c.4703,0,.8515.08241.8515-.38781v-.18393h7.62968A1.12954,1.12954,0,0,0,21.65,20.10671V9.40294a1.12955,1.12955,0,0,0-1.12954-1.12955h-.38482"/><line class="cls-1" x1="12.79165" y1="15.52567" x2="15.48787" y2="15.52567"/><line class="cls-1" x1="12.79165" y1="13.37008" x2="17.64784" y2="13.37008"/><path class="cls-1" d="M11.201,20.6946H10.748a4.09147,4.09147,0,0,0-1.01243-.68894,24.55844,24.55844,0,0,0-6.25078-1.93942V5.18646S7.727,5.76873,9.73551,7.12588A4.086,4.086,0,0,1,10.9844,8.19"/><path class="cls-1" d="M15.392,6.67268a8.78931,8.78931,0,0,0-3.12751.4532A2.77605,2.77605,0,0,0,10.9844,8.19"/><path class="cls-1" d="M10.81418,20.6946h.43787a5.38747,5.38747,0,0,1,1.01243-.68894c1.841-.567,7.70535,0,7.70535,0V7.12588s-1.10758-.21808-2.5482-.35169"/><path class="cls-1" d="M11.25205,20.6946H10.748a5.38747,5.38747,0,0,0-1.01243-.68894c-1.841-.567-7.70535,0-7.70535,0V7.12588s.59039-.071,1.45456-.14577"/><line class="cls-1" x1="10.9844" y1="8.19001" x2="10.9844" y2="20.6946"/><polygon class="cls-1" points="17.422 9.82 16.407 8.85 15.392 9.82 15.392 5.735 17.422 5.735 17.422 9.82"/></g></svg>