<svg xmlns="http://www.w3.org/2000/svg" viewBox="0 0 22 27"><defs><style>.cls-1{fill:none;stroke:#01989f;stroke-linecap:round;stroke-linejoin:round;stroke-width:0.6px;}</style></defs><title>music-22x27</title><g id="music-22x27"><ellipse class="cls-1" cx="16.90899" cy="18.36828" rx="1.80948" ry="1.29249" transform="translate(-3.17947 3.54392) rotate(-10.94315)"/><ellipse class="cls-1" cx="11.49332" cy="20.49852" rx="1.80948" ry="1.29249" transform="translate(-3.68234 2.55458) rotate(-10.94315)"/><line class="cls-1" x1="13.25422" y1="20.07394" x2="11.78074" y2="12.45319"/><line class="cls-1" x1="18.64208" y1="17.79987" x2="17.21711" y2="10.42999"/><line class="cls-1" x1="11.78074" y1="12.45319" x2="17.21711" y2="10.42999"/><ellipse class="cls-1" cx="7.91053" cy="15.97813" rx="1.1084" ry="0.79172"/><ellipse class="cls-1" cx="4.40576" cy="16.62953" rx="1.1084" ry="0.79172"/><line class="cls-1" x1="5.51416" y1="16.57895" x2="5.51416" y2="11.82437"/><line class="cls-1" x1="9.01894" y1="15.83781" x2="9.01894" y2="11.23976"/><line class="cls-1" x1="5.51416" y1="11.82437" x2="9.01894" y2="11.23976"/><ellipse class="cls-1" cx="12.78056" cy="8.16734" rx="0.67896" ry="0.48497" transform="translate(-1.50371 3.06757) rotate(-12.93278)"/><ellipse class="cls-1" cx="10.77746" cy="9.03672" rx="0.67896" ry="0.48497" transform="translate(-1.7491 2.64131) rotate(-12.93278)"/><line class="cls-1" x1="11.43226" y1="8.85456" x2="10.78043" y2="6.01601"/><line class="cls-1" x1="13.42306" y1="7.93161" x2="12.79269" y2="5.1865"/><line class="cls-1" x1="10.78043" y1="6.01601" x2="12.79269" y2="5.1865"/></g></svg>