<svg xmlns="http://www.w3.org/2000/svg" viewBox="0 0 22 27"><defs><style>.cls-1{fill:none;stroke:#01989f;stroke-linecap:round;stroke-linejoin:round;stroke-width:0.6px;}</style></defs><title>podcast-22x27</title><g id="poadcast-22x27"><path class="cls-1" d="M13.36342,13.76873H14.918a0,0,0,0,1,0,0v5.048a0,0,0,0,1,0,0H13.36342a.18462.18462,0,0,1-.18462-.18462V13.95335A.18462.18462,0,0,1,13.36342,13.76873Z"/><path class="cls-1" d="M15.95541,13.76873h.89187a0,0,0,0,1,0,0v5.048a0,0,0,0,1,0,0h-.89187A1.03741,1.03741,0,0,1,14.918,17.77932V14.80614a1.03741,1.03741,0,0,1,1.03741-1.03741Z" transform="translate(31.76528 32.58547) rotate(-180)"/><path class="cls-1" d="M7.05745,13.76873H8.612a0,0,0,0,1,0,0v5.048a0,0,0,0,1,0,0H7.05745a.18462.18462,0,0,1-.18462-.18462V13.95335A.18462.18462,0,0,1,7.05745,13.76873Z" transform="translate(15.48486 32.58547) rotate(180)"/><path class="cls-1" d="M5.981,13.76873h.89187a0,0,0,0,1,0,0v5.048a0,0,0,0,1,0,0H5.981a1.03741,1.03741,0,0,1-1.03741-1.03741V14.80614A1.03741,1.03741,0,0,1,5.981,13.76873Z"/><ellipse class="cls-1" cx="6.14207" cy="11.5578" rx="0.88396" ry="0.89029"/><ellipse class="cls-1" cx="15.88264" cy="11.5578" rx="0.88396" ry="0.89029"/><path class="cls-1" d="M6.11736,9.53075a4.9195,4.9195,0,0,1,9.76528-.05055"/><line class="cls-1" x1="6.14207" y1="12.4481" x2="6.14207" y2="13.76873"/><line class="cls-1" x1="15.88454" y1="12.4481" x2="15.88454" y2="13.76873"/><line class="cls-1" x1="6.11736" y1="9.53075" x2="6.11736" y2="10.67158"/><line class="cls-1" x1="15.88264" y1="9.53075" x2="15.88264" y2="10.67158"/><path class="cls-1" d="M17.95891,10.55955a7.83074,7.83074,0,0,1,0,9.90613"/><path class="cls-1" d="M19.57965,9.2089a10.63183,10.63183,0,0,1,.00209,12.6046"/><path class="cls-1" d="M4.04109,20.46285a7.83075,7.83075,0,0,1,0-9.90614"/><path class="cls-1" d="M2.42035,21.8135A10.63183,10.63183,0,0,1,2.41826,9.2089"/></g></svg>