<svg xmlns="http://www.w3.org/2000/svg" viewBox="0 0 24 34"><defs><style>.cls-1{fill:none;stroke:#01989f;stroke-linecap:round;stroke-linejoin:round;stroke-width:0.65px;}</style></defs><title>quote-24x34</title><g id="quote-24x34"><path class="cls-1" d="M10.6158,14.67188a.04911.04911,0,0,1,.031-.00647,1.67813,1.67813,0,0,1,.20448-.01837.96425.96425,0,0,1,.73083.28478,1.04767,1.04767,0,0,1,.27253.75567,1.13238,1.13238,0,0,1-.34058.84242,1.1793,1.1793,0,0,1-.86114.33445,1.26724,1.26724,0,0,1-.97239-.39943A1.47192,1.47192,0,0,1,9.309,15.42108a2.11868,2.11868,0,0,1,.69374-1.56985,2.85306,2.85306,0,0,1,1.76515-.77744S10.45479,13.86832,10.6158,14.67188Z"/><path class="cls-1" d="M7.56911,14.67188a.04915.04915,0,0,1,.031-.00647,1.67813,1.67813,0,0,1,.20448-.01837.96427.96427,0,0,1,.73083.28478,1.04772,1.04772,0,0,1,.27253.75567,1.13238,1.13238,0,0,1-.34058.84242,1.17933,1.17933,0,0,1-.86114.33445,1.26727,1.26727,0,0,1-.9724-.39943,1.47192,1.47192,0,0,1-.37153-1.04385A2.11868,2.11868,0,0,1,6.956,13.85123a2.85306,2.85306,0,0,1,1.76515-.77744S7.4081,13.86832,7.56911,14.67188Z"/><path class="cls-1" d="M13.38419,19.32815a.04911.04911,0,0,1-.031.00647,1.67608,1.67608,0,0,1-.20448.01837.96427.96427,0,0,1-.73083-.28478,1.04767,1.04767,0,0,1-.27253-.75566,1.1324,1.1324,0,0,1,.34058-.84243,1.1793,1.1793,0,0,1,.86114-.33445,1.26724,1.26724,0,0,1,.97239.39943A1.47192,1.47192,0,0,1,14.691,18.579a2.11868,2.11868,0,0,1-.69374,1.56985,2.85306,2.85306,0,0,1-1.76515.77744S13.5452,20.13171,13.38419,19.32815Z"/><path class="cls-1" d="M16.43088,19.32815a.04913.04913,0,0,1-.031.00647,1.67842,1.67842,0,0,1-.20449.01837.96427.96427,0,0,1-.73083-.28478,1.04771,1.04771,0,0,1-.27253-.75566,1.13238,1.13238,0,0,1,.34058-.84243,1.17933,1.17933,0,0,1,.86114-.33445,1.26727,1.26727,0,0,1,.9724.39943,1.47192,1.47192,0,0,1,.37154,1.04385A2.11869,2.11869,0,0,1,17.044,20.1488a2.85306,2.85306,0,0,1-1.76514.77744S16.59189,20.13171,16.43088,19.32815Z"/><path class="cls-1" d="M12,7.906A9.09492,9.09492,0,0,0,4.46517,22.09308L2.906,26.00952l3.89444-1.55043A9.09337,9.09337,0,1,0,12,7.906Z"/></g></svg>