<svg xmlns="http://www.w3.org/2000/svg" viewBox="0 0 22 27"><defs><style>.cls-1{fill:none;stroke:#01989f;stroke-linecap:round;stroke-linejoin:round;stroke-width:0.6px;}</style></defs><title>series-22x27</title><g id="series-22x27"><path class="cls-1" d="M3.54651,13.76371h15.4593a0,0,0,0,1,0,0v6.76053a1.28926,1.28926,0,0,1-1.28926,1.28926H4.83578a1.28926,1.28926,0,0,1-1.28926-1.28926V13.76371A0,0,0,0,1,3.54651,13.76371Z"/><line class="cls-1" x1="6.25189" y1="16.06239" x2="16.30044" y2="16.06239"/><line class="cls-1" x1="6.25189" y1="17.88492" x2="12.50382" y2="17.88492"/><line class="cls-1" x1="6.25189" y1="19.70745" x2="14.76966" y2="19.70745"/><rect class="cls-1" x="3.54651" y="11.00528" width="15.4593" height="2.75842"/><polygon class="cls-1" points="6.424 13.037 5.119 13.037 6.277 11.732 7.582 11.732 6.424 13.037"/><polygon class="cls-1" points="8.887 13.037 7.582 13.037 8.739 11.732 10.045 11.732 8.887 13.037"/><polygon class="cls-1" points="11.35 13.037 10.045 13.037 11.202 11.732 12.508 11.732 11.35 13.037"/><polygon class="cls-1" points="13.813 13.037 12.508 13.037 13.665 11.732 14.97 11.732 13.813 13.037"/><polygon class="cls-1" points="16.276 13.037 14.97 13.037 16.128 11.732 17.433 11.732 16.276 13.037"/><rect class="cls-1" x="3.11352" y="6.71668" width="15.4593" height="2.75842" transform="translate(-1.40966 2.35254) rotate(-11.63211)"/><polygon class="cls-1" points="6.223 9.713 4.944 9.977 5.815 8.465 7.093 8.202 6.223 9.713"/><polygon class="cls-1" points="8.635 9.217 7.356 9.48 8.227 7.968 9.505 7.705 8.635 9.217"/><polygon class="cls-1" points="11.047 8.72 9.769 8.983 10.639 7.472 11.918 7.208 11.047 8.72"/><polygon class="cls-1" points="13.459 8.224 12.181 8.487 13.052 6.975 14.33 6.712 13.459 8.224"/><polygon class="cls-1" points="15.872 7.727 14.593 7.99 15.464 6.478 16.742 6.215 15.872 7.727"/></g></svg>