<svg xmlns="http://www.w3.org/2000/svg" viewBox="0 0 40 40"><title>friendship-40x40-black</title><g id="Icons_40x40_Black" data-name="Icons 40x40 Black"><g id="friendship-40x40-black"><path d="M33.9,14.73a6.74,6.74,0,1,0-11.08,0A6.54,6.54,0,0,0,20,16.31a6.54,6.54,0,0,0-2.82-1.58,6.75,6.75,0,1,0-11.08,0c-3.49.87-6.1,5-6.1,9.84v3.18a.52.52,0,0,0,.52.52H4.67c0,.19,0,.38,0,.57a7,7,0,0,0,14,0c0-.19,0-.38,0-.57h2.8c0,.19,0,.38,0,.57a7,7,0,0,0,14,0c0-.19,0-.38,0-.57h4.15a.52.52,0,0,0,.52-.52V24.57C40,19.71,37.39,15.6,33.9,14.73ZM11.64,34.78a5.95,5.95,0,1,1,5.94-5.94A5.95,5.95,0,0,1,11.64,34.78Zm16.72,0a5.95,5.95,0,1,1,6-5.94A5.94,5.94,0,0,1,28.36,34.78ZM39,27.23h-3.8a7,7,0,0,0-13.59,0H18.43a7,7,0,0,0-13.59,0H1V24.57c0-4.74,2.66-8.67,6.06-9a.5.5,0,0,0,.44-.33.54.54,0,0,0-.1-.54,5.71,5.71,0,1,1,8.39,0,.54.54,0,0,0-.1.54.5.5,0,0,0,.44.33,5.49,5.49,0,0,1,3.46,1.77h0l.07,0,.1.07h.06l.14,0h0l.16,0h0a.42.42,0,0,0,.14-.09v0h0a5.48,5.48,0,0,1,3.45-1.76.5.5,0,0,0,.44-.33.54.54,0,0,0-.1-.54,5.7,5.7,0,1,1,8.39,0,.54.54,0,0,0-.1.54.5.5,0,0,0,.44.33c3.4.29,6.06,4.22,6.06,9Z"/><path d="M15.17,25.82a.52.52,0,0,0-.72.16l-2.89,4.61-2.82-2.7a.52.52,0,1,0-.72.75l3.28,3.15a.51.51,0,0,0,.36.15h.06a.54.54,0,0,0,.38-.24l3.24-5.15A.52.52,0,0,0,15.17,25.82Z"/><path d="M31.18,25.84a.51.51,0,0,0-.73,0l-2.09,2.22-2.08-2.22a.52.52,0,0,0-.76.72l2.13,2.26L25.52,31.1a.53.53,0,0,0,.38.88.52.52,0,0,0,.38-.17l2.08-2.21,2.09,2.21a.52.52,0,0,0,.38.17.49.49,0,0,0,.35-.15.52.52,0,0,0,0-.73l-2.13-2.26,2.13-2.26A.53.53,0,0,0,31.18,25.84Z"/></g></g></svg>