<svg xmlns="http://www.w3.org/2000/svg" width="20" height="20" viewBox="0 0 20 20">
    <g fill="none" fill-rule="evenodd">
        <g fill="#191919">
            <g>
                <g>
                    <g>
                        <path d="M10 1.429c3.255 0 5.893 2.638 5.893 5.892 0 2.028-2.353 6.685-4.689 10.296l-.311.476c-.199.299-.534.479-.893.479-.36 0-.694-.18-.893-.48-2.433-3.667-5-8.653-5-10.77 0-3.255 2.638-5.893 5.893-5.893zM10 2.5c-2.663 0-4.821 2.159-4.821 4.821 0 1.736 2.315 6.307 4.527 9.73l.294.45.294-.45c2.212-3.423 4.527-7.994 4.527-9.73C14.821 4.66 12.663 2.5 10 2.5zm0 1.607c1.775 0 3.214 1.44 3.214 3.214 0 1.776-1.439 3.215-3.214 3.215S6.786 9.096 6.786 7.32 8.225 4.107 10 4.107zm0 1.072c-1.183 0-2.143.959-2.143 2.142 0 1.184.96 2.143 2.143 2.143 1.183 0 2.143-.96 2.143-2.143 0-1.183-.96-2.142-2.143-2.142z" transform="translate(-160 -249) translate(0 209) translate(0 40) translate(160)"/>
                    </g>
                </g>
            </g>
        </g>
    </g>
</svg>
