<svg xmlns="http://www.w3.org/2000/svg" width="20" height="20" viewBox="0 0 20 20">
    <g fill="none" fill-rule="evenodd">
        <g fill="#191919">
            <g>
                <g>
                    <path d="M16.964 1.429c.888 0 1.607.72 1.607 1.607V13.75c0 .888-.72 1.607-1.607 1.607H9.643L5.5 18.464c-.332.25-.798.041-.852-.352l-.005-.076v-2.679H3.036c-.85 0-1.547-.66-1.604-1.497l-.003-.11V3.036c0-.888.72-1.607 1.607-1.607zm0 1.071H3.036c-.296 0-.536.24-.536.536V13.75c0 .296.24.536.536.536h2.143c.295 0 .535.24.535.535v2.143l3.429-2.571c.074-.056.161-.091.252-.103l.07-.004h7.5c.295 0 .535-.24.535-.536V3.036c0-.296-.24-.536-.536-.536zM6.786 7.59l.087.004c.403.044.716.385.716.799 0 .444-.36.803-.803.803-.444 0-.804-.36-.804-.803 0-.414.314-.755.716-.799l.088-.005zm3.214 0l.088.004c.402.044.716.385.716.799 0 .444-.36.803-.804.803-.444 0-.804-.36-.804-.803 0-.414.314-.755.716-.799L10 7.589zm3.214 0l.088.004c.402.044.716.385.716.799 0 .444-.36.803-.804.803-.444 0-.803-.36-.803-.803 0-.414.313-.755.716-.799l.087-.005z" transform="translate(-120 -149) translate(0 149) translate(120)"/>
                </g>
            </g>
        </g>
    </g>
</svg>
