<svg xmlns="http://www.w3.org/2000/svg" width="20" height="20" viewBox="0 0 20 20">
    <g fill="none" fill-rule="evenodd">
        <g fill="#191919">
            <g>
                <path d="M13.299 3.079l-.155.003c-1.996.085-3.59 1.729-3.594 3.745v.259l-.133.014c-1.924.165-3.768-.887-5.713-3.123-.294-.338-.848-.187-.93.253l-.04.229c-.209 1.285-.101 2.389.328 3.292l.067.132-1.027-.155c-.35-.054-.655.241-.612.593l.023.164c.187 1.14.878 2.102 1.832 2.658l.026.014-.461.168c-.301.11-.44.457-.296.743l.072.139c.511.946 1.2 1.431 2.353 1.698l.1.023c-.978.404-2.035.603-3.106.58-.585-.014-.764.787-.23 1.024 4.374 1.944 8.259 1.79 11.164-.129l.209-.142c2.407-1.693 3.845-4.523 3.845-7.361v-.32l1.279-.925.058-.048c.27-.259.197-.724-.161-.878l-.996-.427.557-1.215.026-.067c.127-.404-.26-.804-.681-.664l-1.544.512-.034-.027c-.583-.444-1.285-.707-2.018-.755l-.208-.007zm-.14 1.075l.137-.005c.66.008 1.297.262 1.782.714l.065.052c.136.092.31.118.469.065l.66-.22-.273.595-.026.07c-.078.257.048.537.302.646l.63.27-.733.532c-.14.1-.222.262-.222.434V7.9c0 2.564-1.345 5.136-3.574 6.61l-.178.113c-2.088 1.302-4.75 1.604-7.805.723l-.078-.024.244-.063c.916-.255 1.79-.66 2.586-1.202.418-.285.244-.937-.26-.977l-.206-.017c-1.473-.128-2.244-.354-2.747-.925l-.03-.034 1.338-.486c.547-.2.43-1.004-.151-1.039l-.14-.011c-.97-.107-1.789-.724-2.176-1.584l-.032-.076 1.55.236c.527.08.835-.576.436-.93l-.111-.104c-.613-.602-.921-1.418-.915-2.474l.002-.087.125.124c2.053 2.008 4.127 2.856 6.366 2.395.249-.052.427-.271.427-.525v-.714c.004-1.43 1.126-2.598 2.538-2.675z" transform="translate(0 -69) translate(0 69)"/>
            </g>
        </g>
    </g>
</svg>
