<svg xmlns="http://www.w3.org/2000/svg" width="20" height="20" viewBox="0 0 20 20"
fill="#191919">
 
                        <path d="M18.415 1.585c.19.19.207.488.051.697l-.051.06L10.757 10l7.658 7.657c.209.21.209.549 0 .758-.19.19-.488.207-.698.052l-.06-.052L10 10.756l-7.657 7.658c-.21.209-.548.209-.758 0-.19-.19-.207-.488-.051-.698l.051-.06L9.242 10 1.585 2.342c-.209-.209-.209-.548 0-.757.19-.19.488-.208.698-.052l.06.052L10 9.24l7.657-7.656c.21-.21.548-.21.758 0z" transform="translate(-120 -289) translate(0 209) translate(0 80) translate(120)"/>

</svg>
