<svg xmlns="http://www.w3.org/2000/svg" width="20" height="20" viewBox="0 0 20 20">
    <g fill="none" fill-rule="evenodd">
        <g fill="#191919">
            <g>
                <g>
                    <g>
                        <path d="M9.06 16.745l.025.068c.12.407.493.686.917.686.391 0 .739-.238.884-.594l.032-.092c.083-.283.381-.446.665-.363.284.084.447.381.363.665-.253.863-1.045 1.456-1.944 1.456-.9 0-1.691-.593-1.945-1.456-.083-.284.08-.581.364-.665.26-.076.532.054.64.295zM10 1.429c.271 0 .495.201.53.463l.006.072V3.06c3.003.27 5.357 2.795 5.357 5.869 0 2.15.194 3.674.51 4.671.104.328.211.564.311.723.045.07.064.092.05.08.394.317.17.954-.335.954H3.57c-.446 0-.697-.514-.421-.866l.024-.034c.095-.14.252-.471.42-1.037.319-1.083.513-2.561.513-4.491l.003-.18c.09-2.992 2.41-5.424 5.354-5.69V1.965c0-.296.24-.535.536-.535zm0 2.678c-2.663 0-4.821 2.159-4.821 4.822 0 2.028-.208 3.608-.558 4.794-.05.172-.102.329-.153.47l-.035.093h11.076l-.073-.2-.054-.162c-.353-1.113-.56-2.742-.56-4.995 0-2.663-2.16-4.822-4.822-4.822z" transform="translate(-400 -249) translate(0 209) translate(0 40) translate(400)"/>
                    </g>
                </g>
            </g>
        </g>
    </g>
</svg>
