<svg xmlns="http://www.w3.org/2000/svg" width="20" height="20" viewBox="0 0 20 20">
    <g fill="none" fill-rule="evenodd">
        <g fill="#01989F">
            <g>
                <g>
                    <g>
                        <path d="M16.964 1.429c.888 0 1.607.72 1.607 1.607v13.928c0 .888-.72 1.607-1.607 1.607H3.036c-.888 0-1.607-.72-1.607-1.607V3.036c0-.888.72-1.607 1.607-1.607zm0 1.071H3.036c-.296 0-.536.24-.536.536v13.928c0 .296.24.536.536.536h13.928c.296 0 .536-.24.536-.536V3.036c0-.296-.24-.536-.536-.536zm-2.346 3.386c.21.167.263.46.133.687l-.045.066-5.596 7.08c-.251.33-.646.519-1.061.506-.378-.01-.729-.187-.958-.47l-.065-.089-1.75-2.483c-.17-.242-.112-.576.13-.747.22-.155.516-.12.696.068l.05.062L7.91 13.06c.039.057.103.092.172.095.051.001.101-.016.143-.052l.04-.04 5.601-7.089c.184-.232.52-.271.753-.088z" transform="translate(-240 -289) translate(0 209) translate(0 80) translate(240)"/>
                    </g>
                </g>
            </g>
        </g>
    </g>
</svg>
