<svg xmlns="http://www.w3.org/2000/svg" width="20" height="20" viewBox="0 0 20 20">
    <g fill="none" fill-rule="evenodd">
        <g fill="#191919">
            <g>
                <g>
                    <path d="M15 9.643c1.874 0 3.393 1.519 3.393 3.393v2.143c0 1.873-1.52 3.392-3.393 3.392H5c-1.874 0-3.393-1.519-3.393-3.392v-2.143c0-1.874 1.52-3.393 3.393-3.393zm0 1.071H5c-1.282 0-2.321 1.04-2.321 2.322v2.143C2.679 16.46 3.718 17.5 5 17.5h10c1.282 0 2.321-1.04 2.321-2.321v-2.143c0-1.282-1.039-2.322-2.321-2.322zm-5.714 2.322c.27 0 .495.201.53.463l.005.072v2.322c0 .296-.24.536-.535.536-.103 0-.199-.03-.28-.08-.134.052-.281.08-.435.08-.655 0-1.193-.506-1.245-1.148l-.005-.102V13.57c0-.295.24-.535.536-.535.271 0 .495.201.531.463l.005.072v1.608c0 .098.08.178.178.178.085 0 .156-.059.174-.137l.005-.041V13.57c0-.295.24-.535.536-.535zm1.785-1.965c.272 0 .496.202.531.463l.005.073v1.441c.059-.008.118-.012.179-.012.69 0 1.25.56 1.25 1.25v.893c0 .69-.56 1.25-1.25 1.25-.16 0-.311-.03-.451-.084-.077.044-.167.07-.264.07-.27 0-.495-.202-.53-.464l-.005-.072v-4.272c0-.296.24-.536.535-.536zm3.808 1.786c.69 0 1.25.56 1.25 1.25 0 .271-.202.495-.463.531l-.073.005h-.894l.001.439c0 .116.073.219.182.259.09.034.19.017.265-.04l.042-.038c.194-.224.532-.247.756-.053.223.194.246.533.052.756-.368.423-.96.575-1.487.38-.491-.182-.83-.63-.876-1.148l-.005-.112v-.979c0-.69.56-1.25 1.25-1.25zm-7.722-1.071c.296 0 .536.24.536.535 0 .272-.202.496-.463.531l-.073.005H6.25l.001 3.022c0 .295-.24.535-.536.535-.27 0-.495-.201-.53-.463l-.005-.072v-3.022H4.27c-.295 0-.535-.24-.535-.536 0-.27.201-.495.463-.53l.072-.005h2.886zm4.629 2.321c-.099 0-.179.08-.179.179v-.006.905c.003.076.053.14.122.163l.057.01c.098 0 .178-.08.178-.18v-.892c0-.099-.08-.179-.178-.179zM8.893 1.536c.215.161.274.453.15.683L9 2.286 6.964 5v3.036c0 .055-.008.107-.023.157-.024.076-.063.145-.115.202l-.021.022-.032.03-.032.024-.022.015-.052.03h-.002l-.067.028-.005.002-.043.012c-.011.002-.023.005-.035.006l-.014.003-.072.004c-.272 0-.496-.201-.531-.463l-.005-.072V5L3.857 2.286c-.161-.215-.136-.513.047-.698l.06-.052c.215-.162.513-.137.698.047l.052.06 1.714 2.285 1.715-2.285c.177-.237.513-.285.75-.107zm.75 1.678c.887 0 1.607.72 1.607 1.607v2.143c0 .888-.72 1.607-1.607 1.607-.888 0-1.607-.72-1.607-1.607V4.821c0-.887.72-1.607 1.607-1.607zm5.357 0c.271 0 .495.202.53.463l.006.073v4.286c0 .296-.24.535-.536.535-.194 0-.364-.103-.458-.257-.285.164-.617.257-.97.257-1.045 0-1.9-.815-1.961-1.844l-.004-.12V3.75c0-.296.24-.536.536-.536.271 0 .495.202.53.463l.006.073v2.857c0 .493.4.893.892.893.463 0 .843-.351.889-.802l.004-.09V3.75c0-.296.24-.536.536-.536zM9.643 4.286c-.296 0-.536.24-.536.535v2.143c0 .296.24.536.536.536.296 0 .536-.24.536-.536V4.821c0-.295-.24-.535-.536-.535z" transform="translate(-80 -69) translate(0 69) translate(80)"/>
                </g>
            </g>
        </g>
    </g>
</svg>
