<svg xmlns="http://www.w3.org/2000/svg" width="20" height="20" viewBox="0 0 20 20">
    <g fill="none" fill-rule="evenodd">
        <g fill="#191919">
            <g>
                <g>
                    <g>
                        <path d="M13.75 1.429c.271 0 .495.201.53.463l.006.072v1.607h2.678c.839 0 1.527.642 1.6 1.461l.007.147v11.785c0 .888-.72 1.607-1.607 1.607H3.036c-.888 0-1.607-.72-1.607-1.607V5.18c0-.888.72-1.608 1.607-1.608h2.678V1.964c0-.296.24-.535.536-.535.271 0 .495.201.53.463l.006.072v1.607h6.428V1.964c0-.296.24-.535.536-.535zm3.75 7.499h-15v8.036c0 .267.194.487.449.529l.087.007h13.928c.296 0 .536-.24.536-.536V8.928zM5.446 14.286l.088.004c.403.044.716.385.716.8 0 .443-.36.803-.804.803-.443 0-.803-.36-.803-.804 0-.414.313-.755.716-.799l.087-.004zm4.554 0l.088.004c.402.044.716.385.716.8 0 .443-.36.803-.804.803-.444 0-.804-.36-.804-.804 0-.414.314-.755.716-.799l.088-.004zm4.554 0l.087.004c.403.044.716.385.716.8 0 .443-.36.803-.803.803-.444 0-.804-.36-.804-.804 0-.414.313-.755.716-.799l.088-.004zm-9.108-3.75l.088.004c.403.044.716.385.716.8 0 .443-.36.803-.804.803-.443 0-.803-.36-.803-.804 0-.414.313-.755.716-.799l.087-.004zm4.554 0l.088.004c.402.044.716.385.716.8 0 .443-.36.803-.804.803-.444 0-.804-.36-.804-.804 0-.414.314-.755.716-.799l.088-.004zm4.554 0l.087.004c.403.044.716.385.716.8 0 .443-.36.803-.803.803-.444 0-.804-.36-.804-.804 0-.414.313-.755.716-.799l.088-.004zm-8.84-5.893H3.036c-.296 0-.536.24-.536.536v2.678h15V5.179c0-.267-.194-.488-.449-.53l-.087-.006h-2.678v1.071c0 .296-.24.536-.536.536-.271 0-.495-.202-.53-.463l-.006-.073V4.643H6.786v1.071c0 .296-.24.536-.536.536-.271 0-.495-.202-.53-.463l-.006-.073V4.643z" transform="translate(-360 -249) translate(0 209) translate(0 40) translate(360)"/>
                    </g>
                </g>
            </g>
        </g>
    </g>
</svg>
