<svg xmlns="http://www.w3.org/2000/svg" viewBox="0 0 40 40"><title>psychology-40x40-black</title><g id="Icons_40x40_Black" data-name="Icons 40x40 Black"><g id="psychology-40x40-black"><path d="M37.72,22.77C38.57,22.56,40,22.2,40,21c0-1-1.15-2.61-2.89-5-.68-.92-1.32-1.79-1.64-2.34a4.39,4.39,0,0,1,0-1,6.78,6.78,0,0,0,0-.74C35,5.72,30.71,1.68,23.71.79c-.48-.06-1-.1-1.44-.13A22.34,22.34,0,0,0,16.46,1l-.19,0A7.12,7.12,0,0,0,12.55,0a7.25,7.25,0,0,0-7,5.36h-.1a5.52,5.52,0,0,0-1,11,15.26,15.26,0,0,0,1.23,5A22.4,22.4,0,0,0,7.4,24.14c.45.71.92,1.44,1.31,2.2,1.4,2.75,1.08,6.16.77,9.45-.12,1.28-.23,2.5-.25,3.68a.51.51,0,0,0,.15.37.52.52,0,0,0,.37.16H28a.52.52,0,0,0,.52-.48,15.48,15.48,0,0,0,0-1.91c-.05-1.22-.05-1.82.54-2.25a6.69,6.69,0,0,1,2.35-.18c2,0,4.51,0,5.56-1.4a3.49,3.49,0,0,0,.17-3.25l-.1-.31c-.37-1.1-.37-1.1.42-2,.35-.41.61-.93-.15-1.69l-.08-.08.06,0a1.36,1.36,0,0,0,.73-.88,1.7,1.7,0,0,0-.46-1.33,1.77,1.77,0,0,1-.37-1.25A4.09,4.09,0,0,1,37.72,22.77ZM1,10.88A4.46,4.46,0,0,1,5.48,6.41a1.09,1.09,0,0,1,.26,0l.18,0A.52.52,0,0,0,6.49,6,6.15,6.15,0,0,1,18.15,4.69a.54.54,0,0,0,.31.28.49.49,0,0,0,.41,0,3.27,3.27,0,0,1,1.55-.41A3.31,3.31,0,0,1,23.7,7.8a.54.54,0,0,0,.25.43.5.5,0,0,0,.5,0A3.76,3.76,0,0,1,26,7.89a3.73,3.73,0,0,1,0,7.46H18.88l-2.94-4.17A.5.5,0,0,0,15.3,11a.52.52,0,0,0-.29.6L16,15.35H5.48A4.46,4.46,0,0,1,1,10.88Zm17.46,10L19.39,25l-4.26-6h2.15a.51.51,0,0,0,.45-.77l-.57-2.31h0a.48.48,0,0,0-.07-.24l-.39-1.56L20.88,20h-2a.52.52,0,0,0-.52.53A.56.56,0,0,0,18.5,20.91Zm18.22,3.91a1.2,1.2,0,0,1,.27.49,1.48,1.48,0,0,1-.25.18,1.11,1.11,0,0,0-.63.78,1.24,1.24,0,0,0,.45,1,1.65,1.65,0,0,0,.17.18l-.11.13c-1.06,1.23-1.06,1.58-.58,3l.1.3a2.56,2.56,0,0,1,0,2.3c-.74,1-2.94,1-4.7,1-1.35,0-2.42,0-3,.38-1.07.78-1,1.87-1,3.14,0,.4,0,.83,0,1.3H10.29c0-1,.13-2,.23-3.06.32-3.45.65-7-.89-10-.41-.8-.89-1.56-1.35-2.29a20.44,20.44,0,0,1-1.57-2.75A14,14,0,0,1,5.59,16.4H16.21l.38,1.52H14.12a.53.53,0,0,0-.42.83L20,27.67a.52.52,0,0,0,.42.22.54.54,0,0,0,.21-.05.53.53,0,0,0,.3-.59L19.6,21.06h2.29a.52.52,0,0,0,.46-.28.54.54,0,0,0,0-.55l-2.7-3.83H26a4.78,4.78,0,0,0,0-9.56,4.47,4.47,0,0,0-1.35.21,4.36,4.36,0,0,0-4.26-3.58,4.25,4.25,0,0,0-1.56.31A7,7,0,0,0,17.4,1.93a21.22,21.22,0,0,1,4.8-.22c.46,0,.92.07,1.38.13,3.8.48,10.27,2.44,10.87,10.12,0,.14,0,.35,0,.59a3.06,3.06,0,0,0,.13,1.61,28.28,28.28,0,0,0,1.71,2.45C37.34,18.07,39,20.26,39,21c0,.41-.94.64-1.5.78a5.67,5.67,0,0,0-.68.21,1.07,1.07,0,0,0-.63.74A3,3,0,0,0,36.72,24.82Z"/></g></g></svg>