<svg xmlns="http://www.w3.org/2000/svg" viewBox="0 0 40 40"><title>self-esteem-40x40-black</title><g id="Icons_40x40_Black" data-name="Icons 40x40 Black"><g id="self-esteem-40x40-black"><path d="M20,17.19a5.71,5.71,0,1,0,5.71,5.71A5.71,5.71,0,0,0,20,17.19Zm0,10.37a4.67,4.67,0,1,1,4.67-4.66A4.67,4.67,0,0,1,20,27.56Z"/><path d="M35.34,20a25.52,25.52,0,0,0-.86-6.62C32.34,5.46,26.59.13,20.14,0h-.28C13.41.13,7.66,5.46,5.52,13.38A25.52,25.52,0,0,0,4.66,20c0,10.92,6.79,19.81,15.18,20l.08,0h.16l.08,0C28.55,39.81,35.34,30.92,35.34,20ZM20,39c-7.89-.06-14.3-8.53-14.3-19a24.31,24.31,0,0,1,.83-6.35C8.56,6.14,14,1.09,20,1.05s11.44,5.09,13.47,12.6A24.31,24.31,0,0,1,34.3,20C34.3,30.42,27.89,38.89,20,39Z"/><path d="M20.12,2.58h-.24c-5.64.1-10.65,4.75-12.52,11.65A22.11,22.11,0,0,0,6.61,20c0,9.52,5.93,17.27,13.25,17.42h.28c7.32-.15,13.25-7.9,13.25-17.42a22.11,22.11,0,0,0-.75-5.77C30.77,7.33,25.76,2.68,20.12,2.58ZM20,36.38A10.94,10.94,0,0,1,11.67,32a5.85,5.85,0,0,1,4.22-2.2H24.1A5.81,5.81,0,0,1,28.33,32,10.94,10.94,0,0,1,20,36.38Zm9-5.19a6.84,6.84,0,0,0-4.82-2.4H15.84A6.82,6.82,0,0,0,11,31.19,19.41,19.41,0,0,1,7.65,20a20.9,20.9,0,0,1,.72-5.5C10.12,8,14.79,3.65,20,3.61S29.88,8,31.63,14.5a21.44,21.44,0,0,1,.72,5.5A19.41,19.41,0,0,1,29,31.19Z"/><path d="M28.28,9.77H25.23a2.09,2.09,0,0,0-1,.27.83.83,0,0,0-.49-.17H22.53a.9.9,0,0,0-.9.9v3.07a.91.91,0,0,0,.9.9h1.18a.86.86,0,0,0,.54-.21c.42.45.5.8.55,1.78a.69.69,0,0,0,.41.6.81.81,0,0,0,.34.08,1,1,0,0,0,.61-.21,2.18,2.18,0,0,0,.68-2h1.42a1.07,1.07,0,0,0,1-.79,1,1,0,0,0-.1-.73,1.1,1.1,0,0,0,0-1,1,1,0,0,0,.12-.49,1.06,1.06,0,0,0-.12-.5,1.06,1.06,0,0,0,.12-.5A1,1,0,0,0,28.28,9.77Zm-4.72,3.92h-.88V10.92h.88v2.77Zm4.71-1.92a.53.53,0,0,0-.43.51.49.49,0,0,0,.39.49.51.51,0,0,0-.4.49.5.5,0,0,0,.42.5h-2a.53.53,0,0,0-.39.18.54.54,0,0,0-.12.42,3.69,3.69,0,0,1,0,1,2.78,2.78,0,0,0-1.16-1.94V11a1,1,0,0,1,.62-.22l3.05,0a.5.5,0,0,0-.44.49A.5.5,0,0,0,28.27,11.77Z"/><path d="M17.58,15l.78-4a.53.53,0,0,0-.24-.54.51.51,0,0,0-.59,0l-1.71,1.3L15,9.72a.53.53,0,0,0-1,0l-.8,2.1-1.71-1.3a.51.51,0,0,0-.59,0,.53.53,0,0,0-.24.54l.78,4a.53.53,0,0,0,.52.42h5.07A.52.52,0,0,0,17.58,15Zm-5.16-.62L12,12.18l1.17.89a.54.54,0,0,0,.81-.23l.56-1.47.56,1.47a.52.52,0,0,0,.35.31.51.51,0,0,0,.46-.08l1.17-.89-.43,2.19Z"/><path d="M19,15.74h.13a.51.51,0,0,0,.5-.39l1.47-5.58a.52.52,0,1,0-1-.27L18.61,15.1A.53.53,0,0,0,19,15.74Z"/></g></g></svg>