<svg xmlns="http://www.w3.org/2000/svg" width="20" height="20" viewBox="0 0 20 20">
    <g fill="none" fill-rule="evenodd">
        <g fill="#191919">
            <g>
                <g>
                    <path d="M17.321 1.429H2.68c-.69 0-1.25.56-1.25 1.25V17.32c0 .69.56 1.25 1.25 1.25h7.428c.296 0 .536-.24.536-.535v-6.072l-.005-.072c-.036-.262-.26-.463-.53-.463H8.5V9.643h1.607c.296 0 .536-.24.536-.536V8.35l.003-.153c.08-1.878 1.628-3.376 3.525-3.376h1.115v1.786H14.17c-.462 0-.905.184-1.232.51-.327.327-.51.77-.51 1.233v.757l.004.073c.036.261.26.463.531.463h1.9l-.227 1.786h-1.673c-.296 0-.535.24-.535.535v6.072c0 .296.24.535.535.535h4.357c.69 0 1.25-.56 1.25-1.25V2.68c0-.69-.56-1.25-1.25-1.25zM2.68 2.5H17.32c.1 0 .179.08.179.179V17.32l-.005.041c-.018.08-.089.138-.174.138H13.5v-5h1.293c.45.003.834-.335.889-.786l.27-2.14c.032-.257-.048-.513-.22-.704l-.067-.068c-.164-.15-.38-.232-.605-.23H13.5V8.35c0-.178.07-.349.197-.475.126-.126.296-.196.474-.196h1.293c.493 0 .893-.4.893-.893V4.643c0-.493-.4-.893-.893-.893h-1.293l-.165.003c-2.464.087-4.435 2.112-4.435 4.597v.221H8.32c-.493 0-.892.4-.892.893v2.143l.004.091c.046.45.426.802.888.802h1.25v5H2.68c-.1 0-.179-.08-.179-.179V2.68c0-.1.08-.179.179-.179z" transform="translate(-160 -69) translate(0 69) translate(160)"/>
                </g>
            </g>
        </g>
    </g>
</svg>
