<svg xmlns="http://www.w3.org/2000/svg" viewBox="0 0 40 40"><title>child-education-40x40-black</title><g id="Icons_40x40_Black" data-name="Icons 40x40 Black"><g id="child-education-40x40-black"><path d="M37.36,5.13C33.68.39,27.23-.1,23.72,0c-6,.22-13,5.56-13.12,8.27,0,.44.12,1.48,1.75,1.73a9.12,9.12,0,0,1,1.12,3.11,8.79,8.79,0,0,0-2.32-.41c-2.4-.08-6.81.25-9.34,3.51a9.36,9.36,0,0,0-1,9.35,13.48,13.48,0,0,0,1,1.79c.27.43.55.86.79,1.33.88,1.71.62,5.59.43,8.42-.07.92-.12,1.74-.13,2.36a.51.51,0,0,0,.15.37.52.52,0,0,0,.37.16h7.86a.52.52,0,0,0,.52-.48,14.51,14.51,0,0,0-.08-2,8.24,8.24,0,0,1,0-2.86,4.42,4.42,0,0,1,1.11,0c1.19.12,2.81.28,3.93-.7a3.29,3.29,0,0,0,1-1.83,13.2,13.2,0,0,0,3.33,0,5.1,5.1,0,0,1,1.8,0c.5.36.28,3,.16,4.47a19.4,19.4,0,0,0-.12,2.9.52.52,0,0,0,.52.48H35.13a.55.55,0,0,0,.38-.16.56.56,0,0,0,.15-.37c0-.93-.1-2.12-.19-3.49-.29-4.23-.68-10,.66-12.63.35-.68.78-1.35,1.19-2a20.78,20.78,0,0,0,1.5-2.62A13.59,13.59,0,0,0,37.36,5.13ZM16.12,33.24c-.78.68-2.09.55-3.14.44-.82-.08-1.41-.14-1.81.15-.68.49-.63,1.76-.46,3.8,0,.48.08.95.09,1.33H4c0-.52.06-1.13.11-1.78.21-3.12.47-7-.54-9a15.67,15.67,0,0,0-.85-1.42,13,13,0,0,1-.95-1.65,8.26,8.26,0,0,1,.88-8.28c2.24-2.89,6.27-3.19,8.47-3.11a8.89,8.89,0,0,1,2.82.6l.08,0c2.8,1.07,5.07,3.22,5.1,4.1,0,.06,0,.22-.5.28a.8.8,0,0,0-.56.41,7.77,7.77,0,0,0-.78,5.63c.15.52.67.65,1.05.74.56.13.61.2.61.45,0,.09,0,.13-.28.28a1,1,0,0,0-.56.63.87.87,0,0,0,.2.71l.08.11h0a.89.89,0,0,0-.48.62,1,1,0,0,0,.31.74,5.5,5.5,0,0,1-.45.42,1.88,1.88,0,0,0-.85,1.58A2.9,2.9,0,0,1,16.12,33.24ZM37.86,18.31a18.74,18.74,0,0,1-1.42,2.49,22.38,22.38,0,0,0-1.24,2.08c-1.47,2.86-1.07,8.82-.77,13.17.07,1.11.14,2.09.17,2.91H24c0-.62.07-1.41.14-2.25.23-2.84.32-4.75-.59-5.41C23,30.93,22.18,31,21,31.13a12.34,12.34,0,0,1-3.1,0v0c0-.43.13-.53.47-.81a5.27,5.27,0,0,0,.65-.63.83.83,0,0,0,0-1.17.87.87,0,0,0,.38-.56,1.09,1.09,0,0,0-.21-.81A1.3,1.3,0,0,0,20,26a1.51,1.51,0,0,0-1.42-1.48l-.31-.08a6.77,6.77,0,0,1,.66-4.67c1.19-.22,1.26-1.06,1.25-1.33-.06-1.5-2.63-3.73-5.56-4.92-.27-1.85-1.14-4.43-2-4.53-1-.11-1-.52-1-.67.08-2,6.46-7.06,12.11-7.26,3.32-.12,9.38.34,12.78,4.71A12.53,12.53,0,0,1,37.86,18.31Z"/></g></g></svg>