<svg xmlns="http://www.w3.org/2000/svg" viewBox="0 0 40 40"><title>health-40x40-black</title><g id="Icons_40x40_Black" data-name="Icons 40x40 Black"><g id="health-40x40-black"><path d="M36,8.74H28.4V6.94a2.89,2.89,0,0,0-2.89-2.88h-11A2.89,2.89,0,0,0,11.6,6.94v1.8H4.06a4.06,4.06,0,0,0-4.06,4v19.1a4.06,4.06,0,0,0,4.06,4H36a4.06,4.06,0,0,0,4-4V12.79A4.06,4.06,0,0,0,36,8.74ZM12.64,6.94A1.85,1.85,0,0,1,14.49,5.1h11a1.85,1.85,0,0,1,1.85,1.84v1.8H12.64ZM4.06,9.78H36a3,3,0,0,1,3,3v3.83H27.86a9.69,9.69,0,0,0-15.72,0H1V12.79A3,3,0,0,1,4.06,9.78ZM20,13.65a8.67,8.67,0,0,1,7.27,3.93l.17.26A8.69,8.69,0,1,1,20,13.65ZM36,34.9H4.06a3,3,0,0,1-3-3V17.67H11.46a9.75,9.75,0,1,0,17.06,0H39V31.89A3,3,0,0,1,36,34.9Z"/><path d="M13.91,24.43h4v4a.52.52,0,0,0,.53.52h3.14a.52.52,0,0,0,.53-.52v-4h4a.52.52,0,0,0,.52-.52V20.77a.52.52,0,0,0-.52-.53h-4v-4a.52.52,0,0,0-.53-.52H18.43a.52.52,0,0,0-.53.52v4h-4a.52.52,0,0,0-.52.53v3.14A.52.52,0,0,0,13.91,24.43Zm.52-3.14h4a.53.53,0,0,0,.52-.52v-4h2.1v4a.53.53,0,0,0,.52.52h4v2.1h-4a.52.52,0,0,0-.52.52v4H19v-4a.52.52,0,0,0-.52-.52h-4Z"/></g></g></svg>