<svg id="Icons_40x40" data-name="Icons 40x40" xmlns="http://www.w3.org/2000/svg" viewBox="0 0 40 40"><defs><style>.cls-1{fill:#00565b;}</style></defs><title>pathological-pregnancy-40x40</title><g id="pathological-pregnancy-40x40"><path class="cls-1" d="M17.37,21.76a3,3,0,0,0-3,.39,3,3,0,0,0-3-.39.45.45,0,0,0-.12.06,3.07,3.07,0,0,0-1.67,2.8,5.82,5.82,0,0,0,1.67,3.51,9.71,9.71,0,0,0,1.45,1.35,9,9,0,0,0,.82.54,1.73,1.73,0,0,0,.84.36h0a1.91,1.91,0,0,0,.9-.39,8.38,8.38,0,0,0,.76-.51,9.32,9.32,0,0,0,1.46-1.35,5.88,5.88,0,0,0,1.67-3.51,3.09,3.09,0,0,0-1.67-2.8Zm-.71,5.65a8.44,8.44,0,0,1-1.28,1.19,7.46,7.46,0,0,1-.75.5l-.28.16L14,29a5.7,5.7,0,0,1-.65-.44A8.51,8.51,0,0,1,12,27.41a4.89,4.89,0,0,1-1.4-2.84,2,2,0,0,1,1.16-1.82,1.43,1.43,0,0,1,.65-.15,2.55,2.55,0,0,1,1.54.66.55.55,0,0,0,.72,0,2.16,2.16,0,0,1,2.19-.51l.07,0a2,2,0,0,1,1.09,1.79A4.77,4.77,0,0,1,16.66,27.41Z"/><path class="cls-1" d="M31.94,28a12.82,12.82,0,0,1-.67-2.86c0-.35-.05-.69-.05-1,0-.16,0-.3,0-.45h.09c2.1-.12,3.4-6.94,3.56-13.31L34.82,0h-1.1l.07,10.35c-.2,8.11-1.91,12.09-2.52,12.22-1.7-.76-4.78-3.08-8.69-6.53a11.08,11.08,0,0,0-8-2.78c.12-.12.24-.25.37-.37h0a5.34,5.34,0,0,1,.95-.76c1.48-.85,3.16-.79,5.15.17L28.42,16a.54.54,0,0,0,.55,0,.5.5,0,0,0,.24-.49c0-.06-.47-6.37-.43-8.45a40.27,40.27,0,0,1,.53-7H28.19a47,47,0,0,0-.5,7c0,1.65.23,5.72.36,7.59l-6.51-3.25c-2.31-1.12-4.39-1.17-6.17-.14a6.11,6.11,0,0,0-.77.58,4.51,4.51,0,0,1-.91-3,5.37,5.37,0,0,1,2.58-4l.33-.23A27.9,27.9,0,0,0,21.78,0h-1.5A27.28,27.28,0,0,1,16,3.6l-.34.23a6.31,6.31,0,0,0-3,4.86,5.69,5.69,0,0,0,1.19,3.82A3.76,3.76,0,0,0,13,13.58a12.49,12.49,0,0,0-7.9,12A12.59,12.59,0,0,0,12.44,37,8,8,0,0,0,12,39.57,3.09,3.09,0,0,0,12,40h1.09c0-.14,0-.27,0-.41a7,7,0,0,1,.4-2.19,12.68,12.68,0,0,0,4.24.75.55.55,0,1,0,0-1.1A11.5,11.5,0,0,1,6.21,25.56c0-5.21,3.05-9.67,7.6-11.11h0l.35-.06a10,10,0,0,1,7.68,2.47,57.43,57.43,0,0,0,8.31,6.37c0,.28,0,.58,0,.89s0,.72.05,1.11a13.69,13.69,0,0,0,.72,3.09l.12.36a29.45,29.45,0,0,1,1.58,7.67A12.45,12.45,0,0,1,32.07,40H33.2a12.87,12.87,0,0,0,.49-3.67,30.51,30.51,0,0,0-1.63-8Z"/></g></svg>