<svg xmlns="http://www.w3.org/2000/svg" width="20" height="20" viewBox="0 0 20 20">
    <g fill="none" fill-rule="evenodd">
        <g fill="#191919">
            <g>
                <g>
                    <path d="M15.009 3.31c.355-.247.841.008.841.44v11.786c0 .432-.486.686-.841.44l-.778-.54c-2.264-1.572-4.896-2.458-7.606-2.567.12 1.073.596 2.073 1.352 2.822.21.208.212.547.004.757-.209.21-.548.212-.758.004-.963-.954-1.555-2.233-1.678-3.595h-1.03c-1.722 0-3.108-1.444-3.108-3.214s1.386-3.214 3.107-3.214h1.543c2.908 0 5.752-.898 8.174-2.579zm-.23 1.463l-.217.147c-2.35 1.559-5.054 2.443-7.836 2.565l-.133.004v4.307l.133.004c2.782.123 5.485 1.007 7.836 2.565l.217.147v-9.74zM5.52 7.5H4.514c-1.079 0-1.97.888-2.032 2.016l-.003.127c0 1.188.916 2.143 2.035 2.143h1.007V7.5zm11.85.536c.272 0 .496.201.531.463l.005.072v2.143c0 .296-.24.536-.536.536-.27 0-.495-.202-.53-.463l-.005-.073V8.571c0-.295.24-.535.535-.535z" transform="translate(-120 -109) translate(0 109) translate(120)"/>
                </g>
            </g>
        </g>
    </g>
</svg>
