<svg xmlns="http://www.w3.org/2000/svg" width="20" height="20" viewBox="0 0 20 20">
    <g fill="none" fill-rule="evenodd">
        <g fill="#191919">
            <g>
                <g>
                    <path d="M14.821 2.5c1.776 0 3.215 1.44 3.215 3.214 0 1.775-1.44 3.215-3.215 3.215-1.172 0-2.198-.628-2.76-1.566L8.328 8.815c.043.21.066.427.066.65 0 .326-.049.641-.14.938l3.973 1.986c.585-.799 1.53-1.318 2.595-1.318 1.776 0 3.215 1.44 3.215 3.215S16.596 17.5 14.82 17.5s-3.214-1.44-3.214-3.214c0-.327.049-.641.14-.938L7.773 11.36c-.585.799-1.53 1.318-2.595 1.318-1.776 0-3.215-1.44-3.215-3.215S3.404 6.25 5.18 6.25c1.172 0 2.199.628 2.76 1.567l3.734-1.453c-.043-.21-.066-.427-.066-.65 0-1.775 1.44-3.214 3.214-3.214zm0 9.643c-1.183 0-2.142.96-2.142 2.143 0 1.183.959 2.143 2.142 2.143 1.184 0 2.143-.96 2.143-2.143 0-1.184-.96-2.143-2.143-2.143zM5.18 7.32c-1.184 0-2.143.96-2.143 2.143 0 1.184.96 2.143 2.143 2.143 1.183 0 2.142-.96 2.142-2.143 0-1.183-.959-2.143-2.142-2.143zm9.642-3.75c-1.183 0-2.142.96-2.142 2.143 0 1.184.959 2.143 2.142 2.143 1.184 0 2.143-.96 2.143-2.143 0-1.183-.96-2.143-2.143-2.143z" transform="translate(-80 -149) translate(0 149) translate(80)"/>
                </g>
            </g>
        </g>
    </g>
</svg>
