<svg xmlns="http://www.w3.org/2000/svg" width="20" height="20" viewBox="0 0 20 20">
    <g fill="none" fill-rule="evenodd">
        <g fill="#191919">
            <g>
                <g>
                    <g>
                        <path d="M10 1.429c4.734 0 8.571 3.837 8.571 8.571S14.734 18.571 10 18.571 1.429 14.734 1.429 10 5.266 1.429 10 1.429zM10 2.5c-4.142 0-7.5 3.358-7.5 7.5 0 4.142 3.358 7.5 7.5 7.5 4.142 0 7.5-3.358 7.5-7.5 0-4.142-3.358-7.5-7.5-7.5zm0 3.75c.271 0 .495.202.53.463l.006.073v2.678h2.678c.296 0 .536.24.536.536 0 .271-.202.495-.463.53l-.073.006h-2.678v2.678c0 .296-.24.536-.536.536-.271 0-.495-.202-.53-.463l-.006-.073v-2.678H6.786c-.296 0-.536-.24-.536-.536 0-.271.202-.495.463-.53l.073-.006h2.678V6.786c0-.296.24-.536.536-.536z" transform="translate(-80 -289) translate(0 209) translate(0 80) translate(80)"/>
                    </g>
                </g>
            </g>
        </g>
    </g>
</svg>
