<svg xmlns="http://www.w3.org/2000/svg" width="20" height="20" viewBox="0 0 20 20">
    <g fill="none" fill-rule="evenodd">
        <g fill="#191919">
            <g>
                <g>
                    <path d="M1.55 9.838l.035-.038 7.5-7.5c.21-.21.549-.21.758 0 .19.19.208.488.052.697l-.052.06-6.585 6.585h14.778c.296 0 .535.24.535.537 0 .27-.201.495-.463.53l-.072.005H3.258L9.843 17.3c.19.19.208.488.052.697l-.052.06c-.19.19-.488.208-.697.052l-.06-.052-7.5-7.5-.054-.062-.005-.008.058.07c-.03-.03-.055-.062-.077-.097-.01-.016-.019-.033-.027-.05l-.015-.034-.016-.046-.012-.049-.005-.035c-.002-.018-.004-.035-.004-.053v-.034c0-.02.002-.039.005-.058l-.005.078c0-.039.004-.076.011-.112.004-.017.008-.035.014-.052l.016-.044.013-.029.008-.014c.016-.032.037-.062.06-.09z" transform="translate(0 -289) translate(0 209) translate(0 80) matrix(-1 0 0 1 20 0)"/>
                </g>
            </g>
        </g>
    </g>
</svg>
