<svg xmlns="http://www.w3.org/2000/svg" width="20" height="20" viewBox="0 0 20 20">
    <g fill="none" fill-rule="evenodd">
        <g fill="#191919">
            <g>
                <path d="M9.896 1.436c-.38.036-.718.262-.894.606L6.747 6.514 2.44 6.94c-.423.036-.795.32-.943.727l-.032.103c-.098.38.011.786.294 1.066l3.565 3.53-1.32 4.798c-.114.429.033.88.374 1.157l.088.065c.331.22.758.247 1.118.066L10 16.265l4.426 2.192c.39.195.861.144 1.202-.133l.082-.073c.282-.279.397-.69.293-1.08l-1.322-4.802 3.564-3.53c.308-.306.41-.762.262-1.17l-.038-.091c-.168-.358-.515-.602-.914-.635l-4.3-.427L11 2.044c-.193-.377-.578-.612-.999-.612l-.104.004zM10 2.503c.018 0 .035.01.044.027l2.388 4.732c.083.164.244.274.426.292l4.6.456c.024.002.037.012.042.026.005.014.002.03-.01.041l-3.785 3.753c-.137.136-.19.336-.14.522l1.404 5.099c.003.012-.002.03-.016.042-.014.01-.033.013-.049.005l-4.666-2.31c-.15-.075-.326-.075-.476 0l-4.657 2.306c-.019.009-.038.007-.051-.004-.014-.011-.02-.03-.016-.047l1.403-5.094c.051-.186-.002-.386-.14-.522L2.513 8.074c-.011-.01-.015-.026-.01-.04.006-.015.019-.025.034-.027l4.609-.456c.182-.018.343-.128.425-.292l2.387-4.732c.007-.014.024-.024.042-.024z" transform="translate(0 -149) translate(0 149)"/>
            </g>
        </g>
    </g>
</svg>
