<svg xmlns="http://www.w3.org/2000/svg" width="20" height="20" viewBox="0 0 20 20">
    <g fill="none" fill-rule="evenodd">
        <g fill="#191919">
            <g>
                <g>
                    <g>
                        <path d="M3.296 1.978l-.553.553C1.301 3.974 1.018 6.2 2.031 7.951l.111.182c2.593 3.838 5.895 7.14 9.73 9.732l.038.024c1.757 1.12 4.078.865 5.566-.623l.553-.553c.723-.724.723-1.897 0-2.62l-2.33-2.33c-.68-.678-1.763-.724-2.496-.113l-.107.097c-.164.164-.363.246-.57.246-.208 0-.406-.082-.553-.229L8.246 8.036c-.286-.286-.306-.744-.048-1.053l.065-.07c.33-.33.526-.801.526-1.293 0-.492-.195-.963-.543-1.31L5.918 1.979c-.725-.724-1.898-.724-2.622 0zm1.864.758l2.328 2.331c.147.147.23.346.23.553 0 .178-.061.349-.17.487l-.157.172c-.628.751-.582 1.835.097 2.515l3.727 3.728c.348.347.82.543 1.31.543.443 0 .87-.159 1.203-.444l.179-.163c.29-.242.748-.223 1.035.064l2.33 2.328c.304.305.304.8-.001 1.106l-.553.552c-1.093 1.094-2.778 1.312-4.11.552l-.167-.101c-3.549-2.4-6.648-5.456-9.116-8.996l-.297-.433c-.853-1.342-.66-3.109.473-4.241l.553-.553c.305-.305.8-.305 1.106 0z" transform="translate(-80 -249) translate(0 209) translate(0 40) translate(80)"/>
                    </g>
                </g>
            </g>
        </g>
    </g>
</svg>
