<svg xmlns="http://www.w3.org/2000/svg" width="20" height="20" viewBox="0 0 20 20">
    <g fill="none" fill-rule="evenodd">
        <g fill="#191919">
            <g>
                <g>
                    <path d="M5.524 2.654C9.007.527 13.506 1.146 16.285 4.135c.202.218.19.558-.03.76L13.828 7.13c-.217.2-.553.186-.754-.029-.795-.85-1.907-1.333-3.073-1.33-2.109 0-3.895 1.555-4.187 3.644-.292 2.089 1 4.073 3.028 4.651 1.269.362 2.582.105 3.598-.61 0-.002.003-.004.005-.006.026-.023.053-.043.081-.06.304-.223.578-.49.814-.794l.098-.132H11.05c-.271 0-.495-.201-.53-.463l-.006-.072V8.95c0-.296.24-.536.536-.536h6.986c.296 0 .535.24.535.536v1.5c-.136 2.485-1.327 4.702-3.151 6.189-.022.027-.045.052-.071.075-.04.036-.085.065-.131.087-1.129.863-2.483 1.456-3.969 1.675-4.037.595-7.936-1.735-9.325-5.573-1.388-3.837.116-8.122 3.6-10.249zm.234 10.522l-1.644 1.481c1.63 2.052 4.27 3.158 6.98 2.759 1.139-.168 2.19-.587 3.097-1.197l-1.481-1.664c-1.217.724-2.714.955-4.163.542-1.152-.329-2.115-1.02-2.79-1.92zM17.5 9.486h-5.914v1.907h2.771c.363 0 .614.35.515.686l-.025.066c-.306.691-.744 1.288-1.273 1.77l1.463 1.643c1.43-1.29 2.352-3.115 2.463-5.137v-.935zM3.4 6.384c-1.002 1.84-1.222 4.072-.468 6.155.156.43.348.84.572 1.225l1.692-1.525c-.42-.9-.59-1.926-.444-2.972.072-.518.217-1.01.425-1.465zm11.637-1.976c-2.448-2.216-6.093-2.587-8.955-.84-.835.51-1.54 1.162-2.1 1.909l1.742 1.391C6.694 5.545 8.26 4.7 10 4.7c1.253-.003 2.459.44 3.406 1.24l.067.06 1.647-1.516z" transform="translate(-40 -69) translate(0 69) translate(40)"/>
                </g>
            </g>
        </g>
    </g>
</svg>
