<svg xmlns="http://www.w3.org/2000/svg" width="20" height="20" viewBox="0 0 20 20">
    <g fill="none" fill-rule="evenodd">
        <g fill="#191919">
            <g>
                <g>
                    <g>
                        <path d="M8.393 4.643c.296 0 .536.24.536.536 0 .27-.202.495-.463.53l-.073.005H3.036c-.271 0-.496.202-.531.463L2.5 6.25v10.714c0 .271.202.496.463.531l.073.005H13.75c.271 0 .495-.202.53-.463l.006-.073v-5.357c0-.296.24-.536.535-.536.272 0 .496.202.531.463l.005.073v5.357c0 .85-.66 1.547-1.497 1.604l-.11.003H3.036c-.85 0-1.547-.66-1.604-1.497l-.003-.11V6.25c0-.85.66-1.547 1.497-1.603l.11-.004h5.357zm6.52-2.588c.837-.836 2.194-.836 3.03 0 .838.837.838 2.194 0 3.031l-6.818 6.819c-.082.081-.188.135-.303.151l-2.651.38c-.354.05-.657-.253-.606-.607l.378-2.652c.017-.115.07-.221.152-.303zm-.38 1.895L8.98 9.505l-.253 1.768 1.768-.253 5.555-5.556-1.515-1.514zm2.653-1.137c-.418-.418-1.097-.418-1.515 0l-.38.379 1.516 1.515.38-.379c.361-.362.41-.919.145-1.333l-.072-.1z" transform="translate(-240 -249) translate(0 209) translate(0 40) translate(240)"/>
                    </g>
                </g>
            </g>
        </g>
    </g>
</svg>
