<svg xmlns="http://www.w3.org/2000/svg" width="20" height="20" viewBox="0 0 20 20">
    <g fill="none" fill-rule="evenodd">
        <g fill="#191919">
            <g>
                <path d="M16.964 13.752c.296 0 .536.24.536.536 0 .271-.202.495-.463.53l-.073.006H3.036c-.296 0-.536-.24-.536-.536 0-.271.202-.495.463-.531l.073-.005h13.928zm0-4.286c.296 0 .536.24.536.536 0 .271-.202.495-.463.531l-.073.005H3.036c-.296 0-.536-.24-.536-.536 0-.271.202-.495.463-.53l.073-.006h13.928zm0-4.285c.296 0 .536.24.536.535 0 .272-.202.496-.463.531l-.073.005H3.036c-.296 0-.536-.24-.536-.536 0-.27.202-.495.463-.53l.073-.005h13.928z" transform="translate(0 -109) translate(0 109)"/>
            </g>
        </g>
    </g>
</svg>
