<svg xmlns="http://www.w3.org/2000/svg" width="20" height="20" viewBox="0 0 20 20">
    <g fill="none" fill-rule="evenodd">
        <g fill="#191919">
            <g>
                <g>
                    <path d="M13.743 1.429c2.663 0 4.821 2.158 4.821 4.821v7.5c0 2.663-2.158 4.821-4.821 4.821h-7.5c-2.663 0-4.822-2.158-4.822-4.821v-7.5c0-2.663 2.16-4.821 4.822-4.821zm0 1.071h-7.5c-2.071 0-3.75 1.679-3.75 3.75v7.5c0 2.071 1.679 3.75 3.75 3.75h7.5c2.07 0 3.75-1.679 3.75-3.75v-7.5c0-2.071-1.68-3.75-3.75-3.75zm-3.75 3.393C12.26 5.893 14.1 7.732 14.1 10c0 2.268-1.839 4.107-4.107 4.107-2.268 0-4.107-1.839-4.107-4.107 0-2.268 1.839-4.107 4.107-4.107zm0 1.071c-1.677 0-3.036 1.36-3.036 3.036 0 1.677 1.36 3.036 3.036 3.036s3.036-1.36 3.036-3.036c0-1.677-1.36-3.036-3.036-3.036zm4.893-2.75c.49 0 .89.397.893.887v.006c0 .493-.4.893-.893.893s-.893-.4-.893-.893v-.006L14 4.995c.055-.44.43-.78.886-.78z" transform="translate(-120 -69) translate(0 69) translate(120)"/>
                </g>
            </g>
        </g>
    </g>
</svg>
