<svg xmlns="http://www.w3.org/2000/svg" width="20" height="20" viewBox="0 0 20 20">
    <g fill="none" fill-rule="evenodd">
        <g fill="#191919">
            <g>
                <g>
                    <path d="M10.005 1.429h.388c2.122.034 4.219.488 6.174 1.342.572.262.937.834.933 1.46v5.438c0 3.74-2.304 7.095-5.795 8.438l-.743.286c-.62.238-1.305.238-1.923 0l-.744-.286C4.804 16.764 2.5 13.41 2.5 9.67V4.234c-.004-.629.36-1.201.941-1.467 2.07-.903 4.306-1.36 6.564-1.338zm0 1.071h-.01c-2.107-.02-4.194.406-6.116 1.245-.189.086-.309.275-.308.486v5.438c0 3.298 2.031 6.254 5.108 7.438l.744.286c.371.143.783.143 1.154 0l.744-.286c3.077-1.184 5.108-4.14 5.108-7.438V4.227c.001-.207-.12-.396-.299-.478-1.931-.843-4.018-1.269-6.125-1.249zM10 10.536l.088.004c.402.044.716.385.716.8 0 .443-.36.803-.804.803-.444 0-.804-.36-.804-.804 0-.414.314-.755.716-.799l.088-.004zm0-4.822c.271 0 .495.202.53.463l.006.073v3.214c0 .296-.24.536-.536.536-.271 0-.495-.202-.53-.463l-.006-.073V6.25c0-.296.24-.536.536-.536z" transform="translate(-40 -149) translate(0 149) translate(40)"/>
                </g>
            </g>
        </g>
    </g>
</svg>
