<svg xmlns="http://www.w3.org/2000/svg" width="20" height="20" viewBox="0 0 20 20">
    <g fill="none" fill-rule="evenodd">
        <g fill="#191919">
            <g>
                <g>
                    <path d="M10 1.429c2.364 0 4.505.957 6.055 2.505l.006.005c1.553 1.556 2.51 3.697 2.51 6.061 0 4.734-3.837 8.571-8.571 8.571-2.364 0-4.505-.957-6.055-2.505l-.006-.005c-1.553-1.556-2.51-3.697-2.51-6.061 0-4.734 3.837-8.571 8.571-8.571zm5.669 3.66L5.089 15.67C6.405 16.809 8.122 17.5 10 17.5c4.142 0 7.5-3.358 7.5-7.5 0-1.878-.69-3.595-1.831-4.91zM10 2.5c-4.142 0-7.5 3.358-7.5 7.5 0 1.878.69 3.595 1.831 4.91l10.58-10.579C13.595 3.191 11.878 2.5 10 2.5z" transform="translate(-160 -149) translate(0 149) translate(160)"/>
                </g>
            </g>
        </g>
    </g>
</svg>
