<svg xmlns="http://www.w3.org/2000/svg" width="20" height="20" viewBox="0 0 20 20" fill="none" fill-rule="evenodd">
      <path d="M7.321 11.071c.296 0 .536.24.536.536 0 .271-.201.495-.463.531l-.073.005H5.714c-.591 0-1.071.48-1.071 1.071 0 .557.425 1.015.968 1.067l.103.005H16.43c1.183 0 2.142.96 2.142 2.143 0 1.14-.892 2.074-2.017 2.139l-.125.003H1.962c-.296 0-.536-.24-.536-.535 0-.271.202-.496.463-.531l.073-.005H16.43c.591 0 1.071-.48 1.071-1.071 0-.557-.425-1.015-.968-1.067l-.103-.005H5.714c-1.183 0-2.143-.96-2.143-2.143 0-1.14.893-2.074 2.017-2.139l.126-.004h1.607zm4.828-6.394c.838.017 1.636.367 2.202.957l.114.116c1.145 1.219 1.145 3.134-.033 4.362-.488.488-1.345.755-2.498.895-.797.097-1.628.119-2.355.1l-.173-.006c-.276-.013-.497-.234-.51-.51l-.006-.173-.005-.317c-.006-.647.022-1.355.105-2.039.14-1.152.408-2.009.904-2.504.605-.581 1.416-.898 2.255-.88zm-.022 1.071c-.555-.011-1.09.198-1.483.575-.266.266-.477.941-.59 1.869-.06.49-.089 1.002-.096 1.49l-.002.359.36-.001c.365-.006.744-.024 1.118-.058l.371-.039c.928-.112 1.603-.323 1.861-.581.8-.833.774-2.156-.073-2.971-.384-.4-.912-.631-1.466-.643zm-.024 1.382l.087.005c.403.043.716.384.716.799 0 .443-.36.803-.803.803-.444 0-.804-.36-.804-.803 0-.415.314-.756.716-.8l.088-.004zm2.52-5.545c.191.19.208.488.053.698l-.104.12c-.138.187-.14.442-.005.63l.057.067 2.273 2.273c.1.101.237.157.379.157.113 0 .223-.036.314-.102l.065-.055c.209-.209.548-.209.757 0 .21.21.21.549 0 .758-.3.301-.71.47-1.136.47-.38 0-.745-.133-1.033-.374l-.104-.096-2.273-2.273c-.627-.628-.627-1.645 0-2.272.21-.21.549-.21.758 0z" transform="translate(-80 -109) translate(0 109) translate(80)"/>

</svg>
