<svg xmlns="http://www.w3.org/2000/svg" width="182" height="56" viewBox="0 0 182 56">
    <g fill="none" fill-rule="evenodd">
        <g fill="#99E67B">
            <g>
                <g>
                    <path d="M80.18 19.74c.827 0 1.75-.22 2.77-.66 1.02-.44 1.89-.97 2.61-1.59.72-.62 1.08-1.157 1.08-1.61 0-.213-.043-.397-.13-.55-.087-.153-.173-.23-.26-.23-.087 0-.437.143-1.05.43-.613.287-1.393.57-2.34.85-.947.28-1.88.42-2.8.42-.347 0-.587-.097-.72-.29-.133-.193-.2-.503-.2-.93 0-.867.317-1.893.95-3.08s1.397-2.207 2.29-3.06c.893-.853 1.673-1.28 2.34-1.28.187 0 .41.027.67.08.26.053.43.08.51.08.173 0 .26-.213.26-.64 0-.427-.22-.97-.66-1.63-.44-.66-.847-.99-1.22-.99-1.187 0-2.423.593-3.71 1.78s-2.337 2.59-3.15 4.21c-.813 1.62-1.22 3.063-1.22 4.33 0 .907.457 1.86 1.37 2.86.913 1 1.783 1.5 2.61 1.5zM92.4 8.98c.227 0 .447-.087.66-.26.213-.173.32-.423.32-.75s-.207-.85-.62-1.57c-.413-.72-.77-1.08-1.07-1.08-.3 0-.607.183-.92.55-.313.367-.47.723-.47 1.07 0 .347.253.773.76 1.28s.953.76 1.34.76zm-3.04 10.76c.493 0 .82-.26.98-.78.453-1.4.91-2.883 1.37-4.45.46-1.567.69-2.477.69-2.73 0-.493-.183-1.007-.55-1.54-.367-.533-.783-.8-1.25-.8-.213 0-.397.23-.55.69-.153.46-.32 1.187-.5 2.18-.18.993-.44 2.193-.78 3.6s-.51 2.287-.51 2.64c0 .353.11.64.33.86.22.22.477.33.77.33zm7.4.02c.973 0 1.907-.317 2.8-.95.893-.633 1.34-1.177 1.34-1.63 0-.453-.167-.68-.5-.68-.147 0-.633.15-1.46.45-.827.3-1.35.45-1.57.45-.22 0-.33-.03-.33-.09s.15-.577.45-1.55c.3-.973.553-1.783.76-2.43.103-.323.194-.61.272-.863l.109-.35.089-.297c1.2-.24 2.09-.463 2.67-.67.58-.207.87-.457.87-.75 0-.453-.5-.68-1.5-.68-.333 0-.82.013-1.46.04.173-.733.26-1.303.26-1.71 0-.407-.27-.82-.81-1.24-.54-.42-.983-.63-1.33-.63-.4 0-.6.2-.6.6 0 .907-.127 1.98-.38 3.22-2.067.293-3.1.653-3.1 1.08 0 .333.147.683.44 1.05.293.367.573.55.84.55s.66-.073 1.18-.22c-.147.48-.423 1.363-.83 2.65s-.61 2.13-.61 2.53c0 .48.293.953.88 1.42.587.467 1.093.7 1.52.7zm7.07-.02c.42 0 .8-.377 1.14-1.13.34-.753.69-1.897 1.05-3.43.213-.933.533-1.663.96-2.19.427-.527.94-.977 1.54-1.35.133-.08.353-.22.66-.42l.25-.19c.113-.087.193-.157.24-.21.047-.053.113-.137.2-.25.087-.113.13-.29.13-.53 0-.467-.487-.7-1.46-.7-.413 0-.89.123-1.43.37-.54.247-1.037.57-1.49.97-.133-.427-.33-.74-.59-.94-.26-.2-.523-.3-.79-.3-.467 0-.7.373-.7 1.12l.12 2.26c0 .667-.05 1.257-.15 1.77-.1.513-.28 1.123-.54 1.83-.26.707-.39 1.237-.39 1.59s.103.73.31 1.13c.207.4.52.6.94.6zm8.57.02c.987 0 1.913-.343 2.78-1.03.867-.687 1.54-1.55 2.02-2.59.48-1.04.72-2.063.72-3.07 0-1.007-.347-1.867-1.04-2.58-.693-.713-1.547-1.07-2.56-1.07-1.013 0-2.037.747-3.07 2.24-1.033 1.493-1.55 3.073-1.55 4.74 0 .933.267 1.727.8 2.38.533.653 1.167.98 1.9.98zm.22-2.04c-.16-.213-.24-.723-.24-1.53s.283-1.743.85-2.81 1.137-1.767 1.71-2.1c.24.32.36.907.36 1.76s-.267 1.767-.8 2.74c-.533.973-1.16 1.62-1.88 1.94zm13.21 2.04c.447 0 .887-.333 1.32-1 .433-.667.833-1.617 1.2-2.85s.55-2.417.55-3.55c0-.707-.263-1.37-.79-1.99-.527-.62-1.137-.93-1.83-.93-.493 0-1.097.483-1.81 1.45-.713.967-1.503 2.21-2.37 3.73.427-1.547.64-2.733.64-3.56 0-.347-.233-.73-.7-1.15-.467-.42-.953-.63-1.46-.63-.107 0-.203.093-.29.28-.087.187-.19 1.147-.31 2.88-.027.4-.05.693-.07.88-.02.187-.05.45-.09.79-.04.34-.09.657-.15.95-.06.293-.133.57-.22.83s-.227.633-.42 1.12c-.193.487-.29.803-.29.95 0 .227.213.583.64 1.07.427.487.78.73 1.06.73.707 0 1.68-1.16 2.92-3.48l.36-.65c.093-.167.217-.38.37-.64s.28-.473.38-.64c.1-.167.22-.353.36-.56.14-.207.263-.377.37-.51.107-.133.243-.287.41-.46.167-.173.337-.26.51-.26.133 0 .2.26.2.78s-.167 1.38-.5 2.58c-.44 1.453-.66 2.42-.66 2.9 0 .627.223.94.67.94zm-46.1 28c1.127 0 2.12-.233 2.98-.7.86-.467 1.29-.96 1.29-1.48 0-.36-.273-.54-.82-.54-.027 0-.397.093-1.11.28-.713.187-1.57.28-2.57.28-.48 0-.78-.077-.9-.23-.12-.153-.18-.41-.18-.77 0-.36.06-.72.18-1.08.6.133 1.367.2 2.3.2.933 0 1.843-.26 2.73-.78s1.33-1.107 1.33-1.76c0-.827-.36-1.657-1.08-2.49-.72-.833-1.503-1.25-2.35-1.25-.847 0-1.697.357-2.55 1.07-.853.713-1.563 1.597-2.13 2.65S76 43.223 76 44.19c0 .967.34 1.803 1.02 2.51.68.707 1.583 1.06 2.71 1.06zm.17-5.94c-.227 0-.4-.007-.52-.02.347-.56.713-1.017 1.1-1.37.387-.353.703-.53.95-.53s.51.127.79.38.42.447.42.58c0 .64-.913.96-2.74.96zm12.77 5.94c.447 0 .887-.333 1.32-1 .433-.667.833-1.617 1.2-2.85s.55-2.417.55-3.55c0-.707-.263-1.37-.79-1.99-.527-.62-1.137-.93-1.83-.93-.493 0-1.097.483-1.81 1.45-.713.967-1.503 2.21-2.37 3.73.427-1.547.64-2.733.64-3.56 0-.347-.233-.73-.7-1.15-.467-.42-.953-.63-1.46-.63-.107 0-.203.093-.29.28-.087.187-.19 1.147-.31 2.88-.027.4-.05.693-.07.88-.02.187-.05.45-.09.79-.04.34-.09.657-.15.95-.06.293-.133.57-.22.83s-.227.633-.42 1.12c-.193.487-.29.803-.29.95 0 .227.213.583.64 1.07.427.487.78.73 1.06.73.707 0 1.68-1.16 2.92-3.48l.36-.65c.093-.167.217-.38.37-.64s.28-.473.38-.64c.1-.167.22-.353.36-.56.14-.207.263-.377.37-.51.107-.133.243-.287.41-.46.167-.173.337-.26.51-.26.133 0 .2.26.2.78s-.167 1.38-.5 2.58c-.44 1.453-.66 2.42-.66 2.9 0 .627.223.94.67.94zm13.63 0c.44 0 1.213-2.413 2.32-7.24.173-.813.34-1.903.5-3.27.16-1.367.24-2.317.24-2.85 0-.533-.253-1.093-.76-1.68s-.92-.88-1.24-.88c-.413 0-.62.193-.62.58 0 1.947-.183 3.99-.55 6.13-.367 2.14-.73 3.89-1.09 5.25-.296 1.12-.47 1.788-.523 2.004l-.015.064-.002.012c0 .307.217.697.65 1.17.433.473.797.71 1.09.71zm7.62-10.78c.227 0 .447-.087.66-.26.213-.173.32-.423.32-.75s-.207-.85-.62-1.57c-.413-.72-.77-1.08-1.07-1.08-.3 0-.607.183-.92.55-.313.367-.47.723-.47 1.07 0 .347.253.773.76 1.28s.953.76 1.34.76zm-3.04 10.76c.493 0 .82-.26.98-.78.453-1.4.91-2.883 1.37-4.45.46-1.567.69-2.477.69-2.73 0-.493-.183-1.007-.55-1.54-.367-.533-.783-.8-1.25-.8-.213 0-.397.23-.55.69-.153.46-.32 1.187-.5 2.18-.18.993-.44 2.193-.78 3.6s-.51 2.287-.51 2.64c0 .353.11.64.33.86.22.22.477.33.77.33zm16.56.02c.547 0 1.057-.523 1.53-1.57.473-1.047.82-2.133 1.04-3.26.22-1.127.33-1.977.33-2.55 0-.573-.173-1.207-.52-1.9-.347-.693-.78-1.04-1.3-1.04-.733 0-1.52.44-2.36 1.32-.84.88-1.467 1.84-1.88 2.88.013-.413.02-.897.02-1.45 0-.553-.257-1.15-.77-1.79-.513-.64-.943-.96-1.29-.96-.627 0-1.28.407-1.96 1.22-.64.787-1.427 2.293-2.36 4.52.573-1.96.86-3.333.86-4.12 0-.347-.237-.73-.71-1.15-.473-.42-.963-.63-1.47-.63-.24 0-.397.313-.47.94-.073.627-.153 1.5-.24 2.62s-.28 2.177-.58 3.17c-.3.993-.45 1.62-.45 1.88 0 .26.217.637.65 1.13.433.493.797.74 1.09.74.587 0 1.44-.953 2.56-2.86.32-.547.7-1.24 1.14-2.08.44-.84.767-1.42.98-1.74.213-.32.4-.48.56-.48.12 0 .18.26.18.78 0 1.24-.11 2.343-.33 3.31-.22.967-.33 1.477-.33 1.53 0 .293.18.62.54.98.707.707 1.273.707 1.7 0 .107-.187.203-.367.29-.54.087-.173.197-.407.33-.7s.47-.953 1.01-1.98c.54-1.027 1.003-1.847 1.39-2.46s.72-.92 1-.92c.133 0 .2.213.2.64 0 .427-.173 1.32-.52 2.68-.347 1.36-.52 2.34-.52 2.94 0 .6.22.9.66.9zm6.6 0c.987 0 1.913-.343 2.78-1.03.867-.687 1.54-1.55 2.02-2.59.48-1.04.72-2.063.72-3.07 0-1.007-.347-1.867-1.04-2.58-.693-.713-1.547-1.07-2.56-1.07-1.013 0-2.037.747-3.07 2.24-1.033 1.493-1.55 3.073-1.55 4.74 0 .933.267 1.727.8 2.38.533.653 1.167.98 1.9.98zm.22-2.04c-.16-.213-.24-.723-.24-1.53s.283-1.743.85-2.81 1.137-1.767 1.71-2.1c.24.32.36.907.36 1.76s-.267 1.767-.8 2.74c-.533.973-1.16 1.62-1.88 1.94zm13.21 2.04c.447 0 .887-.333 1.32-1 .433-.667.833-1.617 1.2-2.85s.55-2.417.55-3.55c0-.707-.263-1.37-.79-1.99-.527-.62-1.137-.93-1.83-.93-.493 0-1.097.483-1.81 1.45-.713.967-1.503 2.21-2.37 3.73.427-1.547.64-2.733.64-3.56 0-.347-.233-.73-.7-1.15-.467-.42-.953-.63-1.46-.63-.107 0-.203.093-.29.28-.087.187-.19 1.147-.31 2.88-.027.4-.05.693-.07.88-.02.187-.05.45-.09.79-.04.34-.09.657-.15.95-.06.293-.133.57-.22.83s-.227.633-.42 1.12c-.193.487-.29.803-.29.95 0 .227.213.583.64 1.07.427.487.78.73 1.06.73.707 0 1.68-1.16 2.92-3.48l.36-.65c.093-.167.217-.38.37-.64s.28-.473.38-.64c.1-.167.22-.353.36-.56.14-.207.263-.377.37-.51.107-.133.243-.287.41-.46.167-.173.337-.26.51-.26.133 0 .2.26.2.78s-.167 1.38-.5 2.58c-.44 1.453-.66 2.42-.66 2.9 0 .627.223.94.67.94zm11.39 0c.187 0 .32-.053.4-.16.053-.067.1-.13.14-.19.04-.06.077-.147.11-.26.033-.113.06-.213.08-.3l.08-.35c.033-.147.057-.27.07-.37.013-.1.037-.237.07-.41.033-.173.077-.41.13-.71.053-.3.16-.723.32-1.27s.24-.907.24-1.08c0-.173-.12-.367-.36-.58.4-.707.6-1.33.6-1.87s-.367-1.137-1.1-1.79c-.733-.653-1.38-.98-1.94-.98-.973 0-1.957.5-2.95 1.5-.993 1-1.777 2.087-2.35 3.26-.573 1.173-.86 2.077-.86 2.71s.333 1.267 1 1.9 1.287.95 1.86.95c.853 0 1.907-.64 3.16-1.92.133.533.337.987.61 1.36.273.373.503.56.69.56zm-4.54-2.52c-.133 0-.217-.017-.25-.05s-.05-.103-.05-.21c0-.373.21-.953.63-1.74.42-.787.96-1.527 1.62-2.22.66-.693 1.257-1.04 1.79-1.04.213 0 .34.38.38 1.14-.213.027-.327.12-.34.28-.213 1.107-.763 2.023-1.65 2.75-.887.727-1.597 1.09-2.13 1.09zm14.22 2.52c.493 0 1.273-2.3 2.34-6.9l.121-.492.073-.292c.145-.585.36-1.443.646-2.576l.133-.532c.378-1.524.567-2.4.567-2.628 0-.507-.26-1.05-.78-1.63-.52-.58-.94-.87-1.26-.87-.387 0-.58.2-.58.6.027 1.04-.32 3.14-1.04 6.3-.547-.867-1.247-1.3-2.1-1.3-.573 0-1.13.197-1.67.59-.54.393-1 .893-1.38 1.5-.38.607-.717 1.257-1.01 1.95-.293.693-.51 1.35-.65 1.97-.14.62-.21 1.183-.21 1.69 0 .507.27 1.07.81 1.69.54.62 1.1.93 1.68.93.58 0 1.537-.547 2.87-1.64-.013.04-.02.093-.02.16 0 .32.173.647.52.98.347.333.66.5.94.5zm-4.06-2.54c-.12 0-.197-.017-.23-.05s-.05-.103-.05-.21c0-.64.227-1.58.68-2.82.213-.587.503-1.093.87-1.52.367-.427.75-.64 1.15-.64.2 0 .42.16.66.48.24.32.36.66.36 1.02s.007.593.02.7c-.387.88-.977 1.607-1.77 2.18-.793.573-1.357.86-1.69.86zm11.87 2.54c1.127 0 2.12-.233 2.98-.7.86-.467 1.29-.96 1.29-1.48 0-.36-.273-.54-.82-.54-.027 0-.397.093-1.11.28-.713.187-1.57.28-2.57.28-.48 0-.78-.077-.9-.23-.12-.153-.18-.41-.18-.77 0-.36.06-.72.18-1.08.6.133 1.367.2 2.3.2.933 0 1.843-.26 2.73-.78s1.33-1.107 1.33-1.76c0-.827-.36-1.657-1.08-2.49-.72-.833-1.503-1.25-2.35-1.25-.847 0-1.697.357-2.55 1.07-.853.713-1.563 1.597-2.13 2.65s-.85 2.063-.85 3.03c0 .967.34 1.803 1.02 2.51.68.707 1.583 1.06 2.71 1.06zm.17-5.94c-.227 0-.4-.007-.52-.02.347-.56.713-1.017 1.1-1.37.387-.353.703-.53.95-.53s.51.127.79.38.42.447.42.58c0 .64-.913.96-2.74.96zM52.87 35.883c.483 0 .935.235 1.21.63.275.394.339.898.17 1.347-.895 2.388-2.11 4.621-3.592 6.648l-.008-.03 1.47 5.554c.134.506-.014 1.045-.388 1.413-.374.369-.917.511-1.424.373l-5.413-1.467C40.201 53.896 34.345 56 28 56 15.979 56 5.717 48.449 1.751 37.86c-.168-.45-.105-.952.17-1.346.275-.394.727-.63 1.209-.63h49.74zm-20.832-4.901s1.347 2.096 1.347 2.994c0 .739-.604 1.339-1.347 1.339s-1.346-.6-1.346-1.34c0-.897 1.346-2.993 1.346-2.993zm-8.076-1.071s1.346 2.095 1.346 2.993c0 .74-.603 1.34-1.346 1.34-.743 0-1.347-.6-1.347-1.34 0-.898 1.347-2.993 1.347-2.993zM28 0c15.454 0 28 12.479 28 27.85 0 1.619-.14 3.206-.406 4.75-.063.35-.368.605-.725.605h-1.594c-.22 0-.427-.097-.567-.265-.14-.168-.197-.389-.157-.603.269-1.455.409-2.955.409-4.487C52.96 14.148 41.776 3.024 28 3.024c-13.776 0-24.96 11.124-24.96 24.826 0 1.532.14 3.032.408 4.487.04.214-.017.435-.157.603-.14.168-.347.265-.566.265H1.13c-.357 0-.663-.255-.725-.605C.14 31.056 0 29.469 0 27.85 0 12.479 12.546 0 28 0zm0 27.85s1.346 2.095 1.346 2.993c0 .74-.603 1.34-1.346 1.34-.743 0-1.346-.6-1.346-1.34 0-.898 1.346-2.993 1.346-2.993zM8.447 17.57l7.99 4.58.935.536 7.24 4.15c.161.092.247.275.215.457s-.176.325-.359.357l-8.762 1.53-1.065.185c-3.372.59-6.681 1.167-8.55 1.493-.41.072-.833-.033-1.161-.288-.33-.256-.534-.638-.563-1.052-.276-3.864.411-7.738 2-11.276.17-.379.493-.668.89-.796.396-.129.829-.084 1.19.123zm40.297-.125c.396.129.72.418.89.797 1.588 3.538 2.275 7.412 1.999 11.276-.03.414-.234.796-.563 1.052-.328.255-.75.36-1.161.288l-8.55-1.493-1.065-.186c-3.547-.619-7.004-1.222-8.762-1.53-.183-.031-.327-.174-.359-.356-.032-.182.054-.365.215-.457l7.24-4.15.936-.537 7.989-4.58c.361-.207.794-.252 1.19-.124zM18.834 6.617c.386.156.688.467.831.857l6.395 17.433c.064.174.011.369-.131.488-.143.119-.344.136-.505.043l-16.151-9.29c-.361-.209-.617-.559-.704-.965-.086-.405.004-.829.249-1.164 2.286-3.137 5.316-5.666 8.819-7.36.375-.182.81-.197 1.196-.042zm19.53.041c3.502 1.695 6.532 4.224 8.818 7.36.245.336.335.76.249 1.165-.087.406-.343.756-.704.964l-16.15 9.291c-.162.093-.363.076-.506-.043-.142-.12-.195-.314-.131-.488l6.395-17.433c.143-.39.445-.701.832-.857.387-.155.821-.14 1.196.041zm-4.608-1.667c.405.1.747.367.943.733.196.366.227.798.084 1.188l-6.368 17.443c-.063.174-.23.29-.415.29-.186 0-.352-.116-.415-.29-1.25-3.421-4.971-13.616-6.368-17.443-.143-.39-.112-.822.084-1.188s.538-.633.943-.733c3.779-.942 7.733-.942 11.512 0z" transform="translate(-80 -72) translate(48 40) translate(32 32)"/>
                </g>
            </g>
        </g>
    </g>
</svg>
