<svg xmlns="http://www.w3.org/2000/svg" width="24" height="24" viewBox="0 0 24 24">
    <g fill="none" fill-rule="evenodd">
        <g fill="#FFF">
            <g>
                <g>
                    <path d="M10.071 5.571c.355 0 .643.288.643.643 0 .326-.242.595-.555.637l-.088.006H3.643c-.326 0-.595.242-.637.556L3 7.5v12.857c0 .326.242.595.556.637l.087.006H16.5c.325 0 .594-.242.637-.556l.006-.087V13.93c0-.355.288-.643.643-.643.325 0 .594.242.637.555l.006.088v6.428c0 1.02-.793 1.856-1.797 1.924l-.132.005H3.643c-1.02 0-1.856-.793-1.924-1.797l-.005-.132V7.5c0-1.02.793-1.856 1.797-1.924l.132-.005h6.428zm7.825-3.104c1.004-1.005 2.632-1.005 3.637 0 1.004 1.004 1.004 2.632 0 3.636l-8.183 8.182c-.098.099-.226.163-.363.182l-3.182.455c-.424.061-.788-.303-.727-.727l.454-3.182c.02-.138.083-.266.182-.364zm-.456 2.271l-6.666 6.668-.303 2.121 2.121-.303 6.666-6.667-1.818-1.819zm3.183-1.362c-.502-.502-1.316-.502-1.818 0l-.456.454 1.82 1.818.454-.454c.438-.437.494-1.11.17-1.609l-.081-.112z" transform="translate(-40 -590) translate(28 580) translate(12 10)"/>
                </g>
            </g>
        </g>
    </g>
</svg>
