<svg xmlns="http://www.w3.org/2000/svg" xmlns:xlink="http://www.w3.org/1999/xlink" viewBox="0 0 22 27"><defs><style>.cls-1{fill:url(#linear-gradient);}.cls-2{fill:#424242;}.cls-2,.cls-3,.cls-4,.cls-5{stroke:#000;stroke-linecap:round;stroke-linejoin:round;stroke-width:0.5px;}.cls-3{fill:none;}.cls-4{fill:#00565b;}.cls-5{fill:#f95d5e;}.cls-6{fill:url(#linear-gradient-2);}.cls-7{fill:url(#linear-gradient-3);}</style><linearGradient id="linear-gradient" x1="11" y1="2.20725" x2="11" y2="23.70715" gradientTransform="translate(0.05493 -0.04643) rotate(0.24246)" gradientUnits="userSpaceOnUse"><stop offset="0.15642" stop-color="#ffea71"/><stop offset="0.61117" stop-color="#ffd400"/><stop offset="1" stop-color="#f6af22"/></linearGradient><linearGradient id="linear-gradient-2" x1="11.90355" y1="20.75401" x2="20.51251" y2="16.8852" gradientTransform="matrix(1, 0, 0, 1, 0, 0)" xlink:href="#linear-gradient"/><linearGradient id="linear-gradient-3" x1="7.95461" y1="19.06762" x2="-0.72406" y2="13.17728" gradientTransform="matrix(1, 0, 0, 1, 0, 0)" xlink:href="#linear-gradient"/></defs><title>be-strong-2</title><g id="be_strong-2" data-name="be strong-2"><circle class="cls-1" cx="11" cy="12.9572" r="10.75" transform="translate(-0.05473 0.04666) rotate(-0.24246)"/><path class="cls-2" d="M9.21265,10.5295a1.86469,1.86469,0,0,0,3.5747-.01515Z"/><path class="cls-3" d="M4.76478,6.30561A3.3644,3.3644,0,0,1,8.21819,5.623"/><path class="cls-3" d="M17.17854,6.30561A3.3644,3.3644,0,0,0,13.72513,5.623"/><circle class="cls-4" cx="6.70784" cy="8.14992" r="1.41159"/><circle class="cls-4" cx="15.23548" cy="8.14992" r="1.41159"/><path class="cls-5" d="M15.10659,14.46577q-.06387-.05988-.12957-.11537a4.10307,4.10307,0,0,0-4.4882-.2332,4.10305,4.10305,0,0,0-3.99928-2.05039q-.08463.015-.17.03478a4.04343,4.04343,0,0,0-3.0473,2.93791,8.595,8.595,0,0,0,1.03827,5.46574A14.27156,14.27156,0,0,0,5.87917,23.0145,11.0554,11.0554,0,0,0,6.76559,24.022c.12346.12333.67985.77092.858.7444.1408.11234.947-.16864,1.11571-.21337a11.05568,11.05568,0,0,0,1.27231-.42672A14.272,14.272,0,0,0,12.62758,22.743a8.595,8.595,0,0,0,3.64071-4.20685A4.04342,4.04342,0,0,0,15.10659,14.46577Z"/><path class="cls-6" d="M21.29524,16.05053a23.86364,23.86364,0,0,1-4.338.56311c-1.79612.07059-3.4134-.2283-3.66676.26455-.31068.60444.4196.8564.6279.88213.26876.03313.29816.09785.2197.25323-.2275.4504-1.57195-.2397-1.96509.74362-.84913,2.12406,2.514,3.47252,5.10333,2.91634A10.75977,10.75977,0,0,0,21.29524,16.05053Z"/><path class="cls-7" d="M1.742,18.39709c2.24338,1.62574,6.38066,1.471,6.19656-.96518-.07986-1.056-1.56942-.80128-1.65128-1.2992-.02819-.17177.01927-.2247.28556-.17564.20643.038.97871.01687.86373-.653-.09372-.54618-1.72613-.74648-3.4182-1.353a25.06594,25.06594,0,0,1-3.73361-1.6978c-.01613.24863-.03573.49646-.03466.74935A10.67949,10.67949,0,0,0,1.742,18.39709Z"/><path class="cls-3" d="M5.07952,21.93129a10.7516,10.7516,0,1,1,5.966,1.77576"/></g></svg>