<svg xmlns="http://www.w3.org/2000/svg" xmlns:xlink="http://www.w3.org/1999/xlink" viewBox="0 0 24 34"><defs><style>.cls-1{fill:url(#linear-gradient);}.cls-2{fill:none;}.cls-2,.cls-3{stroke:#000;stroke-linecap:round;stroke-linejoin:round;stroke-width:0.5px;}.cls-3{fill:#f95d5e;}</style><linearGradient id="linear-gradient" x1="12.45619" y1="2.12792" x2="12.2691" y2="30.75216" gradientUnits="userSpaceOnUse"><stop offset="0.15642" stop-color="#ffea71"/><stop offset="0.61117" stop-color="#ffd400"/><stop offset="1" stop-color="#f6af22"/></linearGradient></defs><title>be-strong-1-24x34</title><g id="be_strong-1_24x34" data-name="be strong-1 24x34"><path class="cls-1" d="M9.0095,21.75482c1.75041-2.30422,4.7771-3.4085,7.83735-3.67675a6.44268,6.44268,0,0,1,6.86047,5.75275h0a6.46378,6.46378,0,0,1-4.98709,7.06985A24.83919,24.83919,0,0,1,4.117,29.69662c-.47216-.18934-1.29677-.22463-1.794-.38919-1.78278-.59006-1.552-3.525-1.26628-6.60426C1.67858,16.00144,4.56926,14.523,7.78584,8.29158c1.03158-1.99847,2.97609-3.58336,5.35368-5.10624a2.85563,2.85563,0,0,1,2.65709-.50219c3.09113,1.33377,4.21651,2.6579,3.99353,3.82553-.124.64929-1.36171,1.58852-1.36171,1.58852s1.10854.85908.61812,1.56074c-1.03744,1.48429-2.51873.53113-5.31875.43055-.75948-.02729-1.11817-.9287-1.32335-1.25281-1.6064,3.2984-1.14983,6.70868-.9209,10.74468"/><path class="cls-2" d="M9.0095,21.75482c1.75041-2.30422,4.7771-3.4085,7.83735-3.67675a6.44268,6.44268,0,0,1,6.86047,5.75275h0a6.46378,6.46378,0,0,1-4.98709,7.06985A24.83919,24.83919,0,0,1,4.117,29.69662c-.47216-.18934-1.29677-.22463-1.794-.38919-1.78278-.59006-1.552-3.525-1.26628-6.60426C1.67858,16.00144,4.56926,14.523,7.78584,8.29158c1.03158-1.99847,2.97609-3.58336,5.35368-5.10624a2.85563,2.85563,0,0,1,2.65709-.50219c3.09113,1.33377,4.21651,2.6579,3.99353,3.82553-.124.64929-1.36171,1.58852-1.36171,1.58852s1.10854.85908.61812,1.56074c-1.03744,1.48429-2.51873.53113-5.31875.43055-.75948-.02729-1.11817-.9287-1.32335-1.25281-1.6064,3.2984-1.14983,6.70868-.9209,10.74468"/><path class="cls-2" d="M11.14928,26.03441a11.33159,11.33159,0,0,0,8.1397-.16433"/><path class="cls-2" d="M15.99559,7.49727a4.37614,4.37614,0,0,0,.6649.34592,3.43233,3.43233,0,0,0,1.87253.23622"/><path class="cls-3" d="M8.52836,11.9694q-.05668-.03021-.11381-.057a3.014,3.014,0,0,0-3.22471.68938,3.014,3.014,0,0,0-3.22472-.68938q-.05711.02675-.1138.057A2.962,2.962,0,0,0,.25216,14.62814a6.29375,6.29375,0,0,0,1.77773,3.66951,10.46628,10.46628,0,0,0,1.58987,1.47676,8.11219,8.11219,0,0,0,.82019.54412c.111.06376.6287.416.74989.36335.12119.05268.6389-.29959.7499-.36335a8.11318,8.11318,0,0,0,.82018-.54412A10.46682,10.46682,0,0,0,8.3498,18.29765a6.29377,6.29377,0,0,0,1.77772-3.66951A2.962,2.962,0,0,0,8.52836,11.9694Z"/></g></svg>