<svg xmlns="http://www.w3.org/2000/svg" xmlns:xlink="http://www.w3.org/1999/xlink" viewBox="0 0 24 34"><defs><style>.cls-1{fill:url(#linear-gradient);}.cls-2{fill:#424242;}.cls-2,.cls-3,.cls-4,.cls-5{stroke:#000;stroke-linecap:round;stroke-linejoin:round;stroke-width:0.5px;}.cls-3{fill:none;}.cls-4{fill:#00565b;}.cls-5{fill:#f95d5e;}.cls-6{fill:url(#linear-gradient-2);}.cls-7{fill:url(#linear-gradient-3);}</style><linearGradient id="linear-gradient" x1="12" y1="4.65676" x2="12" y2="28.15665" gradientTransform="translate(0.06954 -0.05063) rotate(0.24246)" gradientUnits="userSpaceOnUse"><stop offset="0.15642" stop-color="#ffea71"/><stop offset="0.61117" stop-color="#ffd400"/><stop offset="1" stop-color="#f6af22"/></linearGradient><linearGradient id="linear-gradient-2" x1="12.9876" y1="24.9288" x2="22.3974" y2="20.70011" gradientTransform="matrix(1, 0, 0, 1, 0, 0)" xlink:href="#linear-gradient"/><linearGradient id="linear-gradient-3" x1="8.67131" y1="23.08554" x2="-0.81467" y2="16.64726" gradientTransform="matrix(1, 0, 0, 1, 0, 0)" xlink:href="#linear-gradient"/></defs><title>be-strong-2-24x34</title><g id="be_strong-2_24x34" data-name="be strong-2 24x34"><circle class="cls-1" cx="12" cy="16.40671" r="11.75" transform="translate(-0.06932 0.05093) rotate(-0.24246)"/><path class="cls-2" d="M10.04639,13.75317a2.03814,2.03814,0,0,0,3.90722-.01655Z"/><path class="cls-3" d="M5.18476,9.13636a3.67736,3.67736,0,0,1,3.77465-.74611"/><path class="cls-3" d="M18.75329,9.13636a3.67737,3.67737,0,0,0-3.77466-.74611"/><circle class="cls-4" cx="7.30857" cy="11.15223" r="1.5429"/><circle class="cls-4" cx="16.62947" cy="11.15223" r="1.5429"/><path class="cls-5" d="M16.48859,18.05561q-.06981-.06546-.14162-.1261a4.48472,4.48472,0,0,0-4.9057-.2549A4.48473,4.48473,0,0,0,7.07,15.4335q-.09251.01642-.18577.038a4.41955,4.41955,0,0,0-3.33077,3.2112,9.3946,9.3946,0,0,0,1.13485,5.97418,15.59951,15.59951,0,0,0,1.71454,2.74268,12.08325,12.08325,0,0,0,.96888,1.10126c.13495.1348.7431.84264.93783.81365.1539.12279,1.03512-.18432,1.2195-.23321a12.08532,12.08532,0,0,0,1.39067-.46642A15.60016,15.60016,0,0,0,13.779,27.10278a9.39457,9.39457,0,0,0,3.97938-4.59818A4.41953,4.41953,0,0,0,16.48859,18.05561Z"/><path class="cls-6" d="M23.25294,19.78778a26.08249,26.08249,0,0,1-4.74152.6155c-1.9632.07715-3.73092-.24954-4.00785.28917-.33958.66066.45864.93606.68631.96418.29376.03621.32589.107.24014.27678-.24866.4923-1.71818-.262-2.14789.81279-.92812,2.32166,2.74786,3.79555,5.57806,3.18763A11.76061,11.76061,0,0,0,23.25294,19.78778Z"/><path class="cls-7" d="M1.88078,22.35263c2.45206,1.777,6.97421,1.6078,6.773-1.055-.08728-1.1542-1.71541-.87581-1.80488-1.42-.03082-.18776.021-.2456.31212-.192.22563.04153,1.06975.01843.94407-.71371-.10243-.597-1.88669-.81592-3.73616-1.47884A27.39825,27.39825,0,0,1,.288,15.63735c-.01763.27176-.039.54264-.03788.81906A11.6729,11.6729,0,0,0,1.88078,22.35263Z"/><path class="cls-3" d="M5.52878,26.21559a11.75173,11.75173,0,1,1,6.52094,1.941"/></g></svg>