<svg xmlns="http://www.w3.org/2000/svg" xmlns:xlink="http://www.w3.org/1999/xlink" viewBox="0 0 22 27"><defs><style>.cls-1{fill:url(#linear-gradient);}.cls-2{fill:none;}.cls-2,.cls-3{stroke:#000;stroke-linecap:round;stroke-linejoin:round;stroke-width:0.5px;}.cls-3{fill:#f95d5e;}</style><linearGradient id="linear-gradient" x1="11.41737" y1="-0.10642" x2="11.2462" y2="26.08181" gradientUnits="userSpaceOnUse"><stop offset="0.15642" stop-color="#ffea71"/><stop offset="0.61117" stop-color="#ffd400"/><stop offset="1" stop-color="#f6af22"/></linearGradient></defs><title>be-strong-1</title><g id="be_strong-1" data-name="be strong-1"><path class="cls-1" d="M8.264,17.85018c1.60145-2.10814,4.37055-3.11844,7.17037-3.36385A5.89439,5.89439,0,0,1,21.711,19.7495h0a5.9137,5.9137,0,0,1-4.56268,6.46818A22.72534,22.72534,0,0,1,3.78789,25.1161c-.432-.17322-1.18641-.20551-1.64129-.35606C.51555,24.22019.72671,21.535.98809,18.71782c.56887-6.1314,3.21354-7.484,6.15639-13.18513A13.275,13.275,0,0,1,12.04255.861a2.61262,2.61262,0,0,1,2.431-.45946c2.82807,1.22027,3.85767,2.43171,3.65367,3.5-.11344.594-1.24583,1.45333-1.24583,1.45333s1.0142.786.56552,1.42792c-.94915,1.358-2.30438.48593-4.86611.39391-.69485-.025-1.023-.84967-1.21073-1.14619-1.46969,3.0177-1.052,6.13774-.84253,9.83027"/><path class="cls-2" d="M8.264,17.85018c1.60145-2.10814,4.37055-3.11844,7.17037-3.36385A5.89439,5.89439,0,0,1,21.711,19.7495h0a5.9137,5.9137,0,0,1-4.56268,6.46818A22.72534,22.72534,0,0,1,3.78789,25.1161c-.432-.17322-1.18641-.20551-1.64129-.35606C.51555,24.22019.72671,21.535.98809,18.71782c.56887-6.1314,3.21354-7.484,6.15639-13.18513A13.275,13.275,0,0,1,12.04255.861a2.61262,2.61262,0,0,1,2.431-.45946c2.82807,1.22027,3.85767,2.43171,3.65367,3.5-.11344.594-1.24583,1.45333-1.24583,1.45333s1.0142.786.56552,1.42792c-.94915,1.358-2.30438.48593-4.86611.39391-.69485-.025-1.023-.84967-1.21073-1.14619-1.46969,3.0177-1.052,6.13774-.84253,9.83027"/><path class="cls-2" d="M10.22168,21.76555a10.36716,10.36716,0,0,0,7.447-.15034"/><path class="cls-2" d="M14.65555,4.806a4.00443,4.00443,0,0,0,.60832.31648,3.1402,3.1402,0,0,0,1.71318.21612"/><path class="cls-3" d="M7.8238,8.89752Q7.772,8.86988,7.71968,8.8454a2.75749,2.75749,0,0,0-2.95028.63072A2.7575,2.7575,0,0,0,1.81912,8.8454q-.05225.02448-.10412.05212A2.70989,2.70989,0,0,0,.25194,11.33a5.75814,5.75814,0,0,0,1.62643,3.35723A9.5749,9.5749,0,0,0,3.333,16.0383a7.42367,7.42367,0,0,0,.75038.49782c.10155.05833.5752.38062.68608.33243.11087.04819.58452-.2741.68607-.33243a7.42367,7.42367,0,0,0,.75038-.49782,9.57588,9.57588,0,0,0,1.45458-1.35108A5.75814,5.75814,0,0,0,9.28687,11.33,2.70988,2.70988,0,0,0,7.8238,8.89752Z"/></g></svg>