<svg xmlns="http://www.w3.org/2000/svg" xmlns:xlink="http://www.w3.org/1999/xlink" viewBox="0 0 22 27"><defs><style>.cls-1{fill:url(#linear-gradient);}.cls-2{fill:none;stroke:#000;stroke-linecap:round;stroke-linejoin:round;stroke-width:0.5px;}</style><linearGradient id="linear-gradient" x1="11" y1="-69.65994" x2="11" y2="-43.15994" gradientTransform="matrix(1, 0, 0, -1, 0, -42.90994)" gradientUnits="userSpaceOnUse"><stop offset="0.15642" stop-color="#ffea71"/><stop offset="0.61117" stop-color="#ffd400"/><stop offset="1" stop-color="#f6af22"/></linearGradient></defs><title>dislike</title><g id="dislike"><path class="cls-1" d="M19.61556,17.64187H14.72823l-3.8123.00428a.01.01,0,0,0-.00861.01385c3.38067,8.70284-1.6204,10.35954-2.14922,8.28618A19.11186,19.11186,0,0,0,7.883,22.19142C5.42581,17.79855,2.55548,16.94863.78958,13.272A5.63178,5.63178,0,0,1,.25,10.83751V6.53467A5.75358,5.75358,0,0,1,3.97165.808a8.64737,8.64737,0,0,1,2.538-.55787h7.82192L14.33235.25H18.1156a2.186,2.186,0,1,1,.09707,4.37084l.65234.0417a2.16237,2.16237,0,0,1,.20295,4.311h.44355a2.16452,2.16452,0,0,1,.14315,4.32661h-.02939A2.14557,2.14557,0,0,1,21.75,15.466h0A2.15543,2.15543,0,0,1,19.61556,17.64187Z"/><path class="cls-2" d="M19.61556,17.64187H14.72823l-3.8123.00428a.01.01,0,0,0-.00861.01385c3.38067,8.70284-1.6204,10.35954-2.14922,8.28618A19.11186,19.11186,0,0,0,7.883,22.19142C5.42581,17.79855,2.55548,16.94863.78958,13.272A5.63178,5.63178,0,0,1,.25,10.83751V6.53467A5.75358,5.75358,0,0,1,3.97165.808a8.64737,8.64737,0,0,1,2.538-.55787h7.82192L14.33235.25H18.1156a2.186,2.186,0,1,1,.09707,4.37084l.65234.0417a2.16237,2.16237,0,0,1,.20295,4.311h.44355a2.16452,2.16452,0,0,1,.14315,4.32661h-.02939A2.14557,2.14557,0,0,1,21.75,15.466h0A2.15543,2.15543,0,0,1,19.61556,17.64187Z"/><line class="cls-2" x1="18.86501" y1="4.62081" x2="14.57821" y2="4.62081"/><line class="cls-2" x1="19.77753" y1="8.97087" x2="14.45611" y2="8.97087"/><line class="cls-2" x1="19.87192" y1="13.30006" x2="14.45611" y2="13.30006"/></g></svg>