<svg xmlns="http://www.w3.org/2000/svg" xmlns:xlink="http://www.w3.org/1999/xlink" viewBox="0 0 24 34"><defs><style>.cls-1{fill:url(#linear-gradient);}.cls-2{fill:none;}.cls-2,.cls-3{stroke:#000;stroke-linecap:round;stroke-linejoin:round;stroke-width:0.5px;}.cls-3{fill:#d5d5d5;}</style><linearGradient id="linear-gradient" x1="12" y1="2.5175" x2="12" y2="26.34823" gradientUnits="userSpaceOnUse"><stop offset="0.15642" stop-color="#ffea71"/><stop offset="0.61117" stop-color="#ffd400"/><stop offset="1" stop-color="#f6af22"/></linearGradient></defs><title>good-writer-gold-24x34</title><g id="good_writer_gold_24x34" data-name="good writer gold 24x34"><path class="cls-1" d="M18.62457,2.5175a8.96154,8.96154,0,0,1-3.49742,4.06061,31.02467,31.02467,0,0,0-5.96961,4.48362,15.66642,15.66642,0,0,0-3.39068,5.53364.46328.46328,0,0,0,.01559.34371c.282.64047,1.27505,2.94106,1.0491,3.07965-.26887.16494-1.73225-1.29209-1.73225-1.29209s-.28425,4.41568,1.2572,7.393c.16816.3248.03982.21469.27593.194,5.835-.51262,8.43207-7.493,8.43207-7.493s-2.22829.14943-2.298-.1011c-.07329-.26334,3.64846-1.57264,4.10532-3.13291C19.98746,7.1319,18.62457,2.5175,18.62457,2.5175Z"/><path class="cls-2" d="M18.62457,2.5175a8.96154,8.96154,0,0,1-3.49742,4.06061,31.02467,31.02467,0,0,0-5.96961,4.48362,15.66642,15.66642,0,0,0-3.39068,5.53364.46328.46328,0,0,0,.01559.34371c.282.64047,1.27505,2.94106,1.0491,3.07965-.26887.16494-1.73225-1.29209-1.73225-1.29209s-.28425,4.41568,1.2572,7.393c.16816.3248.03982.21469.27593.194,5.835-.51262,8.43207-7.493,8.43207-7.493s-2.22829.14943-2.298-.1011c-.07329-.26334,3.64846-1.57264,4.10532-3.13291C19.98746,7.1319,18.62457,2.5175,18.62457,2.5175Z"/><path class="cls-3" d="M5.96971,31.4825A34.84866,34.84866,0,0,1,9.8911,17.96678a34.22445,34.22445,0,0,1,4.32107-6.48052l-.09284.08746c-1.55282,1.58251-5.85775,4.9379-8.60913,15.9568Z"/></g></svg>