<svg xmlns="http://www.w3.org/2000/svg" viewBox="0 0 22 27"><defs><style>.cls-1,.cls-3{fill:#d5d5d5;}.cls-2{fill:none;}.cls-2,.cls-3{stroke:#000;stroke-linecap:round;stroke-linejoin:round;stroke-width:0.5px;}</style></defs><title>good-writer-grey</title><g id="good_writer_grey" data-name="good writer grey"><path class="cls-1" d="M17.06081.25A8.19892,8.19892,0,0,1,13.861,3.965,28.38471,28.38471,0,0,0,8.39944,8.06709,14.33308,14.33308,0,0,0,5.29732,13.1298a.42384.42384,0,0,0,.01426.31447c.258.586,1.16654,2.69076.95982,2.81756-.246.1509-1.58483-1.18213-1.58483-1.18213s-.26006,4.03989,1.15021,6.76382c.15385.29717.03643.19642.25244.17745,5.33839-.469,7.71448-6.85533,7.71448-6.85533s-2.03865.13672-2.10243-.09249c-.06706-.24093,3.338-1.4388,3.75594-2.8663C18.3077,4.4717,17.06081.25,17.06081.25Z"/><path class="cls-2" d="M17.06081.25A8.19892,8.19892,0,0,1,13.861,3.965,28.38471,28.38471,0,0,0,8.39944,8.06709,14.33308,14.33308,0,0,0,5.29732,13.1298a.42384.42384,0,0,0,.01426.31447c.258.586,1.16654,2.69076.95982,2.81756-.246.1509-1.58483-1.18213-1.58483-1.18213s-.26006,4.03989,1.15021,6.76382c.15385.29717.03643.19642.25244.17745,5.33839-.469,7.71448-6.85533,7.71448-6.85533s-2.03865.13672-2.10243-.09249c-.06706-.24093,3.338-1.4388,3.75594-2.8663C18.3077,4.4717,17.06081.25,17.06081.25Z"/><path class="cls-3" d="M5.4829,26.75A31.88306,31.88306,0,0,1,9.07057,14.3845a31.312,31.312,0,0,1,3.95334-5.929l-.08494.08C11.5183,9.98334,7.57973,13.05319,5.0625,23.13435Z"/></g></svg>