<svg xmlns="http://www.w3.org/2000/svg" xmlns:xlink="http://www.w3.org/1999/xlink" viewBox="0 0 24 34"><defs><style>.cls-1{fill:url(#linear-gradient);}.cls-2{fill:none;stroke:#000;stroke-linecap:round;stroke-linejoin:round;stroke-width:0.5px;}</style><linearGradient id="linear-gradient" x1="12" y1="2.51744" x2="12" y2="31.48256" gradientUnits="userSpaceOnUse"><stop offset="0.15642" stop-color="#ffea71"/><stop offset="0.61117" stop-color="#ffd400"/><stop offset="1" stop-color="#f6af22"/></linearGradient></defs><title>like-24x34</title><g id="like_24x34" data-name="like 24x34"><path class="cls-1" d="M21.417,12.47284H16.075l-4.16693-.00468a.0109.0109,0,0,1-.00941-.01514c3.69515-9.5124-1.77114-11.32321-2.34915-9.057-.27042,1.06021-.41646,3.13869-.95646,4.104-2.68581,4.8015-5.82315,5.73049-7.75332,9.74918A6.15567,6.15567,0,0,0,.25,19.91016v4.70311a6.28879,6.28879,0,0,0,4.06785,6.25942,9.45162,9.45162,0,0,0,2.77409.60977h8.54955l.00085.00009h4.13517a2.38936,2.38936,0,1,0,.10611-4.77743l.713-.04558a2.36352,2.36352,0,0,0,.22183-4.712h.48481a2.36586,2.36586,0,0,0,.15647-4.72908h-.03213A2.34517,2.34517,0,0,0,23.75,14.85107h0A2.35594,2.35594,0,0,0,21.417,12.47284Z"/><path class="cls-2" d="M21.417,12.47284H16.075l-4.16693-.00468a.0109.0109,0,0,1-.00941-.01514c3.69515-9.5124-1.77114-11.32321-2.34915-9.057-.27042,1.06021-.41646,3.13869-.95646,4.104-2.68581,4.8015-5.82315,5.73049-7.75332,9.74918A6.15567,6.15567,0,0,0,.25,19.91016v4.70311a6.28879,6.28879,0,0,0,4.06785,6.25942,9.45162,9.45162,0,0,0,2.77409.60977h8.54955l.00085.00009h4.13517a2.38936,2.38936,0,1,0,.10611-4.77743l.713-.04558a2.36352,2.36352,0,0,0,.22183-4.712h.48481a2.36586,2.36586,0,0,0,.15647-4.72908h-.03213A2.34517,2.34517,0,0,0,23.75,14.85107h0A2.35594,2.35594,0,0,0,21.417,12.47284Z"/><line class="cls-2" x1="20.59664" y1="26.70516" x2="15.91107" y2="26.70516"/><line class="cls-2" x1="21.59404" y1="21.95044" x2="15.77761" y2="21.95044"/><line class="cls-2" x1="21.69722" y1="17.21854" x2="15.77761" y2="17.21854"/></g></svg>