<svg id="like" xmlns="http://www.w3.org/2000/svg" xmlns:xlink="http://www.w3.org/1999/xlink" viewBox="0 0 22 27"><defs><style>.cls-1{fill:url(#linear-gradient);}.cls-2{fill:none;stroke:#000;stroke-linecap:round;stroke-linejoin:round;stroke-width:0.5px;}</style><linearGradient id="linear-gradient" x1="11" y1="0.25" x2="11" y2="26.75" gradientUnits="userSpaceOnUse"><stop offset="0.15642" stop-color="#ffea71"/><stop offset="0.61117" stop-color="#ffd400"/><stop offset="1" stop-color="#f6af22"/></linearGradient></defs><title>like</title><path class="cls-1" d="M19.61556,9.35813H14.72823l-3.8123-.00428A.01.01,0,0,1,10.90732,9.34C14.288.63716,9.28692-1.01954,8.7581,1.05382A19.11186,19.11186,0,0,1,7.883,4.80858C5.42581,9.20145,2.55548,10.05137.78958,13.72805A5.63178,5.63178,0,0,0,.25,16.16249v4.30284A5.75358,5.75358,0,0,0,3.97165,26.192a8.64737,8.64737,0,0,0,2.538.55787h7.82192l.00078.00008H18.1156a2.186,2.186,0,1,0,.09707-4.37084l.65234-.0417a2.16237,2.16237,0,0,0,.20295-4.311h.44355a2.16452,2.16452,0,0,0,.14315-4.32661h-.02939A2.14557,2.14557,0,0,0,21.75,11.534h0A2.15543,2.15543,0,0,0,19.61556,9.35813Z"/><path class="cls-2" d="M19.61556,9.35813H14.72823l-3.8123-.00428A.01.01,0,0,1,10.90732,9.34C14.288.63716,9.28692-1.01954,8.7581,1.05382A19.11186,19.11186,0,0,1,7.883,4.80858C5.42581,9.20145,2.55548,10.05137.78958,13.72805A5.63178,5.63178,0,0,0,.25,16.16249v4.30284A5.75358,5.75358,0,0,0,3.97165,26.192a8.64737,8.64737,0,0,0,2.538.55787h7.82192l.00078.00008H18.1156a2.186,2.186,0,1,0,.09707-4.37084l.65234-.0417a2.16237,2.16237,0,0,0,.20295-4.311h.44355a2.16452,2.16452,0,0,0,.14315-4.32661h-.02939A2.14557,2.14557,0,0,0,21.75,11.534h0A2.15543,2.15543,0,0,0,19.61556,9.35813Z"/><line class="cls-2" x1="18.86501" y1="22.37919" x2="14.57821" y2="22.37919"/><line class="cls-2" x1="19.77753" y1="18.02913" x2="14.45611" y2="18.02913"/><line class="cls-2" x1="19.87192" y1="13.69994" x2="14.45611" y2="13.69994"/></svg>