<svg xmlns="http://www.w3.org/2000/svg" xmlns:xlink="http://www.w3.org/1999/xlink" viewBox="0 0 24 34"><defs><style>.cls-1{fill:url(#linear-gradient);}.cls-2{fill:none;}.cls-2,.cls-3,.cls-4,.cls-5{stroke:#000;stroke-linecap:round;stroke-linejoin:round;stroke-width:0.5px;}.cls-3{fill:#fbd771;}.cls-4{fill:#f5c33a;}.cls-5{fill:#00979e;}</style><linearGradient id="linear-gradient" x1="12.07212" y1="2.5175" x2="12.07212" y2="28.30356" gradientUnits="userSpaceOnUse"><stop offset="0.15642" stop-color="#ffea71"/><stop offset="0.61117" stop-color="#ffd400"/><stop offset="1" stop-color="#f6af22"/></linearGradient></defs><title>me-too-24x34</title><g id="me_too_24x34" data-name="me too 24x34"><path class="cls-1" d="M3.58309,6.73372a1.839,1.839,0,0,1,1.906,1.83772V5.227A1.86774,1.86774,0,0,1,7.26091,3.34517a1.839,1.839,0,0,1,1.906,1.83772V4.40048a1.86774,1.86774,0,0,1,1.77185-1.88179,1.839,1.839,0,0,1,1.906,1.83772v2.6034a1.839,1.839,0,0,1,1.906-1.83772,1.86774,1.86774,0,0,1,1.77185,1.88179V17.68469l2.00027-2.35444a2.16229,2.16229,0,0,1,3.04787-.24788h0a2.16229,2.16229,0,0,1,.24788,3.04788l-6.3952,7.52753-.00578.00679a2.54933,2.54933,0,0,0-.62371,1.6521v.98689H3.72591V26.44785a4.32037,4.32037,0,0,1-1.9078-3.35109H1.81124V8.61551A1.86774,1.86774,0,0,1,3.58309,6.73372Z"/><path class="cls-2" d="M3.58309,6.73372a1.839,1.839,0,0,1,1.906,1.83772V5.227A1.86774,1.86774,0,0,1,7.26091,3.34517a1.839,1.839,0,0,1,1.906,1.83772V4.40048a1.86774,1.86774,0,0,1,1.77185-1.88179,1.839,1.839,0,0,1,1.906,1.83772v2.6034a1.839,1.839,0,0,1,1.906-1.83772,1.86774,1.86774,0,0,1,1.77185,1.88179V17.68469l2.00027-2.35444a2.16229,2.16229,0,0,1,3.04787-.24788h0a2.16229,2.16229,0,0,1,.24788,3.04788l-6.3952,7.52753-.00578.00679a2.54933,2.54933,0,0,0-.62371,1.6521v.98689H3.72591V26.44785a4.32037,4.32037,0,0,1-1.9078-3.35109H1.81124V8.61551A1.86774,1.86774,0,0,1,3.58309,6.73372Z"/><line class="cls-3" x1="12.8447" y1="6.95981" x2="12.8447" y2="14.33611"/><line class="cls-4" x1="9.16688" y1="5.18289" x2="9.16688" y2="14.33611"/><line class="cls-4" x1="5.48906" y1="8.57144" x2="5.48906" y2="14.33611"/><rect class="cls-5" x="1.66699" y="28.30356" width="15.97109" height="3.17894" rx="0.47053"/></g></svg>