<svg xmlns="http://www.w3.org/2000/svg" xmlns:xlink="http://www.w3.org/1999/xlink" viewBox="0 0 22 27"><defs><style>.cls-1{fill:url(#linear-gradient);}.cls-2{fill:none;}.cls-2,.cls-3,.cls-4,.cls-5{stroke:#000;stroke-linecap:round;stroke-linejoin:round;stroke-width:0.5px;}.cls-3{fill:#fbd771;}.cls-4{fill:#f5c33a;}.cls-5{fill:#00979e;}</style><linearGradient id="linear-gradient" x1="11.06599" y1="0.25" x2="11.06599" y2="23.8416" gradientUnits="userSpaceOnUse"><stop offset="0.15642" stop-color="#ffea71"/><stop offset="0.61117" stop-color="#ffd400"/><stop offset="1" stop-color="#f6af22"/></linearGradient></defs><title>me-too</title><g id="me_too" data-name="me too"><path class="cls-1" d="M3.29939,4.10741A1.68246,1.68246,0,0,1,5.04316,5.78873V2.72888A1.7088,1.7088,0,0,1,6.66422,1.00723,1.68246,1.68246,0,0,1,8.408,2.68855V1.97274A1.70879,1.70879,0,0,1,10.02905.25109a1.68245,1.68245,0,0,1,1.74376,1.68132V4.31426a1.68246,1.68246,0,0,1,1.74377-1.68132,1.70879,1.70879,0,0,1,1.62106,1.72164v9.77184l1.83-2.15407a1.97828,1.97828,0,0,1,2.7885-.22678h0a1.97827,1.97827,0,0,1,.22679,2.78849L14.132,21.421l-.00529.00621a2.33238,2.33238,0,0,0-.57063,1.5115v.90291H3.43006V22.14381a3.95264,3.95264,0,0,1-1.74544-3.0659H1.67833V5.829A1.70879,1.70879,0,0,1,3.29939,4.10741Z"/><path class="cls-2" d="M3.29939,4.10741A1.68246,1.68246,0,0,1,5.04316,5.78873V2.72888A1.7088,1.7088,0,0,1,6.66422,1.00723,1.68246,1.68246,0,0,1,8.408,2.68855V1.97274A1.70879,1.70879,0,0,1,10.02905.25109a1.68245,1.68245,0,0,1,1.74376,1.68132V4.31426a1.68246,1.68246,0,0,1,1.74377-1.68132,1.70879,1.70879,0,0,1,1.62106,1.72164v9.77184l1.83-2.15407a1.97828,1.97828,0,0,1,2.7885-.22678h0a1.97827,1.97827,0,0,1,.22679,2.78849L14.132,21.421l-.00529.00621a2.33238,2.33238,0,0,0-.57063,1.5115v.90291H3.43006V22.14381a3.95264,3.95264,0,0,1-1.74544-3.0659H1.67833V5.829A1.70879,1.70879,0,0,1,3.29939,4.10741Z"/><line class="cls-3" x1="11.77281" y1="4.31426" x2="11.77281" y2="11.06282"/><line class="cls-4" x1="8.40799" y1="2.68855" x2="8.40799" y2="11.06282"/><line class="cls-4" x1="5.04316" y1="5.78873" x2="5.04316" y2="11.06282"/><rect class="cls-5" x="1.54636" y="23.8416" width="14.61191" height="2.9084" rx="0.47053"/></g></svg>