<svg xmlns="http://www.w3.org/2000/svg" xmlns:xlink="http://www.w3.org/1999/xlink" viewBox="0 0 24 34"><defs><style>.cls-1{fill:url(#linear-gradient);}.cls-2{fill:none;}.cls-2,.cls-3,.cls-4,.cls-5{stroke:#000;stroke-linecap:round;stroke-linejoin:round;stroke-width:0.5px;}.cls-3{fill:#424242;}.cls-4{fill:#f95d5e;}.cls-5{fill:#00979e;}</style><linearGradient id="linear-gradient" x1="12.02661" y1="6.24128" x2="12.02661" y2="27.75881" gradientTransform="translate(0.03589 -0.02533) rotate(0.12086)" gradientUnits="userSpaceOnUse"><stop offset="0.15642" stop-color="#ffea71"/><stop offset="0.61117" stop-color="#ffd400"/><stop offset="1" stop-color="#f6af22"/></linearGradient></defs><title>wow-24x34</title><g id="wow_24x34" data-name="wow 24x34"><circle class="cls-1" cx="12.02661" cy="17.00005" r="10.75886" transform="matrix(1, -0.00211, 0.00211, 1, -0.03583, 0.02541)"/><circle class="cls-2" cx="12.02661" cy="17.00005" r="10.75886" transform="matrix(1, -0.00211, 0.00211, 1, -0.03583, 0.02541)"/><path class="cls-3" d="M4.993,19.06349a7.34694,7.34694,0,0,0,14.08446-.05966Z"/><path class="cls-4" d="M12.05762,24.32806a7.291,7.291,0,0,0,5.54392-2.60322,12.30964,12.30964,0,0,0-5.56007-1.21375,11.60681,11.60681,0,0,0-5.54959,1.26077A7.29132,7.29132,0,0,0,12.05762,24.32806Z"/><path class="cls-5" d="M6.31952,6.66954l1.23322,2.9826a.45974.45974,0,0,0,.39684.28322l3.22152.19667a.45974.45974,0,0,1,.27034.80867L8.98588,13.03522a.45975.45975,0,0,0-.14673.46494l.80845,3.12459a.45974.45974,0,0,1-.68555.507L6.21122,15.44364a.45974.45974,0,0,0-.48753.00412L3.00182,17.18219a.45974.45974,0,0,1-.694-.49532L3.06324,13.549a.45974.45974,0,0,0-.15458-.46239L.418,11.034a.45974.45974,0,0,1,.25661-.81312L3.89234,9.9697a.45976.45976,0,0,0,.392-.2899l1.18255-3.003A.45974.45974,0,0,1,6.31952,6.66954Z"/><path class="cls-5" d="M18.466,6.61814l1.23321,2.9826A.45974.45974,0,0,0,20.096,9.884l3.22152.19667a.45974.45974,0,0,1,.27034.80867l-2.45556,2.09452a.45975.45975,0,0,0-.14673.46494l.80846,3.12459a.45975.45975,0,0,1-.68556.507l-2.75083-1.68812a.45976.45976,0,0,0-.48753.00413l-2.72186,1.73443a.45974.45974,0,0,1-.694-.49532l.75545-3.13783a.45974.45974,0,0,0-.15458-.46239l-2.49066-2.05266a.45974.45974,0,0,1,.25662-.81312L16.0388,9.9183a.45976.45976,0,0,0,.392-.2899l1.18255-3.003A.45975.45975,0,0,1,18.466,6.61814Z"/></g></svg>