<svg xmlns="http://www.w3.org/2000/svg" xmlns:xlink="http://www.w3.org/1999/xlink" viewBox="0 0 22 27"><defs><style>.cls-1{fill:url(#linear-gradient);}.cls-2{fill:none;}.cls-2,.cls-3,.cls-4,.cls-5{stroke:#000;stroke-linecap:round;stroke-linejoin:round;stroke-width:0.5px;}.cls-3{fill:#424242;}.cls-4{fill:#f95d5e;}.cls-5{fill:#00979e;}</style><linearGradient id="linear-gradient" x1="11.02434" y1="3.65687" x2="11.02434" y2="23.34313" gradientTransform="translate(0.0285 -0.02322) rotate(0.12086)" gradientUnits="userSpaceOnUse"><stop offset="0.15642" stop-color="#ffea71"/><stop offset="0.61117" stop-color="#ffd400"/><stop offset="1" stop-color="#f6af22"/></linearGradient></defs><title>wow</title><g id="wow"><circle class="cls-1" cx="11.02434" cy="13.5" r="9.84321" transform="translate(-0.02845 0.02328) rotate(-0.12086)"/><circle class="cls-2" cx="11.02434" cy="13.5" r="9.84321" transform="translate(-0.02845 0.02328) rotate(-0.12086)"/><path class="cls-3" d="M4.58932,15.38783a6.72168,6.72168,0,0,0,12.88579-.05458Z"/><path class="cls-4" d="M11.05272,20.20435a6.67041,6.67041,0,0,0,5.07209-2.38167,11.2621,11.2621,0,0,0-5.08687-1.11045A10.61892,10.61892,0,0,0,5.96065,17.8657,6.67081,6.67081,0,0,0,11.05272,20.20435Z"/><path class="cls-5" d="M5.803,4.04868,6.93123,6.77744a.42061.42061,0,0,0,.36307.25912l2.94735.17994a.42061.42061,0,0,1,.24733.73984L8.2424,9.8726a.42062.42062,0,0,0-.13424.42537l.73965,2.85867a.42062.42062,0,0,1-.62721.46385L5.70388,12.07605a.42063.42063,0,0,0-.446.00377L2.76762,13.66664a.42061.42061,0,0,1-.635-.45317l.69115-2.87078a.42059.42059,0,0,0-.14142-.423L.4037,8.04169a.42061.42061,0,0,1,.23478-.74392L3.58236,7.068A.42064.42064,0,0,0,3.941,6.80275L5.0229,4.05529A.42062.42062,0,0,1,5.803,4.04868Z"/><path class="cls-5" d="M16.91569,4.00166,18.044,6.73042a.4206.4206,0,0,0,.36307.25911l2.94735.17994a.42061.42061,0,0,1,.24733.73984L19.35512,9.82557a.42063.42063,0,0,0-.13424.42537l.73965,2.85868a.42062.42062,0,0,1-.62721.46385L16.8166,12.029a.42063.42063,0,0,0-.446.00378l-2.49021,1.58682a.42062.42062,0,0,1-.635-.45317l.69115-2.87078a.4206.4206,0,0,0-.14142-.423l-2.27869-1.878a.42061.42061,0,0,1,.23478-.74392l2.94388-.2298a.4206.4206,0,0,0,.35863-.26523l1.08191-2.74746A.42062.42062,0,0,1,16.91569,4.00166Z"/></g></svg>