<svg id="Icons_40x40" data-name="Icons 40x40" xmlns="http://www.w3.org/2000/svg" viewBox="0 0 40 40"><defs><style>.cls-1{fill:#00565b;}</style></defs><title>budget-management-40x40</title><g id="budget-management-40x40"><path class="cls-1" d="M8.14,14.85a1,1,0,1,0,1,1A1,1,0,0,0,8.14,14.85Z"/><path class="cls-1" d="M22.67,21.54a.52.52,0,1,0-.92-.47,2.06,2.06,0,0,1-1.81,1.15,2,2,0,0,1-1.72-1h1a.52.52,0,0,0,0-1H17.9a.91.91,0,0,1,0-.38h1.34a.52.52,0,0,0,0-1h-1a2,2,0,0,1,3.51.12.52.52,0,0,0,.71.21.51.51,0,0,0,.21-.7,3,3,0,0,0-5.58.37h-.76a.52.52,0,0,0,0,1h.54c0,.07,0,.13,0,.19s0,.12,0,.19h-.54a.52.52,0,0,0,0,1h.76a3,3,0,0,0,5.6.33Z"/><path class="cls-1" d="M39.1,17.46a2,2,0,0,0-.48-.1q.09-.22.21-.48a.53.53,0,0,0-.25-.7.53.53,0,0,0-.7.26,7.89,7.89,0,0,0-.44,1.16,3.73,3.73,0,0,0-.73.44c-.64-5.47-5.64-9.88-11.93-10.27a.51.51,0,0,0-.47.25l-1.5,2.43a.52.52,0,0,0,0,.47l1.06,2.61a7.36,7.36,0,0,0-7.82.28l-1.21-3,1.36-2.2a.51.51,0,0,0,0-.52.62.62,0,0,0-.47-.29,13.83,13.83,0,0,0-8,1.94L5.16,8.55A1.16,1.16,0,0,0,4,8.78a1.14,1.14,0,0,0-.4,1l.18,3.55A10.7,10.7,0,0,0,2.55,15.8H2.44A2.43,2.43,0,0,0,0,18.23v3.09a2.44,2.44,0,0,0,2.44,2.44H3a11.87,11.87,0,0,0,4,4.58v3.37a.52.52,0,0,0,.52.52h4.67a.52.52,0,0,0,.53-.52V30.57c.52.08,1.06.13,1.61.16a.49.49,0,0,0,.42-.18.55.55,0,0,0,.12-.44L14,25.86l.33-1.26a7.45,7.45,0,0,0,5.82,2.82,7.28,7.28,0,0,0,2.09-.3l.65,3.15a.5.5,0,0,0,.48.42h.19a10.63,10.63,0,0,0,2.24-.1v1.07a.52.52,0,0,0,.52.52H31a.52.52,0,0,0,.52-.52V28.52a11.15,11.15,0,0,0,5.3-9.1s0,0,0,0a3.37,3.37,0,0,1,.5-.5,1.66,1.66,0,0,0,.22.66A1.36,1.36,0,0,0,40,18.78,1.35,1.35,0,0,0,39.1,17.46Zm-26.85,12a.52.52,0,0,0-.43.11.5.5,0,0,0-.19.4v1.24H8V28.06a.5.5,0,0,0-.23-.43,10.75,10.75,0,0,1-4-4.6.54.54,0,0,0-.48-.32H2.44A1.4,1.4,0,0,1,1,21.32V18.23a1.4,1.4,0,0,1,1.4-1.39h.49a.51.51,0,0,0,.49-.37A9.7,9.7,0,0,1,4.76,13.8a.49.49,0,0,0,.09-.33L4.66,9.75s.11-.21.11-.23L7.45,10.8a.52.52,0,0,0,.51,0,12.86,12.86,0,0,1,6.84-2l-1,1.68a.52.52,0,0,0,0,.47l1.86,4.58-2,7.68h0l-.65,2.49a.49.49,0,0,0,0,.24l.75,3.69A12.77,12.77,0,0,1,12.25,29.44Zm7.86-3.06a6.39,6.39,0,0,1-5.47-3.11l2-7.63a.53.53,0,0,0,0-.33l-.21-.51a6.33,6.33,0,0,1,8.18.6l0,.1L22,25.67a.49.49,0,0,0,0,.24l0,.16A6.28,6.28,0,0,1,20.11,26.38Zm10.56,1.41a.51.51,0,0,0-.24.44v2.92H26.8V30a.53.53,0,0,0-.19-.4.49.49,0,0,0-.42-.11,10.25,10.25,0,0,1-2.4.2L23,25.82,25.67,15.6a.53.53,0,0,0,0-.33l-1.82-4.5L25,8.83c6,.52,10.71,5,10.71,10.4A10.15,10.15,0,0,1,30.67,27.79Zm8-8.68c-.26,0-.31-.09-.33-.11a1,1,0,0,1-.06-.58.89.89,0,0,1,.41,0,.31.31,0,0,1,.22.34C39,18.9,38.88,19.11,38.72,19.11Z"/></g></svg>