<svg id="Icons_40x40" data-name="Icons 40x40" xmlns="http://www.w3.org/2000/svg" viewBox="0 0 40 40"><defs><style>.cls-1{fill:#00565b;}</style></defs><title>family-relationships-40x40</title><g id="family-relationships-40x40"><path class="cls-1" d="M20.09,11l.13,0a.53.53,0,0,0,.51-.39l2.61-10A.51.51,0,0,0,23,0a.52.52,0,0,0-.64.37l-2.61,10A.52.52,0,0,0,20.09,11Z"/><path class="cls-1" d="M24.25,8l1.08-.39.45,3.57a.51.51,0,0,0,.48.45h0a.53.53,0,0,0,.5-.38l1.83-6.4a.51.51,0,0,0-.15-.52A.49.49,0,0,0,28,4.23l-1.18.42L26.42,1A.51.51,0,0,0,26,.5a.53.53,0,0,0-.55.38L23.57,7.37a.51.51,0,0,0,.15.52A.53.53,0,0,0,24.25,8Zm1.4-4.16.14,1.49a.64.64,0,0,0,0,.2.53.53,0,0,0,.66.33h0l.84-.3-.85,3-.19-1.47a.5.5,0,0,0,0-.34.51.51,0,0,0-.66-.31l-.79.28Z"/><path class="cls-1" d="M14.06,9a6.25,6.25,0,0,0,.71.47,1.57,1.57,0,0,0,.75.32h0c.23,0,.52-.16.82-.35A5.82,5.82,0,0,0,17,9a8.14,8.14,0,0,0,1.26-1.17,5.07,5.07,0,0,0,1.45-3,2.7,2.7,0,0,0-1.47-2.45l-.1-.06a2.6,2.6,0,0,0-2.62.33,2.61,2.61,0,0,0-2.72-.27,2.67,2.67,0,0,0-1.46,2.45A5.05,5.05,0,0,0,12.8,7.78,8.14,8.14,0,0,0,14.06,9Zm-.69-5.78a1.18,1.18,0,0,1,.54-.12,2.19,2.19,0,0,1,1.29.55.52.52,0,0,0,.68,0,1.78,1.78,0,0,1,1.83-.43l.06,0h0a1.66,1.66,0,0,1,.91,1.49A4.11,4.11,0,0,1,17.49,7.1a7.08,7.08,0,0,1-1.1,1,6.5,6.5,0,0,1-.64.42l-.21.13-.3-.18a6.61,6.61,0,0,1-.55-.37,7.52,7.52,0,0,1-1.1-1A4.11,4.11,0,0,1,12.4,4.69,1.68,1.68,0,0,1,13.37,3.17Z"/><path class="cls-1" d="M33.77,24.32h-1a5.26,5.26,0,1,0-6.22,0h-.63a6.26,6.26,0,0,0-1.91.4,3.62,3.62,0,0,0-2.77-.24,7.33,7.33,0,0,0-5.15-2.54H14.74a6,6,0,1,0-6.72,0H7.08A7.6,7.6,0,0,0,0,29.65v5.92a.52.52,0,0,0,.52.52H6.57c0,.07,0,.14,0,.21v3.18a.52.52,0,0,0,.52.52H29.2a.52.52,0,0,0,.52-.52V36.76h9.76a.52.52,0,0,0,.52-.52V31.09A6.67,6.67,0,0,0,33.77,24.32Zm-8.32-4.23a4.22,4.22,0,1,1,4.22,4.22A4.23,4.23,0,0,1,25.45,20.09Zm-4.24,5.5.06,0A2.8,2.8,0,1,1,22.33,31h0a2.8,2.8,0,0,1-1.11-5.37ZM6.45,17a4.93,4.93,0,1,1,4.94,4.93h0A4.94,4.94,0,0,1,6.45,17Zm.3,18H1v-5.4A6.56,6.56,0,0,1,7.13,23c.3,0,8.62,0,8.91,0a6.35,6.35,0,0,1,4.22,1.94,3.85,3.85,0,0,0-1.78,3.24A3.79,3.79,0,0,0,19.72,31h0a5.62,5.62,0,0,0-.7.1l-.24.06c-.09,0-.19,0-.28.08s0,0-.06,0a4.61,4.61,0,0,0-1.56.9l-.07.09a3.92,3.92,0,0,0-1.33-.31h-.08a3.45,3.45,0,1,0-4.91,0A4.25,4.25,0,0,0,6.75,35.05Zm8.57-5.55a2.41,2.41,0,0,1-2.41,2.4h0a2.41,2.41,0,1,1,2.41-2.4ZM18.45,39H7.6V36.3a3.28,3.28,0,0,1,3-3.35H15.4a3.29,3.29,0,0,1,3,3.35Zm10.23,0H19.49V36.3a4.42,4.42,0,0,0-1.74-3.54A3.6,3.6,0,0,1,19,32.13l.18-.05a2.51,2.51,0,0,1,.55-.07h5.41a3.79,3.79,0,0,1,3.52,3.86ZM39,35.72H29.71A4.84,4.84,0,0,0,25.21,31h-.27a3.82,3.82,0,0,0,.15-5.47,5.31,5.31,0,0,1,.89-.13h7.74A5.64,5.64,0,0,1,39,31.09Z"/></g></svg>