<svg xmlns="http://www.w3.org/2000/svg" viewBox="0 0 40 40"><title>suffering-at-work-40x40-black</title><g id="Icons_40x40_Black" data-name="Icons 40x40 Black"><g id="suffering-at-work-40x40-black"><path d="M23.23,12.81a6,6,0,0,0-2.75-5.05.51.51,0,0,0-.72.16.52.52,0,0,0,.15.72,5,5,0,1,1-6.11.56,4.48,4.48,0,0,1,.58-.48l.15-.1A.52.52,0,1,0,14,7.74l-.19.13a5.45,5.45,0,0,0-.7.57,6,6,0,0,0-1.89,4.37,6,6,0,1,0,12,0Z"/><path d="M17.21,13.28a.52.52,0,0,0,.52-.53V5.67a.52.52,0,1,0-1,0v7.08A.52.52,0,0,0,17.21,13.28Z"/><path d="M38.24,30.15H36.67V28.26a.52.52,0,0,0-.52-.52H26.44c0-2.69.3-4.56.88-5.68.33-.65.73-1.27,1.12-1.88a19,19,0,0,0,1.41-2.46A12.84,12.84,0,0,0,28.48,4.87C25.86,1.5,21-.31,15.6.05c-.42,0-.84.06-1.25.11C8.3.92,4.58,4.39,4.17,9.68a5.07,5.07,0,0,0,0,.64,5.91,5.91,0,0,1,0,.83c-.28.48-.83,1.22-1.41,2-1.51,2-2.5,3.43-2.5,4.29,0,1.1,1.26,1.42,2,1.61l.42.1a1.47,1.47,0,0,1-.32,1A1.61,1.61,0,0,0,2,21.33a1.18,1.18,0,0,0,.64.78h0a1,1,0,0,0-.1,1.57c.62.72.62.72.32,1.62l-.09.26a3,3,0,0,0,.16,2.84c.92,1.27,3.09,1.25,4.83,1.22a6.18,6.18,0,0,1,2,.14c.52.38.46,3.57.43,5.11,0,1,0,1.81,0,2.39a.51.51,0,0,0,.52.47h6.39v.8A1.47,1.47,0,0,0,18.55,40h17.6a.52.52,0,0,0,.52-.52V37.59h1.57a1.47,1.47,0,0,0,1.47-1.47v-4.5A1.47,1.47,0,0,0,38.24,30.15ZM11.19,36.7c0-.5,0-1.14,0-1.8.06-3.19,0-5.32-.87-6a5,5,0,0,0-2.6-.34c-1.5,0-3.37,0-4-.79a2.12,2.12,0,0,1,0-1.9l.09-.26A2,2,0,0,0,3.33,23L3.28,23l.09-.1A1.09,1.09,0,0,0,3.78,22a1,1,0,0,0-.57-.72c-.06,0-.16-.1-.18-.09a1,1,0,0,1,.21-.38,2.55,2.55,0,0,0,.51-1.87,1,1,0,0,0-.6-.69A4.48,4.48,0,0,0,2.56,18c-.43-.11-1.23-.31-1.23-.6,0-.58,1.44-2.51,2.3-3.67a25.37,25.37,0,0,0,1.47-2.1,2.6,2.6,0,0,0,.13-1.42,3,3,0,0,1,0-.49c.51-6.5,6-8.16,9.28-8.57.38-.05.78-.08,1.17-.1,5.11-.33,9.59,1.32,12,4.42A11.81,11.81,0,0,1,28.9,17.29a18.18,18.18,0,0,1-1.34,2.33c-.4.63-.82,1.27-1.17,2a14.55,14.55,0,0,0-1,6.16H18.55a1.47,1.47,0,0,0-1.46,1.46v7.5Zm27.48-.58a.42.42,0,0,1-.43.42H36.15a.52.52,0,0,0-.52.52V39H18.55a.42.42,0,0,1-.42-.42V29.2a.42.42,0,0,1,.42-.42H35.63v1.9a.52.52,0,0,0,.52.52h2.09a.42.42,0,0,1,.43.42Z"/><path d="M22.75,29.77H19.87a.52.52,0,0,0-.52.52v7.16a.52.52,0,0,0,.52.52h2.88a.52.52,0,0,0,.52-.52V30.29A.52.52,0,0,0,22.75,29.77Zm-.52,7.15H20.39v-6.1h1.84Z"/></g></g></svg>